<?xml version="1.0" encoding="utf-8"?>
<!-- Generator: Adobe Illustrator 26.3.1, SVG Export Plug-In . SVG Version: 6.00 Build 0)  -->
<svg version="1.1" id="eUtfKsV2qQa1" text-rendering="geometricPrecision" shape-rendering="geometricPrecision"
	 xmlns="http://www.w3.org/2000/svg" xmlns:xlink="http://www.w3.org/1999/xlink" x="0px" y="0px" viewBox="0 0 36 36"
	 style="enable-background:new 0 0 36 36;" xml:space="preserve">
<style type="text/css">
	.st0{fill:url(#SVGID_1_);}
	.st1{fill:url(#SVGID_00000145738247604566996420000003976693972425846677_);}
	.st2{fill:url(#SVGID_00000100362705821165779460000001187476169189617844_);}
	.st3{fill:url(#SVGID_00000147190010036374248670000002732176975758389376_);}
	.st4{fill:url(#SVGID_00000051356172525430572750000007372473699230809749_);}
	.st5{fill:url(#SVGID_00000134207606626972207910000015411271613580621746_);}
	.st6{fill:url(#SVGID_00000167368930171866592840000013331418050202376841_);}
	.st7{fill:url(#SVGID_00000020374374512701003100000016003320101875149979_);}
	.st8{fill:url(#SVGID_00000140737478913585432030000008897080990883259792_);}
	.st9{fill:url(#SVGID_00000172418438602843994920000014010158483337918611_);}
	.st10{fill:url(#SVGID_00000118369294306737818020000014758322420329070236_);}
	.st11{fill:url(#SVGID_00000067921935484816075760000008862041993854772370_);}
	.st12{fill:url(#SVGID_00000094603367423647456050000003059031242708371123_);}
	.st13{fill:url(#SVGID_00000003093718402286090740000002723251204654683831_);}
	.st14{fill:url(#SVGID_00000113351822588367862710000018364319755807059075_);}
	.st15{fill:url(#SVGID_00000042722545443329250800000000470060969216455814_);}
	.st16{fill:url(#SVGID_00000111155273829658348180000013859768419457680807_);}
	.st17{fill:url(#SVGID_00000041274530458767663000000018228936436150728636_);}
	.st18{fill:url(#SVGID_00000061440822260849356870000000811945342612675256_);}
	.st19{fill:url(#SVGID_00000004516279357943146470000015128394288031915954_);}
	.st20{fill:url(#SVGID_00000136407260018705788670000006909914695076915335_);}
	.st21{fill:url(#SVGID_00000157278518802602658280000011240962117013046966_);}
	.st22{fill:url(#SVGID_00000127011038910352868580000011228516334690594442_);}
	.st23{fill:url(#SVGID_00000175295547320585812410000007615241175890091678_);}
	.st24{fill:url(#SVGID_00000179608376163969597660000007496982503492163227_);}
	.st25{fill:url(#SVGID_00000173852727359690774400000000979834489018438830_);}
	.st26{fill:url(#SVGID_00000085244860868401913680000017693040247586723007_);}
	.st27{fill:url(#SVGID_00000059285480583516046550000018280560603635833019_);}
	.st28{fill:url(#SVGID_00000139288403449751296610000003555391110162194093_);}
	.st29{fill:url(#SVGID_00000116925646857853108460000012754378792830680202_);}
	.st30{fill:url(#SVGID_00000145050549545590000310000005707076327885741744_);}
	.st31{fill:url(#SVGID_00000009552715855981787430000013894348437717905076_);}
	.st32{fill:url(#SVGID_00000070822959469674523860000014928266903142849714_);}
	.st33{fill:url(#SVGID_00000121268875867291068060000010875762761158504116_);}
	.st34{fill:url(#SVGID_00000132770271597028961030000000686779042466790319_);}
	.st35{fill:url(#SVGID_00000109740106450155178650000017863635515503429280_);}
	.st36{fill:url(#SVGID_00000078753299519027585770000010498775249208516265_);}
	.st37{fill:url(#SVGID_00000011007054512676191190000017564451965064766103_);}
	.st38{fill:url(#SVGID_00000009576975445086936420000006286545129469820078_);}
	.st39{fill:url(#SVGID_00000032645677697282314400000011583971352281139334_);}
	.st40{fill:url(#SVGID_00000020395908692490015330000017901953199558122372_);}
	.st41{fill:none;stroke:#1F90FF;}
</style>
<g>
	
		<linearGradient id="SVGID_1_" gradientUnits="userSpaceOnUse" x1="36.4589" y1="41.3347" x2="36.4589" y2="27.5184" gradientTransform="matrix(1 0 0 -1 -8.3622 60.8347)">
		<stop  offset="0.155" style="stop-color:#1F90FF;stop-opacity:0"/>
		<stop  offset="1" style="stop-color:#1F90FF"/>
	</linearGradient>
	<path class="st0" d="M28.1,20.5c0.3,0,0.5-0.2,0.5-0.5s-0.2-0.5-0.5-0.5c-0.3,0-0.5,0.2-0.5,0.5S27.8,20.5,28.1,20.5z"/>
	
		<linearGradient id="SVGID_00000049900566392083449390000006522626174020047532_" gradientUnits="userSpaceOnUse" x1="33.959" y1="41.3347" x2="33.959" y2="27.5184" gradientTransform="matrix(1 0 0 -1 -8.3622 60.8347)">
		<stop  offset="0.155" style="stop-color:#1F90FF;stop-opacity:0"/>
		<stop  offset="1" style="stop-color:#1F90FF"/>
	</linearGradient>
	<path style="fill:url(#SVGID_00000049900566392083449390000006522626174020047532_);" d="M25.6,23c0.3,0,0.5-0.2,0.5-0.5
		S25.9,22,25.6,22c-0.3,0-0.5,0.2-0.5,0.5S25.3,23,25.6,23z"/>
	
		<linearGradient id="SVGID_00000044163142651104729040000008061204913490050744_" gradientUnits="userSpaceOnUse" x1="17.3631" y1="44.3347" x2="17.3631" y2="30.5822" gradientTransform="matrix(1 0 0 -1 -8.3622 60.8347)">
		<stop  offset="0.155" style="stop-color:#1F90FF;stop-opacity:0"/>
		<stop  offset="1" style="stop-color:#1F90FF"/>
	</linearGradient>
	<path style="fill:url(#SVGID_00000044163142651104729040000008061204913490050744_);" d="M9,17.6c0.3,0,0.5-0.2,0.5-0.5
		c0-0.3-0.2-0.5-0.5-0.5c-0.3,0-0.5,0.2-0.5,0.5C8.5,17.4,8.7,17.6,9,17.6z"/>
	
		<linearGradient id="SVGID_00000119110319754574134490000014147371554485829525_" gradientUnits="userSpaceOnUse" x1="19.8631" y1="44.3347" x2="19.8631" y2="30.5822" gradientTransform="matrix(1 0 0 -1 -8.3622 60.8347)">
		<stop  offset="0.155" style="stop-color:#1F90FF;stop-opacity:0"/>
		<stop  offset="1" style="stop-color:#1F90FF"/>
	</linearGradient>
	<path style="fill:url(#SVGID_00000119110319754574134490000014147371554485829525_);" d="M11.5,17.6c0.3,0,0.5-0.2,0.5-0.5
		c0-0.3-0.2-0.5-0.5-0.5c-0.3,0-0.5,0.2-0.5,0.5C11,17.4,11.2,17.6,11.5,17.6z"/>
	
		<linearGradient id="SVGID_00000098905274239426439400000011100721859349056923_" gradientUnits="userSpaceOnUse" x1="29.8631" y1="44.3347" x2="29.8631" y2="30.5822" gradientTransform="matrix(1 0 0 -1 -8.3622 60.8347)">
		<stop  offset="0.155" style="stop-color:#1F90FF;stop-opacity:0"/>
		<stop  offset="1" style="stop-color:#1F90FF"/>
	</linearGradient>
	<path style="fill:url(#SVGID_00000098905274239426439400000011100721859349056923_);" d="M21.5,17.7c0.3,0,0.6-0.3,0.6-0.6
		c0-0.3-0.3-0.6-0.6-0.6c-0.3,0-0.6,0.3-0.6,0.6C20.9,17.4,21.2,17.7,21.5,17.7z"/>
	
		<linearGradient id="SVGID_00000159438756731152781230000014594769635172061588_" gradientUnits="userSpaceOnUse" x1="32.3631" y1="44.3347" x2="32.3631" y2="30.5822" gradientTransform="matrix(1 0 0 -1 -8.3622 60.8347)">
		<stop  offset="0.155" style="stop-color:#1F90FF;stop-opacity:0"/>
		<stop  offset="1" style="stop-color:#1F90FF"/>
	</linearGradient>
	<path style="fill:url(#SVGID_00000159438756731152781230000014594769635172061588_);" d="M24,17.6c0.3,0,0.5-0.2,0.5-0.5
		c0-0.3-0.2-0.5-0.5-0.5c-0.3,0-0.5,0.2-0.5,0.5C23.5,17.4,23.7,17.6,24,17.6z"/>
	
		<linearGradient id="SVGID_00000048490768497934677480000013026254182169498774_" gradientUnits="userSpaceOnUse" x1="14.8631" y1="44.3347" x2="14.8631" y2="30.5822" gradientTransform="matrix(1 0 0 -1 -8.3622 60.8347)">
		<stop  offset="0.155" style="stop-color:#1F90FF;stop-opacity:0"/>
		<stop  offset="1" style="stop-color:#1F90FF"/>
	</linearGradient>
	<path style="fill:url(#SVGID_00000048490768497934677480000013026254182169498774_);" d="M6.5,20.1c0.3,0,0.5-0.2,0.5-0.5
		c0-0.3-0.2-0.5-0.5-0.5c-0.3,0-0.5,0.2-0.5,0.5C6,19.9,6.2,20.1,6.5,20.1z"/>
	
		<linearGradient id="SVGID_00000077282524342540426520000002777547413419384252_" gradientUnits="userSpaceOnUse" x1="17.3631" y1="44.3347" x2="17.3631" y2="30.5822" gradientTransform="matrix(1 0 0 -1 -8.3622 60.8347)">
		<stop  offset="0.155" style="stop-color:#1F90FF;stop-opacity:0"/>
		<stop  offset="1" style="stop-color:#1F90FF"/>
	</linearGradient>
	<path style="fill:url(#SVGID_00000077282524342540426520000002777547413419384252_);" d="M9,20.1c0.3,0,0.5-0.2,0.5-0.5
		c0-0.3-0.2-0.5-0.5-0.5c-0.3,0-0.5,0.2-0.5,0.5C8.5,19.9,8.7,20.1,9,20.1z"/>
	
		<linearGradient id="SVGID_00000057859334299389731250000008056212769451341705_" gradientUnits="userSpaceOnUse" x1="19.8631" y1="44.3347" x2="19.8631" y2="30.5822" gradientTransform="matrix(1 0 0 -1 -8.3622 60.8347)">
		<stop  offset="0.155" style="stop-color:#1F90FF;stop-opacity:0"/>
		<stop  offset="1" style="stop-color:#1F90FF"/>
	</linearGradient>
	<path style="fill:url(#SVGID_00000057859334299389731250000008056212769451341705_);" d="M11.5,20.1c0.3,0,0.5-0.2,0.5-0.5
		c0-0.3-0.2-0.5-0.5-0.5c-0.3,0-0.5,0.2-0.5,0.5C11,19.9,11.2,20.1,11.5,20.1z"/>
	
		<linearGradient id="SVGID_00000004532547512285503410000003582838575044082568_" gradientUnits="userSpaceOnUse" x1="22.3631" y1="44.3347" x2="22.3631" y2="30.5822" gradientTransform="matrix(1 0 0 -1 -8.3622 60.8347)">
		<stop  offset="0.155" style="stop-color:#1F90FF;stop-opacity:0"/>
		<stop  offset="1" style="stop-color:#1F90FF"/>
	</linearGradient>
	<path style="fill:url(#SVGID_00000004532547512285503410000003582838575044082568_);" d="M14,20.1c0.3,0,0.5-0.2,0.5-0.5
		c0-0.3-0.2-0.5-0.5-0.5c-0.3,0-0.5,0.2-0.5,0.5C13.5,19.9,13.7,20.1,14,20.1z"/>
	
		<linearGradient id="SVGID_00000116933905638046562330000000142067412330794927_" gradientUnits="userSpaceOnUse" x1="24.8631" y1="44.3347" x2="24.8631" y2="30.5822" gradientTransform="matrix(1 0 0 -1 -8.3622 60.8347)">
		<stop  offset="0.155" style="stop-color:#1F90FF;stop-opacity:0"/>
		<stop  offset="1" style="stop-color:#1F90FF"/>
	</linearGradient>
	<path style="fill:url(#SVGID_00000116933905638046562330000000142067412330794927_);" d="M16.5,20.1c0.3,0,0.5-0.2,0.5-0.5
		s-0.2-0.5-0.5-0.5S16,19.3,16,19.6S16.2,20.1,16.5,20.1z"/>
	
		<linearGradient id="SVGID_00000060711050100742011060000005340106682571035300_" gradientUnits="userSpaceOnUse" x1="27.3631" y1="44.3347" x2="27.3631" y2="30.5822" gradientTransform="matrix(1 0 0 -1 -8.3622 60.8347)">
		<stop  offset="0.155" style="stop-color:#1F90FF;stop-opacity:0"/>
		<stop  offset="1" style="stop-color:#1F90FF"/>
	</linearGradient>
	<path style="fill:url(#SVGID_00000060711050100742011060000005340106682571035300_);" d="M19,20.2c0.3,0,0.6-0.3,0.6-0.6
		c0-0.3-0.3-0.6-0.6-0.6c-0.3,0-0.6,0.3-0.6,0.6C18.4,19.9,18.7,20.2,19,20.2z"/>
	
		<linearGradient id="SVGID_00000060745019857276748790000007359349606605949333_" gradientUnits="userSpaceOnUse" x1="29.8631" y1="44.3347" x2="29.8631" y2="30.5822" gradientTransform="matrix(1 0 0 -1 -8.3622 60.8347)">
		<stop  offset="0.155" style="stop-color:#1F90FF;stop-opacity:0"/>
		<stop  offset="1" style="stop-color:#1F90FF"/>
	</linearGradient>
	<path style="fill:url(#SVGID_00000060745019857276748790000007359349606605949333_);" d="M21.5,20.2c0.3,0,0.6-0.3,0.6-0.6
		S21.8,19,21.5,19c-0.3,0-0.6,0.3-0.6,0.6S21.2,20.2,21.5,20.2z"/>
	
		<linearGradient id="SVGID_00000172433601420423443280000013923725154913965489_" gradientUnits="userSpaceOnUse" x1="12.3631" y1="44.3347" x2="12.3631" y2="30.5822" gradientTransform="matrix(1 0 0 -1 -8.3622 60.8347)">
		<stop  offset="0.155" style="stop-color:#1F90FF;stop-opacity:0"/>
		<stop  offset="1" style="stop-color:#1F90FF"/>
	</linearGradient>
	<path style="fill:url(#SVGID_00000172433601420423443280000013923725154913965489_);" d="M4,22.6c0.3,0,0.5-0.2,0.5-0.5
		c0-0.3-0.2-0.5-0.5-0.5c-0.3,0-0.5,0.2-0.5,0.5C3.5,22.4,3.7,22.6,4,22.6z"/>
	
		<linearGradient id="SVGID_00000059291320270642795770000003374537790880516494_" gradientUnits="userSpaceOnUse" x1="14.8631" y1="44.3347" x2="14.8631" y2="30.5822" gradientTransform="matrix(1 0 0 -1 -8.3622 60.8347)">
		<stop  offset="0.155" style="stop-color:#1F90FF;stop-opacity:0"/>
		<stop  offset="1" style="stop-color:#1F90FF"/>
	</linearGradient>
	<path style="fill:url(#SVGID_00000059291320270642795770000003374537790880516494_);" d="M6.5,22.6c0.3,0,0.5-0.2,0.5-0.5
		c0-0.3-0.2-0.5-0.5-0.5c-0.3,0-0.5,0.2-0.5,0.5C6,22.4,6.2,22.6,6.5,22.6z"/>
	
		<linearGradient id="SVGID_00000012445719142944388590000013685532931111295657_" gradientUnits="userSpaceOnUse" x1="17.3631" y1="44.3347" x2="17.3631" y2="30.5822" gradientTransform="matrix(1 0 0 -1 -8.3622 60.8347)">
		<stop  offset="0.155" style="stop-color:#1F90FF;stop-opacity:0"/>
		<stop  offset="1" style="stop-color:#1F90FF"/>
	</linearGradient>
	<path style="fill:url(#SVGID_00000012445719142944388590000013685532931111295657_);" d="M9,22.6c0.3,0,0.5-0.2,0.5-0.5
		c0-0.3-0.2-0.5-0.5-0.5c-0.3,0-0.5,0.2-0.5,0.5C8.5,22.4,8.7,22.6,9,22.6z"/>
	
		<linearGradient id="SVGID_00000055703557952362915360000015050146463308812425_" gradientUnits="userSpaceOnUse" x1="19.8631" y1="44.3347" x2="19.8631" y2="30.5822" gradientTransform="matrix(1 0 0 -1 -8.3622 60.8347)">
		<stop  offset="0.155" style="stop-color:#1F90FF;stop-opacity:0"/>
		<stop  offset="1" style="stop-color:#1F90FF"/>
	</linearGradient>
	<path style="fill:url(#SVGID_00000055703557952362915360000015050146463308812425_);" d="M11.5,22.6c0.3,0,0.5-0.2,0.5-0.5
		c0-0.3-0.2-0.5-0.5-0.5c-0.3,0-0.5,0.2-0.5,0.5C11,22.4,11.2,22.6,11.5,22.6z"/>
	
		<linearGradient id="SVGID_00000161600886138769369460000010948331738683485118_" gradientUnits="userSpaceOnUse" x1="22.3631" y1="44.3347" x2="22.3631" y2="30.5822" gradientTransform="matrix(1 0 0 -1 -8.3622 60.8347)">
		<stop  offset="0.155" style="stop-color:#1F90FF;stop-opacity:0"/>
		<stop  offset="1" style="stop-color:#1F90FF"/>
	</linearGradient>
	<path style="fill:url(#SVGID_00000161600886138769369460000010948331738683485118_);" d="M14,22.6c0.3,0,0.5-0.2,0.5-0.5
		s-0.2-0.5-0.5-0.5c-0.3,0-0.5,0.2-0.5,0.5S13.7,22.6,14,22.6z"/>
	
		<linearGradient id="SVGID_00000002348666649229309550000004845452445574485401_" gradientUnits="userSpaceOnUse" x1="24.8632" y1="44.3347" x2="24.8632" y2="30.5822" gradientTransform="matrix(1 0 0 -1 -8.3622 60.8347)">
		<stop  offset="0.155" style="stop-color:#1F90FF;stop-opacity:0"/>
		<stop  offset="1" style="stop-color:#1F90FF"/>
	</linearGradient>
	<path style="fill:url(#SVGID_00000002348666649229309550000004845452445574485401_);" d="M16.5,22.7c0.3,0,0.6-0.3,0.6-0.6
		s-0.3-0.6-0.6-0.6s-0.6,0.3-0.6,0.6S16.2,22.7,16.5,22.7z"/>
	
		<linearGradient id="SVGID_00000178902644255896287510000010122287016046877365_" gradientUnits="userSpaceOnUse" x1="27.3631" y1="44.3347" x2="27.3631" y2="30.5822" gradientTransform="matrix(1 0 0 -1 -8.3622 60.8347)">
		<stop  offset="0.155" style="stop-color:#1F90FF;stop-opacity:0"/>
		<stop  offset="1" style="stop-color:#1F90FF"/>
	</linearGradient>
	<path style="fill:url(#SVGID_00000178902644255896287510000010122287016046877365_);" d="M19,22.6c0.3,0,0.5-0.2,0.5-0.5
		s-0.2-0.5-0.5-0.5s-0.5,0.2-0.5,0.5S18.7,22.6,19,22.6z"/>
	
		<linearGradient id="SVGID_00000052795569468955051570000006559518254226278581_" gradientUnits="userSpaceOnUse" x1="9.8631" y1="44.3347" x2="9.8631" y2="30.5822" gradientTransform="matrix(1 0 0 -1 -8.3622 60.8347)">
		<stop  offset="0.155" style="stop-color:#1F90FF;stop-opacity:0"/>
		<stop  offset="1" style="stop-color:#1F90FF"/>
	</linearGradient>
	<path style="fill:url(#SVGID_00000052795569468955051570000006559518254226278581_);" d="M1.5,25.1c0.3,0,0.5-0.2,0.5-0.5
		c0-0.3-0.2-0.5-0.5-0.5c-0.3,0-0.5,0.2-0.5,0.5C1,24.9,1.2,25.1,1.5,25.1z"/>
	
		<linearGradient id="SVGID_00000058566307822367359270000011839377401767286695_" gradientUnits="userSpaceOnUse" x1="12.3631" y1="44.3347" x2="12.3631" y2="30.5822" gradientTransform="matrix(1 0 0 -1 -8.3622 60.8347)">
		<stop  offset="0.155" style="stop-color:#1F90FF;stop-opacity:0"/>
		<stop  offset="1" style="stop-color:#1F90FF"/>
	</linearGradient>
	<path style="fill:url(#SVGID_00000058566307822367359270000011839377401767286695_);" d="M4,25.1c0.3,0,0.5-0.2,0.5-0.5
		c0-0.3-0.2-0.5-0.5-0.5c-0.3,0-0.5,0.2-0.5,0.5C3.5,24.9,3.7,25.1,4,25.1z"/>
	
		<linearGradient id="SVGID_00000075878730709319862660000006724053215528010655_" gradientUnits="userSpaceOnUse" x1="14.8631" y1="44.3347" x2="14.8631" y2="30.5822" gradientTransform="matrix(1 0 0 -1 -8.3622 60.8347)">
		<stop  offset="0.155" style="stop-color:#1F90FF;stop-opacity:0"/>
		<stop  offset="1" style="stop-color:#1F90FF"/>
	</linearGradient>
	<path style="fill:url(#SVGID_00000075878730709319862660000006724053215528010655_);" d="M6.5,25.1c0.3,0,0.5-0.2,0.5-0.5
		c0-0.3-0.2-0.5-0.5-0.5c-0.3,0-0.5,0.2-0.5,0.5C6,24.9,6.2,25.1,6.5,25.1z"/>
	
		<linearGradient id="SVGID_00000002348260924183365240000013119413998943089067_" gradientUnits="userSpaceOnUse" x1="17.3631" y1="44.3347" x2="17.3631" y2="30.5822" gradientTransform="matrix(1 0 0 -1 -8.3622 60.8347)">
		<stop  offset="0.155" style="stop-color:#1F90FF;stop-opacity:0"/>
		<stop  offset="1" style="stop-color:#1F90FF"/>
	</linearGradient>
	<path style="fill:url(#SVGID_00000002348260924183365240000013119413998943089067_);" d="M9,25.1c0.3,0,0.5-0.2,0.5-0.5
		c0-0.3-0.2-0.5-0.5-0.5c-0.3,0-0.5,0.2-0.5,0.5C8.5,24.9,8.7,25.1,9,25.1z"/>
	
		<linearGradient id="SVGID_00000031175713751377565950000011021444729860389546_" gradientUnits="userSpaceOnUse" x1="19.8631" y1="44.3347" x2="19.8631" y2="30.5822" gradientTransform="matrix(1 0 0 -1 -8.3622 60.8347)">
		<stop  offset="0.155" style="stop-color:#1F90FF;stop-opacity:0"/>
		<stop  offset="1" style="stop-color:#1F90FF"/>
	</linearGradient>
	<path style="fill:url(#SVGID_00000031175713751377565950000011021444729860389546_);" d="M11.5,25.1c0.3,0,0.5-0.2,0.5-0.5
		c0-0.3-0.2-0.5-0.5-0.5c-0.3,0-0.5,0.2-0.5,0.5C11,24.9,11.2,25.1,11.5,25.1z"/>
	
		<linearGradient id="SVGID_00000065756750922077305140000008118214106125336971_" gradientUnits="userSpaceOnUse" x1="22.3631" y1="44.3347" x2="22.3631" y2="30.5822" gradientTransform="matrix(1 0 0 -1 -8.3622 60.8347)">
		<stop  offset="0.155" style="stop-color:#1F90FF;stop-opacity:0"/>
		<stop  offset="1" style="stop-color:#1F90FF"/>
	</linearGradient>
	<path style="fill:url(#SVGID_00000065756750922077305140000008118214106125336971_);" d="M14,25.2c0.3,0,0.6-0.2,0.6-0.6
		S14.3,24,14,24s-0.6,0.2-0.6,0.6S13.7,25.2,14,25.2z"/>
	
		<linearGradient id="SVGID_00000000218877832967965350000007471740533721421453_" gradientUnits="userSpaceOnUse" x1="24.8631" y1="44.3347" x2="24.8631" y2="30.5822" gradientTransform="matrix(1 0 0 -1 -8.3622 60.8347)">
		<stop  offset="0.155" style="stop-color:#1F90FF;stop-opacity:0"/>
		<stop  offset="1" style="stop-color:#1F90FF"/>
	</linearGradient>
	<path style="fill:url(#SVGID_00000000218877832967965350000007471740533721421453_);" d="M16.5,25.2c0.3,0,0.6-0.3,0.6-0.6
		c0-0.3-0.3-0.6-0.6-0.6c-0.3,0-0.6,0.3-0.6,0.6C15.9,24.9,16.2,25.2,16.5,25.2z"/>
	
		<linearGradient id="SVGID_00000112633473286455594050000010325042387882487189_" gradientUnits="userSpaceOnUse" x1="9.8631" y1="44.3347" x2="9.8631" y2="30.5822" gradientTransform="matrix(1 0 0 -1 -8.3622 60.8347)">
		<stop  offset="0.155" style="stop-color:#1F90FF;stop-opacity:0"/>
		<stop  offset="1" style="stop-color:#1F90FF"/>
	</linearGradient>
	<path style="fill:url(#SVGID_00000112633473286455594050000010325042387882487189_);" d="M1.5,27.6c0.3,0,0.5-0.2,0.5-0.5
		c0-0.3-0.2-0.5-0.5-0.5c-0.3,0-0.5,0.2-0.5,0.5C1,27.4,1.2,27.6,1.5,27.6z"/>
	
		<linearGradient id="SVGID_00000079455751980374962570000011710315594697619889_" gradientUnits="userSpaceOnUse" x1="12.3631" y1="44.3347" x2="12.3631" y2="30.5822" gradientTransform="matrix(1 0 0 -1 -8.3622 60.8347)">
		<stop  offset="0.155" style="stop-color:#1F90FF;stop-opacity:0"/>
		<stop  offset="1" style="stop-color:#1F90FF"/>
	</linearGradient>
	<path style="fill:url(#SVGID_00000079455751980374962570000011710315594697619889_);" d="M4,27.6c0.3,0,0.5-0.2,0.5-0.5
		c0-0.3-0.2-0.5-0.5-0.5c-0.3,0-0.5,0.2-0.5,0.5C3.5,27.4,3.7,27.6,4,27.6z"/>
	
		<linearGradient id="SVGID_00000036253749018581507380000010502105753151348375_" gradientUnits="userSpaceOnUse" x1="14.8631" y1="44.3347" x2="14.8631" y2="30.5822" gradientTransform="matrix(1 0 0 -1 -8.3622 60.8347)">
		<stop  offset="0.155" style="stop-color:#1F90FF;stop-opacity:0"/>
		<stop  offset="1" style="stop-color:#1F90FF"/>
	</linearGradient>
	<path style="fill:url(#SVGID_00000036253749018581507380000010502105753151348375_);" d="M6.5,27.6c0.3,0,0.5-0.2,0.5-0.5
		c0-0.3-0.2-0.5-0.5-0.5c-0.3,0-0.5,0.2-0.5,0.5C6,27.4,6.2,27.6,6.5,27.6z"/>
	
		<linearGradient id="SVGID_00000101814379897933666840000012437509614050755724_" gradientUnits="userSpaceOnUse" x1="17.3631" y1="44.3347" x2="17.3631" y2="30.5822" gradientTransform="matrix(1 0 0 -1 -8.3622 60.8347)">
		<stop  offset="0.155" style="stop-color:#1F90FF;stop-opacity:0"/>
		<stop  offset="1" style="stop-color:#1F90FF"/>
	</linearGradient>
	<path style="fill:url(#SVGID_00000101814379897933666840000012437509614050755724_);" d="M9,27.6c0.3,0,0.5-0.2,0.5-0.5
		c0-0.3-0.2-0.5-0.5-0.5c-0.3,0-0.5,0.2-0.5,0.5C8.5,27.4,8.7,27.6,9,27.6z"/>
	
		<linearGradient id="SVGID_00000042701989082967871650000008912073320928325021_" gradientUnits="userSpaceOnUse" x1="19.8631" y1="44.3347" x2="19.8631" y2="30.5822" gradientTransform="matrix(1 0 0 -1 -8.3622 60.8347)">
		<stop  offset="0.155" style="stop-color:#1F90FF;stop-opacity:0"/>
		<stop  offset="1" style="stop-color:#1F90FF"/>
	</linearGradient>
	<path style="fill:url(#SVGID_00000042701989082967871650000008912073320928325021_);" d="M11.5,27.6c0.3,0,0.5-0.2,0.5-0.5
		s-0.2-0.5-0.5-0.5S11,26.8,11,27.1S11.2,27.6,11.5,27.6z"/>
	
		<linearGradient id="SVGID_00000103265913970194263290000000000076871139974553_" gradientUnits="userSpaceOnUse" x1="22.3631" y1="44.3347" x2="22.3631" y2="30.5822" gradientTransform="matrix(1 0 0 -1 -8.3622 60.8347)">
		<stop  offset="0.155" style="stop-color:#1F90FF;stop-opacity:0"/>
		<stop  offset="1" style="stop-color:#1F90FF"/>
	</linearGradient>
	<path style="fill:url(#SVGID_00000103265913970194263290000000000076871139974553_);" d="M14,27.7c0.3,0,0.6-0.3,0.6-0.6
		c0-0.3-0.3-0.6-0.6-0.6c-0.3,0-0.6,0.3-0.6,0.6C13.4,27.4,13.7,27.7,14,27.7z"/>
	
		<linearGradient id="SVGID_00000004528480707634934550000018425895008399632546_" gradientUnits="userSpaceOnUse" x1="24.8632" y1="44.3347" x2="24.8632" y2="30.5822" gradientTransform="matrix(1 0 0 -1 -8.3622 60.8347)">
		<stop  offset="0.155" style="stop-color:#1F90FF;stop-opacity:0"/>
		<stop  offset="1" style="stop-color:#1F90FF"/>
	</linearGradient>
	<path style="fill:url(#SVGID_00000004528480707634934550000018425895008399632546_);" d="M16.5,27.7c0.3,0,0.6-0.3,0.6-0.6
		s-0.3-0.6-0.6-0.6s-0.6,0.3-0.6,0.6S16.2,27.7,16.5,27.7z"/>
	
		<linearGradient id="SVGID_00000156569028360121999570000003288711185566583957_" gradientUnits="userSpaceOnUse" x1="9.8631" y1="44.3347" x2="9.8631" y2="30.5822" gradientTransform="matrix(1 0 0 -1 -8.3622 60.8347)">
		<stop  offset="0.155" style="stop-color:#1F90FF;stop-opacity:0"/>
		<stop  offset="1" style="stop-color:#1F90FF"/>
	</linearGradient>
	<path style="fill:url(#SVGID_00000156569028360121999570000003288711185566583957_);" d="M1.5,29.6c0.3,0,0.5,0.3,0.5,0
		c0-0.3-0.2-0.5-0.5-0.5c-0.3,0-0.5,0.2-0.5,0.5C1,29.9,1.2,29.6,1.5,29.6z"/>
	
		<linearGradient id="SVGID_00000013191258227341093520000015798772795170985368_" gradientUnits="userSpaceOnUse" x1="12.3631" y1="44.3347" x2="12.3631" y2="30.5822" gradientTransform="matrix(1 0 0 -1 -8.3622 60.8347)">
		<stop  offset="0.155" style="stop-color:#1F90FF;stop-opacity:0"/>
		<stop  offset="1" style="stop-color:#1F90FF"/>
	</linearGradient>
	<path style="fill:url(#SVGID_00000013191258227341093520000015798772795170985368_);" d="M4,30.1c0.3,0,0.5-0.2,0.5-0.5
		c0-0.3-0.2-0.5-0.5-0.5c-0.3,0-0.5,0.2-0.5,0.5C3.5,29.9,3.7,30.1,4,30.1z"/>
	
		<linearGradient id="SVGID_00000058583325578493709440000000519261517167351708_" gradientUnits="userSpaceOnUse" x1="14.8631" y1="44.3347" x2="14.8631" y2="30.5822" gradientTransform="matrix(1 0 0 -1 -8.3622 60.8347)">
		<stop  offset="0.155" style="stop-color:#1F90FF;stop-opacity:0"/>
		<stop  offset="1" style="stop-color:#1F90FF"/>
	</linearGradient>
	<path style="fill:url(#SVGID_00000058583325578493709440000000519261517167351708_);" d="M6.5,30.1c0.3,0,0.5-0.2,0.5-0.5
		c0-0.3-0.2-0.5-0.5-0.5c-0.3,0-0.5,0.2-0.5,0.5C6,29.9,6.2,30.1,6.5,30.1z"/>
	
		<linearGradient id="SVGID_00000108295181895558591700000014184336010978779551_" gradientUnits="userSpaceOnUse" x1="17.3631" y1="44.3347" x2="17.3631" y2="30.5822" gradientTransform="matrix(1 0 0 -1 -8.3622 60.8347)">
		<stop  offset="0.155" style="stop-color:#1F90FF;stop-opacity:0"/>
		<stop  offset="1" style="stop-color:#1F90FF"/>
	</linearGradient>
	<path style="fill:url(#SVGID_00000108295181895558591700000014184336010978779551_);" d="M9,30.1c0.3,0,0.5-0.2,0.5-0.5
		S9.3,29.1,9,29.1c-0.3,0-0.5,0.2-0.5,0.5S8.7,30.1,9,30.1z"/>
	
		<linearGradient id="SVGID_00000139984610454079065270000017904141640465260174_" gradientUnits="userSpaceOnUse" x1="19.8631" y1="44.3347" x2="19.8631" y2="30.5822" gradientTransform="matrix(1 0 0 -1 -8.3622 60.8347)">
		<stop  offset="0.155" style="stop-color:#1F90FF;stop-opacity:0"/>
		<stop  offset="1" style="stop-color:#1F90FF"/>
	</linearGradient>
	<path style="fill:url(#SVGID_00000139984610454079065270000017904141640465260174_);" d="M11.5,30.2c0.3,0,0.6-0.3,0.6-0.6
		S11.8,29,11.5,29c-0.3,0-0.6,0.3-0.6,0.6S11.2,30.2,11.5,30.2z"/>
	
		<linearGradient id="SVGID_00000160148596488593543030000014211017080382749365_" gradientUnits="userSpaceOnUse" x1="22.3631" y1="44.3347" x2="22.3631" y2="30.5822" gradientTransform="matrix(1 0 0 -1 -8.3622 60.8347)">
		<stop  offset="0.155" style="stop-color:#1F90FF;stop-opacity:0"/>
		<stop  offset="1" style="stop-color:#1F90FF"/>
	</linearGradient>
	<path style="fill:url(#SVGID_00000160148596488593543030000014211017080382749365_);" d="M14,30.2c0.3,0,0.6-0.3,0.6-0.6
		c0-0.3-0.3-0.6-0.6-0.6c-0.3,0-0.6,0.3-0.6,0.6C13.4,29.9,13.7,30.2,14,30.2z"/>
	
		<linearGradient id="SVGID_00000067235579281512582650000009797519795505381792_" gradientUnits="userSpaceOnUse" x1="24.8632" y1="44.3347" x2="24.8632" y2="30.5822" gradientTransform="matrix(1 0 0 -1 -8.3622 60.8347)">
		<stop  offset="0.155" style="stop-color:#1F90FF;stop-opacity:0"/>
		<stop  offset="1" style="stop-color:#1F90FF"/>
	</linearGradient>
	<path style="fill:url(#SVGID_00000067235579281512582650000009797519795505381792_);" d="M16.5,30.3c0.4,0,0.7-0.3,0.7-0.7
		c0-0.4-0.3-0.7-0.7-0.7c-0.4,0-0.7,0.3-0.7,0.7C15.8,30,16.1,30.3,16.5,30.3z"/>
	<path class="st41" d="M22.5,7.5c0,3.6-2.9,6.5-6.5,6.5c-3.6,0-6.5-2.9-6.5-6.5C9.5,3.9,12.4,1,16,1C19.6,1,22.5,3.9,22.5,7.5z"/>
	<path class="st41" d="M30.2,23.6l0.1,0.2l0.2,0l4.9,1.1c0.1,0,0.1,0.1,0.1,0.1c0,0.1,0,0.2,0,0.2l-3.3,3.9L32,29.4l0,0.2l0.5,5.2
		c0,0.1,0,0.2-0.1,0.2c-0.1,0-0.1,0-0.2,0l-4.6-2.1l-0.2-0.1l-0.2,0.1L22.7,35c-0.1,0-0.1,0-0.2,0c-0.1,0-0.1-0.1-0.1-0.2l0.5-5.2
		l0-0.2l-0.1-0.2l-3.3-3.9c-0.1-0.1-0.1-0.1,0-0.2c0-0.1,0.1-0.1,0.1-0.1l4.9-1.1l0.2,0l0.1-0.2l2.5-4.5c0-0.1,0.1-0.1,0.2-0.1
		c0.1,0,0.1,0,0.2,0.1L30.2,23.6z"/>
	<path class="st41" d="M9.9,16.2c0.1-0.1,0.3,0,0.5,0.1c1.6,1.2,3.5,1.9,5.6,1.9c2.1,0,4-0.7,5.6-1.9c0.2-0.1,0.4-0.2,0.5-0.1
		c0.9,0.4,1.8,0.8,2.7,1.4c0,0,0,0,0,0c0,0,0,0,0,0c0,0,0,0,0,0L22.9,21c-0.1,0.1-0.2,0.2-0.3,0.2L19,22c-2.5,0.6-3.2,3.5-1.7,5.2
		l2.5,2.9c0.1,0.1,0.1,0.2,0.1,0.4l-0.1,0.8c-6.4,0.5-12.9-0.3-19.1-2.2c-0.1,0-0.1-0.1-0.1-0.2C0.7,23.3,4.5,18.3,9.9,16.2z"/>
</g>
</svg>
