<?xml version="1.0" encoding="utf-8"?>
<!-- Generator: Adobe Illustrator 26.3.1, SVG Export Plug-In . SVG Version: 6.00 Build 0)  -->
<svg version="1.1" id="eUtfKsV2qQa1" text-rendering="geometricPrecision" shape-rendering="geometricPrecision"
	 xmlns="http://www.w3.org/2000/svg" xmlns:xlink="http://www.w3.org/1999/xlink" x="0px" y="0px" viewBox="0 0 36 36"
	 style="enable-background:new 0 0 36 36;" xml:space="preserve">
<style type="text/css">
	.st0{fill:url(#SVGID_1_);}
	.st1{fill:url(#SVGID_00000103957032691059659930000014169082408477470621_);}
	.st2{fill:url(#SVGID_00000088110202349006869450000016860269610110518463_);}
	.st3{fill:url(#SVGID_00000146461356014300656490000000153769656941802372_);}
	.st4{fill:url(#SVGID_00000048485162971608366840000006374507725937065355_);}
	.st5{fill:url(#SVGID_00000030460193455478436480000012449700840855231370_);}
	.st6{fill:url(#SVGID_00000181086445525158853160000017980376795577435312_);}
	.st7{fill:url(#SVGID_00000029025773341075907120000005915966444623418556_);}
	.st8{fill:url(#SVGID_00000124142225821870998570000002247131483997813407_);}
	.st9{fill:url(#SVGID_00000012458233151810658500000004024031909986421913_);}
	.st10{fill:url(#SVGID_00000063599434992269747530000002500171549467721365_);}
	.st11{fill:url(#SVGID_00000079484634146838181370000014430140777469240453_);}
	.st12{fill:url(#SVGID_00000150085469521375670970000006031468247225925260_);}
	.st13{fill:url(#SVGID_00000013885217241696191310000016907345493500435344_);}
	.st14{fill:url(#SVGID_00000061433385415377394990000016233018038195668647_);}
	.st15{fill:url(#SVGID_00000036243753462648954550000014598648835020745627_);}
	.st16{fill:url(#SVGID_00000008855455129210917790000001063996869007553419_);}
	.st17{fill:url(#SVGID_00000101070307116234919030000003184366681757703095_);}
	.st18{fill:url(#SVGID_00000062164089622928087850000016632743637482576541_);}
	.st19{fill:url(#SVGID_00000083794176160580659630000003238718731804727722_);}
	.st20{fill:url(#SVGID_00000147914227023748665850000005252835624996295051_);}
	.st21{fill:url(#SVGID_00000112592563606771399390000002480086530613872307_);}
	.st22{fill:url(#SVGID_00000139987248076838342250000013105299377217101998_);}
	.st23{fill:url(#SVGID_00000063591717256538594670000012920242380216303538_);}
	.st24{fill:url(#SVGID_00000145754047765252939920000002159790427880217766_);}
	.st25{fill:url(#SVGID_00000168813318615674291190000003447373149735452555_);}
	.st26{fill:url(#SVGID_00000052821606727172439790000006305796545986360715_);}
	.st27{fill:url(#SVGID_00000134970755863409018460000017113582167667913905_);}
	.st28{fill:url(#SVGID_00000057121648409685429000000013666374029893932717_);}
	.st29{fill:url(#SVGID_00000032615429587508877550000010683287910493822892_);}
	.st30{fill:url(#SVGID_00000165208072681012077620000011569446299116191162_);}
	.st31{fill:url(#SVGID_00000055671780359561838940000009203301260868517809_);}
	.st32{fill:url(#SVGID_00000161591682410371040130000009191612850327621558_);}
	.st33{fill:url(#SVGID_00000082327379184851043320000004637479774293578919_);}
	.st34{fill:url(#SVGID_00000125564093561219313480000016614094066156241327_);}
	.st35{fill:url(#SVGID_00000183223596286228811280000001061482667366534803_);}
	.st36{fill:url(#SVGID_00000146500803422570433370000006837664782061283477_);}
	.st37{fill:url(#SVGID_00000072984636114028686620000010337697126228928436_);}
	.st38{fill:url(#SVGID_00000105389613976862906220000003749532765671746482_);}
	.st39{fill:url(#SVGID_00000123405144991932964130000014320138917598495634_);}
	.st40{fill:url(#SVGID_00000047780091546929703660000011385125394860447415_);}
	.st41{fill:url(#SVGID_00000027562494348020566870000002722098846551982728_);}
	.st42{fill:url(#SVGID_00000174570089120403866650000005062547238062363829_);}
	.st43{fill:url(#SVGID_00000007389384157704800330000002166210420628868261_);}
	.st44{fill:url(#SVGID_00000079486541420034724100000000920521766819688839_);}
	.st45{fill:url(#SVGID_00000157271730957809984840000014824398003363365766_);}
	.st46{fill:url(#SVGID_00000163763775463049704270000011616632672772947130_);}
	.st47{fill:url(#SVGID_00000149373658935506227470000009362986346566966196_);}
	.st48{fill:url(#SVGID_00000068660337420260826360000003352665517828405660_);}
	.st49{fill:url(#SVGID_00000016783477256941642390000000556252518470143676_);}
	.st50{fill:url(#SVGID_00000070797016209106490140000007506947398418738098_);}
	.st51{fill:url(#SVGID_00000023972023267298848070000007128848266436718758_);}
	.st52{fill:url(#SVGID_00000031914520707657856650000017131736609501926323_);}
	.st53{fill:none;stroke:#1F90FF;}
</style>
<g>
	
		<linearGradient id="SVGID_1_" gradientUnits="userSpaceOnUse" x1="27.5793" y1="58.0065" x2="27.5793" y2="40.0065" gradientTransform="matrix(1 0 0 -1 -8.3622 60.8347)">
		<stop  offset="0" style="stop-color:#1F90FF;stop-opacity:0"/>
		<stop  offset="1" style="stop-color:#1F90FF"/>
	</linearGradient>
	<path class="st0" d="M19.2,3.7c0.2,0,0.4-0.2,0.4-0.4c0-0.2-0.2-0.4-0.4-0.4S18.8,3,18.8,3.3C18.8,3.5,19,3.7,19.2,3.7z"/>
	
		<linearGradient id="SVGID_00000034078291762847972710000005173285591673309072_" gradientUnits="userSpaceOnUse" x1="25.394" y1="58.0065" x2="25.394" y2="40.0065" gradientTransform="matrix(1 0 0 -1 -8.3622 60.8347)">
		<stop  offset="0" style="stop-color:#1F90FF;stop-opacity:0"/>
		<stop  offset="1" style="stop-color:#1F90FF"/>
	</linearGradient>
	<path style="fill:url(#SVGID_00000034078291762847972710000005173285591673309072_);" d="M17,5.8c0.2,0,0.4-0.2,0.4-0.4
		C17.5,5.2,17.3,5,17,5c-0.2,0-0.4,0.2-0.4,0.4C16.6,5.6,16.8,5.8,17,5.8z"/>
	
		<linearGradient id="SVGID_00000106119355434548812830000005596198524473066899_" gradientUnits="userSpaceOnUse" x1="27.5793" y1="58.0065" x2="27.5793" y2="40.0065" gradientTransform="matrix(1 0 0 -1 -8.3622 60.8347)">
		<stop  offset="0" style="stop-color:#1F90FF;stop-opacity:0"/>
		<stop  offset="1" style="stop-color:#1F90FF"/>
	</linearGradient>
	<path style="fill:url(#SVGID_00000106119355434548812830000005596198524473066899_);" d="M19.2,5.9c0.3,0,0.5-0.2,0.5-0.5
		c0-0.3-0.2-0.5-0.5-0.5c-0.3,0-0.5,0.2-0.5,0.5C18.7,5.7,18.9,5.9,19.2,5.9z"/>
	
		<linearGradient id="SVGID_00000031202897785935249110000005895819587132530095_" gradientUnits="userSpaceOnUse" x1="23.2086" y1="58.0065" x2="23.2086" y2="40.0065" gradientTransform="matrix(1 0 0 -1 -8.3622 60.8347)">
		<stop  offset="0" style="stop-color:#1F90FF;stop-opacity:0"/>
		<stop  offset="1" style="stop-color:#1F90FF"/>
	</linearGradient>
	<path style="fill:url(#SVGID_00000031202897785935249110000005895819587132530095_);" d="M14.8,8c0.2,0,0.4-0.2,0.4-0.4
		s-0.2-0.4-0.4-0.4c-0.2,0-0.4,0.2-0.4,0.4S14.6,8,14.8,8z"/>
	
		<linearGradient id="SVGID_00000174572156703171324120000017821799992386406071_" gradientUnits="userSpaceOnUse" x1="25.3939" y1="58.0065" x2="25.3939" y2="40.0065" gradientTransform="matrix(1 0 0 -1 -8.3622 60.8347)">
		<stop  offset="0" style="stop-color:#1F90FF;stop-opacity:0"/>
		<stop  offset="1" style="stop-color:#1F90FF"/>
	</linearGradient>
	<path style="fill:url(#SVGID_00000174572156703171324120000017821799992386406071_);" d="M17,8c0.3,0,0.5-0.2,0.5-0.5
		C17.6,7.2,17.3,7,17,7c-0.3,0-0.5,0.2-0.5,0.5C16.5,7.8,16.7,8,17,8z"/>
	
		<linearGradient id="SVGID_00000035515005141328481700000005024521013653316533_" gradientUnits="userSpaceOnUse" x1="27.5793" y1="58.0065" x2="27.5793" y2="40.0065" gradientTransform="matrix(1 0 0 -1 -8.3622 60.8347)">
		<stop  offset="0" style="stop-color:#1F90FF;stop-opacity:0"/>
		<stop  offset="1" style="stop-color:#1F90FF"/>
	</linearGradient>
	<path style="fill:url(#SVGID_00000035515005141328481700000005024521013653316533_);" d="M19.2,8c0.3,0,0.5-0.2,0.5-0.5
		c0-0.3-0.2-0.5-0.5-0.5c-0.3,0-0.5,0.2-0.5,0.5C18.7,7.8,18.9,8,19.2,8z"/>
	
		<linearGradient id="SVGID_00000052807605547604613780000003557597627608160681_" gradientUnits="userSpaceOnUse" x1="29.7646" y1="58.0065" x2="29.7646" y2="40.0065" gradientTransform="matrix(1 0 0 -1 -8.3622 60.8347)">
		<stop  offset="0" style="stop-color:#1F90FF;stop-opacity:0"/>
		<stop  offset="1" style="stop-color:#1F90FF"/>
	</linearGradient>
	<path style="fill:url(#SVGID_00000052807605547604613780000003557597627608160681_);" d="M21.4,8c0.3,0,0.5-0.2,0.5-0.5
		c0-0.3-0.2-0.5-0.5-0.5c-0.3,0-0.5,0.2-0.5,0.5C20.9,7.8,21.1,8,21.4,8z"/>
	
		<linearGradient id="SVGID_00000042701057865987463250000004000118358554164894_" gradientUnits="userSpaceOnUse" x1="23.2086" y1="58.0065" x2="23.2086" y2="40.0065" gradientTransform="matrix(1 0 0 -1 -8.3622 60.8347)">
		<stop  offset="0" style="stop-color:#1F90FF;stop-opacity:0"/>
		<stop  offset="1" style="stop-color:#1F90FF"/>
	</linearGradient>
	<path style="fill:url(#SVGID_00000042701057865987463250000004000118358554164894_);" d="M14.8,10.2c0.3,0,0.5-0.2,0.5-0.5
		c0-0.3-0.2-0.5-0.5-0.5c-0.3,0-0.5,0.2-0.5,0.5C14.3,9.9,14.6,10.2,14.8,10.2z"/>
	
		<linearGradient id="SVGID_00000021817704436996461310000002539653110591191196_" gradientUnits="userSpaceOnUse" x1="25.3939" y1="58.0065" x2="25.3939" y2="40.0065" gradientTransform="matrix(1 0 0 -1 -8.3622 60.8347)">
		<stop  offset="0" style="stop-color:#1F90FF;stop-opacity:0"/>
		<stop  offset="1" style="stop-color:#1F90FF"/>
	</linearGradient>
	<path style="fill:url(#SVGID_00000021817704436996461310000002539653110591191196_);" d="M17,10.2c0.3,0,0.5-0.2,0.5-0.5
		c0-0.3-0.2-0.5-0.5-0.5c-0.3,0-0.5,0.2-0.5,0.5C16.5,9.9,16.7,10.2,17,10.2z"/>
	
		<linearGradient id="SVGID_00000104673077951240643790000004506297905962808960_" gradientUnits="userSpaceOnUse" x1="27.5793" y1="58.0065" x2="27.5793" y2="40.0065" gradientTransform="matrix(1 0 0 -1 -8.3622 60.8347)">
		<stop  offset="0" style="stop-color:#1F90FF;stop-opacity:0"/>
		<stop  offset="1" style="stop-color:#1F90FF"/>
	</linearGradient>
	<path style="fill:url(#SVGID_00000104673077951240643790000004506297905962808960_);" d="M19.2,10.2c0.3,0,0.5-0.2,0.5-0.5
		c0-0.3-0.2-0.5-0.5-0.5c-0.3,0-0.5,0.2-0.5,0.5C18.7,9.9,18.9,10.2,19.2,10.2z"/>
	
		<linearGradient id="SVGID_00000157302182188669583300000012977235732129850498_" gradientUnits="userSpaceOnUse" x1="29.7646" y1="58.0065" x2="29.7646" y2="40.0065" gradientTransform="matrix(1 0 0 -1 -8.3622 60.8347)">
		<stop  offset="0" style="stop-color:#1F90FF;stop-opacity:0"/>
		<stop  offset="1" style="stop-color:#1F90FF"/>
	</linearGradient>
	<path style="fill:url(#SVGID_00000157302182188669583300000012977235732129850498_);" d="M21.4,10.2c0.3,0,0.5-0.2,0.5-0.5
		c0-0.3-0.2-0.5-0.5-0.5c-0.3,0-0.5,0.2-0.5,0.5C20.9,9.9,21.1,10.2,21.4,10.2z"/>
	
		<linearGradient id="SVGID_00000177458384709265894660000002672758016412714401_" gradientUnits="userSpaceOnUse" x1="14.4673" y1="58.0063" x2="14.4673" y2="40.0063" gradientTransform="matrix(1 0 0 -1 -8.3622 60.8347)">
		<stop  offset="0" style="stop-color:#1F90FF;stop-opacity:0"/>
		<stop  offset="1" style="stop-color:#1F90FF"/>
	</linearGradient>
	<path style="fill:url(#SVGID_00000177458384709265894660000002672758016412714401_);" d="M6.1,12.2c0.2,0,0.4-0.2,0.4-0.4
		c0-0.2-0.2-0.4-0.4-0.4c-0.2,0-0.4,0.2-0.4,0.4C5.7,12,5.9,12.2,6.1,12.2z"/>
	
		<linearGradient id="SVGID_00000005987990941844346300000006504758743832451510_" gradientUnits="userSpaceOnUse" x1="16.6526" y1="58.0065" x2="16.6526" y2="40.0065" gradientTransform="matrix(1 0 0 -1 -8.3622 60.8347)">
		<stop  offset="0" style="stop-color:#1F90FF;stop-opacity:0"/>
		<stop  offset="1" style="stop-color:#1F90FF"/>
	</linearGradient>
	<path style="fill:url(#SVGID_00000005987990941844346300000006504758743832451510_);" d="M8.3,12.3c0.3,0,0.5-0.2,0.5-0.5
		s-0.2-0.5-0.5-0.5c-0.3,0-0.5,0.2-0.5,0.5S8,12.3,8.3,12.3z"/>
	
		<linearGradient id="SVGID_00000124119316938467904790000009511063773914599323_" gradientUnits="userSpaceOnUse" x1="18.8379" y1="58.0065" x2="18.8379" y2="40.0065" gradientTransform="matrix(1 0 0 -1 -8.3622 60.8347)">
		<stop  offset="0" style="stop-color:#1F90FF;stop-opacity:0"/>
		<stop  offset="1" style="stop-color:#1F90FF"/>
	</linearGradient>
	<path style="fill:url(#SVGID_00000124119316938467904790000009511063773914599323_);" d="M10.5,12.3c0.3,0,0.5-0.2,0.5-0.5
		s-0.2-0.5-0.5-0.5c-0.3,0-0.5,0.2-0.5,0.5S10.2,12.3,10.5,12.3z"/>
	
		<linearGradient id="SVGID_00000003787514496580722310000015691594926445623943_" gradientUnits="userSpaceOnUse" x1="21.0233" y1="58.0065" x2="21.0233" y2="40.0065" gradientTransform="matrix(1 0 0 -1 -8.3622 60.8347)">
		<stop  offset="0" style="stop-color:#1F90FF;stop-opacity:0"/>
		<stop  offset="1" style="stop-color:#1F90FF"/>
	</linearGradient>
	<path style="fill:url(#SVGID_00000003787514496580722310000015691594926445623943_);" d="M12.7,12.3c0.3,0,0.5-0.2,0.5-0.5
		s-0.2-0.5-0.5-0.5c-0.3,0-0.5,0.2-0.5,0.5S12.4,12.3,12.7,12.3z"/>
	
		<linearGradient id="SVGID_00000018233821892969619140000011142628265219667856_" gradientUnits="userSpaceOnUse" x1="23.2086" y1="58.0065" x2="23.2086" y2="40.0065" gradientTransform="matrix(1 0 0 -1 -8.3622 60.8347)">
		<stop  offset="0" style="stop-color:#1F90FF;stop-opacity:0"/>
		<stop  offset="1" style="stop-color:#1F90FF"/>
	</linearGradient>
	<path style="fill:url(#SVGID_00000018233821892969619140000011142628265219667856_);" d="M14.8,12.3c0.3,0,0.5-0.2,0.5-0.5
		s-0.2-0.5-0.5-0.5c-0.3,0-0.5,0.2-0.5,0.5S14.6,12.3,14.8,12.3z"/>
	
		<linearGradient id="SVGID_00000029024814899832776340000007825992923945698434_" gradientUnits="userSpaceOnUse" x1="25.3939" y1="58.0065" x2="25.3939" y2="40.0065" gradientTransform="matrix(1 0 0 -1 -8.3622 60.8347)">
		<stop  offset="0" style="stop-color:#1F90FF;stop-opacity:0"/>
		<stop  offset="1" style="stop-color:#1F90FF"/>
	</linearGradient>
	<path style="fill:url(#SVGID_00000029024814899832776340000007825992923945698434_);" d="M17,12.3c0.3,0,0.5-0.2,0.5-0.5
		s-0.2-0.5-0.5-0.5c-0.3,0-0.5,0.2-0.5,0.5S16.7,12.3,17,12.3z"/>
	
		<linearGradient id="SVGID_00000110433424760440882450000003033407473616732825_" gradientUnits="userSpaceOnUse" x1="27.5793" y1="58.0065" x2="27.5793" y2="40.0065" gradientTransform="matrix(1 0 0 -1 -8.3622 60.8347)">
		<stop  offset="0" style="stop-color:#1F90FF;stop-opacity:0"/>
		<stop  offset="1" style="stop-color:#1F90FF"/>
	</linearGradient>
	<path style="fill:url(#SVGID_00000110433424760440882450000003033407473616732825_);" d="M19.2,12.3c0.3,0,0.5-0.2,0.5-0.5
		s-0.2-0.5-0.5-0.5c-0.3,0-0.5,0.2-0.5,0.5S18.9,12.3,19.2,12.3z"/>
	
		<linearGradient id="SVGID_00000142897202128521213930000002012841618873474492_" gradientUnits="userSpaceOnUse" x1="29.7646" y1="58.0065" x2="29.7646" y2="40.0065" gradientTransform="matrix(1 0 0 -1 -8.3622 60.8347)">
		<stop  offset="0" style="stop-color:#1F90FF;stop-opacity:0"/>
		<stop  offset="1" style="stop-color:#1F90FF"/>
	</linearGradient>
	<path style="fill:url(#SVGID_00000142897202128521213930000002012841618873474492_);" d="M21.4,12.3c0.3,0,0.5-0.2,0.5-0.5
		s-0.2-0.5-0.5-0.5c-0.3,0-0.5,0.2-0.5,0.5S21.1,12.3,21.4,12.3z"/>
	
		<linearGradient id="SVGID_00000083775996780140051650000001655836524044042668_" gradientUnits="userSpaceOnUse" x1="31.95" y1="58.0065" x2="31.95" y2="40.0065" gradientTransform="matrix(1 0 0 -1 -8.3622 60.8347)">
		<stop  offset="0" style="stop-color:#1F90FF;stop-opacity:0"/>
		<stop  offset="1" style="stop-color:#1F90FF"/>
	</linearGradient>
	<path style="fill:url(#SVGID_00000083775996780140051650000001655836524044042668_);" d="M23.6,12.3c0.3,0,0.5-0.2,0.5-0.5
		s-0.2-0.5-0.5-0.5c-0.3,0-0.5,0.2-0.5,0.5S23.3,12.3,23.6,12.3z"/>
	
		<linearGradient id="SVGID_00000088819781809061097030000017879973676395853502_" gradientUnits="userSpaceOnUse" x1="34.1353" y1="58.0065" x2="34.1353" y2="40.0065" gradientTransform="matrix(1 0 0 -1 -8.3622 60.8347)">
		<stop  offset="0" style="stop-color:#1F90FF;stop-opacity:0"/>
		<stop  offset="1" style="stop-color:#1F90FF"/>
	</linearGradient>
	<path style="fill:url(#SVGID_00000088819781809061097030000017879973676395853502_);" d="M25.8,12.3c0.3,0,0.5-0.2,0.5-0.5
		s-0.2-0.5-0.5-0.5s-0.5,0.2-0.5,0.5S25.5,12.3,25.8,12.3z"/>
	
		<linearGradient id="SVGID_00000105417520241531648520000013367615166017550739_" gradientUnits="userSpaceOnUse" x1="36.3206" y1="58.0065" x2="36.3206" y2="40.0065" gradientTransform="matrix(1 0 0 -1 -8.3622 60.8347)">
		<stop  offset="0" style="stop-color:#1F90FF;stop-opacity:0"/>
		<stop  offset="1" style="stop-color:#1F90FF"/>
	</linearGradient>
	<path style="fill:url(#SVGID_00000105417520241531648520000013367615166017550739_);" d="M28,12.3c0.3,0,0.5-0.2,0.5-0.5
		s-0.2-0.5-0.5-0.5c-0.3,0-0.5,0.2-0.5,0.5S27.7,12.3,28,12.3z"/>
	
		<linearGradient id="SVGID_00000129897064077179667230000001858563305230014393_" gradientUnits="userSpaceOnUse" x1="38.506" y1="58.0063" x2="38.506" y2="40.0063" gradientTransform="matrix(1 0 0 -1 -8.3622 60.8347)">
		<stop  offset="0" style="stop-color:#1F90FF;stop-opacity:0"/>
		<stop  offset="1" style="stop-color:#1F90FF"/>
	</linearGradient>
	<path style="fill:url(#SVGID_00000129897064077179667230000001858563305230014393_);" d="M30.1,12.2c0.2,0,0.4-0.2,0.4-0.4
		c0-0.2-0.2-0.4-0.4-0.4c-0.2,0-0.4,0.2-0.4,0.4C29.7,12,29.9,12.2,30.1,12.2z"/>
	
		<linearGradient id="SVGID_00000021799691501897491750000000969888839350858382_" gradientUnits="userSpaceOnUse" x1="14.4673" y1="58.0065" x2="14.4673" y2="40.0065" gradientTransform="matrix(1 0 0 -1 -8.3622 60.8347)">
		<stop  offset="0" style="stop-color:#1F90FF;stop-opacity:0"/>
		<stop  offset="1" style="stop-color:#1F90FF"/>
	</linearGradient>
	<path style="fill:url(#SVGID_00000021799691501897491750000000969888839350858382_);" d="M6.1,14.4c0.2,0,0.4-0.2,0.4-0.4
		c0-0.2-0.2-0.4-0.4-0.4c-0.2,0-0.4,0.2-0.4,0.4C5.7,14.2,5.9,14.4,6.1,14.4z"/>
	
		<linearGradient id="SVGID_00000012463402027292590290000010713716571111715480_" gradientUnits="userSpaceOnUse" x1="16.6526" y1="58.0065" x2="16.6526" y2="40.0065" gradientTransform="matrix(1 0 0 -1 -8.3622 60.8347)">
		<stop  offset="0" style="stop-color:#1F90FF;stop-opacity:0"/>
		<stop  offset="1" style="stop-color:#1F90FF"/>
	</linearGradient>
	<path style="fill:url(#SVGID_00000012463402027292590290000010713716571111715480_);" d="M8.3,14.4c0.3,0,0.5-0.2,0.5-0.5
		c0-0.3-0.2-0.5-0.5-0.5c-0.3,0-0.5,0.2-0.5,0.5C7.8,14.2,8,14.4,8.3,14.4z"/>
	
		<linearGradient id="SVGID_00000069358341388788018930000001298125460848202175_" gradientUnits="userSpaceOnUse" x1="18.8379" y1="58.0065" x2="18.8379" y2="40.0065" gradientTransform="matrix(1 0 0 -1 -8.3622 60.8347)">
		<stop  offset="0" style="stop-color:#1F90FF;stop-opacity:0"/>
		<stop  offset="1" style="stop-color:#1F90FF"/>
	</linearGradient>
	<path style="fill:url(#SVGID_00000069358341388788018930000001298125460848202175_);" d="M10.5,14.4c0.3,0,0.5-0.2,0.5-0.5
		c0-0.3-0.2-0.5-0.5-0.5c-0.3,0-0.5,0.2-0.5,0.5C10,14.2,10.2,14.4,10.5,14.4z"/>
	
		<linearGradient id="SVGID_00000150797772867628883610000013874989142075882628_" gradientUnits="userSpaceOnUse" x1="21.0233" y1="58.0065" x2="21.0233" y2="40.0065" gradientTransform="matrix(1 0 0 -1 -8.3622 60.8347)">
		<stop  offset="0" style="stop-color:#1F90FF;stop-opacity:0"/>
		<stop  offset="1" style="stop-color:#1F90FF"/>
	</linearGradient>
	<path style="fill:url(#SVGID_00000150797772867628883610000013874989142075882628_);" d="M12.7,14.4c0.3,0,0.5-0.2,0.5-0.5
		c0-0.3-0.2-0.5-0.5-0.5c-0.3,0-0.5,0.2-0.5,0.5C12.1,14.2,12.4,14.4,12.7,14.4z"/>
	
		<linearGradient id="SVGID_00000170267357191444894490000001493183523674734783_" gradientUnits="userSpaceOnUse" x1="23.2086" y1="58.0065" x2="23.2086" y2="40.0065" gradientTransform="matrix(1 0 0 -1 -8.3622 60.8347)">
		<stop  offset="0" style="stop-color:#1F90FF;stop-opacity:0"/>
		<stop  offset="1" style="stop-color:#1F90FF"/>
	</linearGradient>
	<path style="fill:url(#SVGID_00000170267357191444894490000001493183523674734783_);" d="M14.8,14.4c0.3,0,0.5-0.2,0.5-0.5
		c0-0.3-0.2-0.5-0.5-0.5c-0.3,0-0.5,0.2-0.5,0.5C14.3,14.2,14.6,14.4,14.8,14.4z"/>
	
		<linearGradient id="SVGID_00000174576205570818110680000012937637865841098632_" gradientUnits="userSpaceOnUse" x1="25.3939" y1="58.0065" x2="25.3939" y2="40.0065" gradientTransform="matrix(1 0 0 -1 -8.3622 60.8347)">
		<stop  offset="0" style="stop-color:#1F90FF;stop-opacity:0"/>
		<stop  offset="1" style="stop-color:#1F90FF"/>
	</linearGradient>
	<path style="fill:url(#SVGID_00000174576205570818110680000012937637865841098632_);" d="M17,14.4c0.3,0,0.5-0.2,0.5-0.5
		c0-0.3-0.2-0.5-0.5-0.5c-0.3,0-0.5,0.2-0.5,0.5C16.5,14.2,16.7,14.4,17,14.4z"/>
	
		<linearGradient id="SVGID_00000001649746260489568520000004006118313314810530_" gradientUnits="userSpaceOnUse" x1="27.5793" y1="58.0065" x2="27.5793" y2="40.0065" gradientTransform="matrix(1 0 0 -1 -8.3622 60.8347)">
		<stop  offset="0" style="stop-color:#1F90FF;stop-opacity:0"/>
		<stop  offset="1" style="stop-color:#1F90FF"/>
	</linearGradient>
	<path style="fill:url(#SVGID_00000001649746260489568520000004006118313314810530_);" d="M19.2,14.4c0.3,0,0.5-0.2,0.5-0.5
		c0-0.3-0.2-0.5-0.5-0.5c-0.3,0-0.5,0.2-0.5,0.5C18.7,14.2,18.9,14.4,19.2,14.4z"/>
	
		<linearGradient id="SVGID_00000115500696761585512500000001954977410990928310_" gradientUnits="userSpaceOnUse" x1="29.7646" y1="58.0065" x2="29.7646" y2="40.0065" gradientTransform="matrix(1 0 0 -1 -8.3622 60.8347)">
		<stop  offset="0" style="stop-color:#1F90FF;stop-opacity:0"/>
		<stop  offset="1" style="stop-color:#1F90FF"/>
	</linearGradient>
	<path style="fill:url(#SVGID_00000115500696761585512500000001954977410990928310_);" d="M21.4,14.4c0.3,0,0.5-0.2,0.5-0.5
		c0-0.3-0.2-0.5-0.5-0.5c-0.3,0-0.5,0.2-0.5,0.5C20.9,14.2,21.1,14.4,21.4,14.4z"/>
	
		<linearGradient id="SVGID_00000162320507290253565080000007864502889233456524_" gradientUnits="userSpaceOnUse" x1="31.95" y1="58.0065" x2="31.95" y2="40.0065" gradientTransform="matrix(1 0 0 -1 -8.3622 60.8347)">
		<stop  offset="0" style="stop-color:#1F90FF;stop-opacity:0"/>
		<stop  offset="1" style="stop-color:#1F90FF"/>
	</linearGradient>
	<path style="fill:url(#SVGID_00000162320507290253565080000007864502889233456524_);" d="M23.6,14.4c0.3,0,0.5-0.2,0.5-0.5
		c0-0.3-0.2-0.5-0.5-0.5c-0.3,0-0.5,0.2-0.5,0.5C23.1,14.2,23.3,14.4,23.6,14.4z"/>
	
		<linearGradient id="SVGID_00000150085009352416324860000009325430631117692048_" gradientUnits="userSpaceOnUse" x1="34.1353" y1="58.0065" x2="34.1353" y2="40.0065" gradientTransform="matrix(1 0 0 -1 -8.3622 60.8347)">
		<stop  offset="0" style="stop-color:#1F90FF;stop-opacity:0"/>
		<stop  offset="1" style="stop-color:#1F90FF"/>
	</linearGradient>
	<path style="fill:url(#SVGID_00000150085009352416324860000009325430631117692048_);" d="M25.8,14.4c0.3,0,0.5-0.2,0.5-0.5
		c0-0.3-0.2-0.5-0.5-0.5s-0.5,0.2-0.5,0.5C25.2,14.2,25.5,14.4,25.8,14.4z"/>
	
		<linearGradient id="SVGID_00000067958249312335868530000004418277161317804960_" gradientUnits="userSpaceOnUse" x1="36.3206" y1="58.0065" x2="36.3206" y2="40.0065" gradientTransform="matrix(1 0 0 -1 -8.3622 60.8347)">
		<stop  offset="0" style="stop-color:#1F90FF;stop-opacity:0"/>
		<stop  offset="1" style="stop-color:#1F90FF"/>
	</linearGradient>
	<path style="fill:url(#SVGID_00000067958249312335868530000004418277161317804960_);" d="M28,14.4c0.3,0,0.5-0.2,0.5-0.5
		c0-0.3-0.2-0.5-0.5-0.5c-0.3,0-0.5,0.2-0.5,0.5C27.4,14.2,27.7,14.4,28,14.4z"/>
	
		<linearGradient id="SVGID_00000021842420804147679870000009089655835640840604_" gradientUnits="userSpaceOnUse" x1="38.506" y1="58.0065" x2="38.506" y2="40.0065" gradientTransform="matrix(1 0 0 -1 -8.3622 60.8347)">
		<stop  offset="0" style="stop-color:#1F90FF;stop-opacity:0"/>
		<stop  offset="1" style="stop-color:#1F90FF"/>
	</linearGradient>
	<path style="fill:url(#SVGID_00000021842420804147679870000009089655835640840604_);" d="M30.1,14.4c0.3,0,0.5-0.2,0.5-0.5
		c0-0.3-0.2-0.5-0.5-0.5c-0.3,0-0.5,0.2-0.5,0.5C29.6,14.2,29.9,14.4,30.1,14.4z"/>
	
		<linearGradient id="SVGID_00000140005453929920000690000006335375579776352955_" gradientUnits="userSpaceOnUse" x1="18.838" y1="58.0062" x2="18.838" y2="40.0062" gradientTransform="matrix(1 0 0 -1 -8.3622 60.8347)">
		<stop  offset="0" style="stop-color:#1F90FF;stop-opacity:0"/>
		<stop  offset="1" style="stop-color:#1F90FF"/>
	</linearGradient>
	<path style="fill:url(#SVGID_00000140005453929920000690000006335375579776352955_);" d="M10.5,16.5c0.2,0,0.4-0.2,0.4-0.4
		c0-0.2-0.2-0.4-0.4-0.4c-0.2,0-0.4,0.2-0.4,0.4C10,16.3,10.2,16.5,10.5,16.5z"/>
	
		<linearGradient id="SVGID_00000015319801582781621310000014515264851206763432_" gradientUnits="userSpaceOnUse" x1="21.0233" y1="58.0065" x2="21.0233" y2="40.0065" gradientTransform="matrix(1 0 0 -1 -8.3622 60.8347)">
		<stop  offset="0" style="stop-color:#1F90FF;stop-opacity:0"/>
		<stop  offset="1" style="stop-color:#1F90FF"/>
	</linearGradient>
	<path style="fill:url(#SVGID_00000015319801582781621310000014515264851206763432_);" d="M12.7,16.6c0.3,0,0.5-0.2,0.5-0.5
		c0-0.3-0.2-0.5-0.5-0.5c-0.3,0-0.5,0.2-0.5,0.5C12.1,16.3,12.4,16.6,12.7,16.6z"/>
	
		<linearGradient id="SVGID_00000018208102576079788740000005581948601179612321_" gradientUnits="userSpaceOnUse" x1="23.2086" y1="58.0065" x2="23.2086" y2="40.0065" gradientTransform="matrix(1 0 0 -1 -8.3622 60.8347)">
		<stop  offset="0" style="stop-color:#1F90FF;stop-opacity:0"/>
		<stop  offset="1" style="stop-color:#1F90FF"/>
	</linearGradient>
	<path style="fill:url(#SVGID_00000018208102576079788740000005581948601179612321_);" d="M14.8,16.6c0.3,0,0.5-0.2,0.5-0.5
		c0-0.3-0.2-0.5-0.5-0.5c-0.3,0-0.5,0.2-0.5,0.5C14.3,16.3,14.6,16.6,14.8,16.6z"/>
	
		<linearGradient id="SVGID_00000080195287750094618520000004602868294614852998_" gradientUnits="userSpaceOnUse" x1="25.3939" y1="58.0065" x2="25.3939" y2="40.0065" gradientTransform="matrix(1 0 0 -1 -8.3622 60.8347)">
		<stop  offset="0" style="stop-color:#1F90FF;stop-opacity:0"/>
		<stop  offset="1" style="stop-color:#1F90FF"/>
	</linearGradient>
	<path style="fill:url(#SVGID_00000080195287750094618520000004602868294614852998_);" d="M17,16.6c0.3,0,0.5-0.2,0.5-0.5
		c0-0.3-0.2-0.5-0.5-0.5c-0.3,0-0.5,0.2-0.5,0.5C16.5,16.3,16.7,16.6,17,16.6z"/>
	
		<linearGradient id="SVGID_00000061439480418139024700000004125603926808808093_" gradientUnits="userSpaceOnUse" x1="27.5793" y1="58.0065" x2="27.5793" y2="40.0065" gradientTransform="matrix(1 0 0 -1 -8.3622 60.8347)">
		<stop  offset="0" style="stop-color:#1F90FF;stop-opacity:0"/>
		<stop  offset="1" style="stop-color:#1F90FF"/>
	</linearGradient>
	<path style="fill:url(#SVGID_00000061439480418139024700000004125603926808808093_);" d="M19.2,16.6c0.3,0,0.5-0.2,0.5-0.5
		c0-0.3-0.2-0.5-0.5-0.5c-0.3,0-0.5,0.2-0.5,0.5C18.7,16.3,18.9,16.6,19.2,16.6z"/>
	
		<linearGradient id="SVGID_00000145035687241283157010000010835338247278827442_" gradientUnits="userSpaceOnUse" x1="29.7646" y1="58.0065" x2="29.7646" y2="40.0065" gradientTransform="matrix(1 0 0 -1 -8.3622 60.8347)">
		<stop  offset="0" style="stop-color:#1F90FF;stop-opacity:0"/>
		<stop  offset="1" style="stop-color:#1F90FF"/>
	</linearGradient>
	<path style="fill:url(#SVGID_00000145035687241283157010000010835338247278827442_);" d="M21.4,16.6c0.3,0,0.5-0.2,0.5-0.5
		c0-0.3-0.2-0.5-0.5-0.5c-0.3,0-0.5,0.2-0.5,0.5C20.9,16.3,21.1,16.6,21.4,16.6z"/>
	
		<linearGradient id="SVGID_00000170245523240940619490000008438549015250976648_" gradientUnits="userSpaceOnUse" x1="31.95" y1="58.0065" x2="31.95" y2="40.0065" gradientTransform="matrix(1 0 0 -1 -8.3622 60.8347)">
		<stop  offset="0" style="stop-color:#1F90FF;stop-opacity:0"/>
		<stop  offset="1" style="stop-color:#1F90FF"/>
	</linearGradient>
	<path style="fill:url(#SVGID_00000170245523240940619490000008438549015250976648_);" d="M23.6,16.6c0.3,0,0.5-0.2,0.5-0.5
		c0-0.3-0.2-0.5-0.5-0.5c-0.3,0-0.5,0.2-0.5,0.5C23.1,16.3,23.3,16.6,23.6,16.6z"/>
	
		<linearGradient id="SVGID_00000036220120987667030870000017743090829523642020_" gradientUnits="userSpaceOnUse" x1="34.1353" y1="58.0062" x2="34.1353" y2="40.0062" gradientTransform="matrix(1 0 0 -1 -8.3622 60.8347)">
		<stop  offset="0" style="stop-color:#1F90FF;stop-opacity:0"/>
		<stop  offset="1" style="stop-color:#1F90FF"/>
	</linearGradient>
	<path style="fill:url(#SVGID_00000036220120987667030870000017743090829523642020_);" d="M25.8,16.5c0.2,0,0.4-0.2,0.4-0.4
		c0-0.2-0.2-0.4-0.4-0.4s-0.4,0.2-0.4,0.4C25.3,16.3,25.5,16.5,25.8,16.5z"/>
	
		<linearGradient id="SVGID_00000128446554811654658090000016246838252163050648_" gradientUnits="userSpaceOnUse" x1="21.0233" y1="58.0065" x2="21.0233" y2="40.0065" gradientTransform="matrix(1 0 0 -1 -8.3622 60.8347)">
		<stop  offset="0" style="stop-color:#1F90FF;stop-opacity:0"/>
		<stop  offset="1" style="stop-color:#1F90FF"/>
	</linearGradient>
	<path style="fill:url(#SVGID_00000128446554811654658090000016246838252163050648_);" d="M12.7,18.6c0.2,0,0.4-0.2,0.4-0.4
		c0-0.2-0.2-0.4-0.4-0.4c-0.2,0-0.4,0.2-0.4,0.4C12.2,18.4,12.4,18.6,12.7,18.6z"/>
	
		<linearGradient id="SVGID_00000020380858864433946950000008688979500151675575_" gradientUnits="userSpaceOnUse" x1="23.2086" y1="58.0065" x2="23.2086" y2="40.0065" gradientTransform="matrix(1 0 0 -1 -8.3622 60.8347)">
		<stop  offset="0" style="stop-color:#1F90FF;stop-opacity:0"/>
		<stop  offset="1" style="stop-color:#1F90FF"/>
	</linearGradient>
	<path style="fill:url(#SVGID_00000020380858864433946950000008688979500151675575_);" d="M14.8,18.7c0.3,0,0.5-0.2,0.5-0.5
		c0-0.3-0.2-0.5-0.5-0.5c-0.3,0-0.5,0.2-0.5,0.5C14.3,18.5,14.6,18.7,14.8,18.7z"/>
	
		<linearGradient id="SVGID_00000014635133347368135010000014123556915716293564_" gradientUnits="userSpaceOnUse" x1="25.3939" y1="58.0065" x2="25.3939" y2="40.0065" gradientTransform="matrix(1 0 0 -1 -8.3622 60.8347)">
		<stop  offset="0" style="stop-color:#1F90FF;stop-opacity:0"/>
		<stop  offset="1" style="stop-color:#1F90FF"/>
	</linearGradient>
	<path style="fill:url(#SVGID_00000014635133347368135010000014123556915716293564_);" d="M17,18.7c0.3,0,0.5-0.2,0.5-0.5
		c0-0.3-0.2-0.5-0.5-0.5c-0.3,0-0.5,0.2-0.5,0.5C16.5,18.5,16.7,18.7,17,18.7z"/>
	
		<linearGradient id="SVGID_00000057139399024922962670000003948359533972953474_" gradientUnits="userSpaceOnUse" x1="27.5793" y1="58.0065" x2="27.5793" y2="40.0065" gradientTransform="matrix(1 0 0 -1 -8.3622 60.8347)">
		<stop  offset="0" style="stop-color:#1F90FF;stop-opacity:0"/>
		<stop  offset="1" style="stop-color:#1F90FF"/>
	</linearGradient>
	<path style="fill:url(#SVGID_00000057139399024922962670000003948359533972953474_);" d="M19.2,18.7c0.3,0,0.5-0.2,0.5-0.5
		c0-0.3-0.2-0.5-0.5-0.5c-0.3,0-0.5,0.2-0.5,0.5C18.7,18.5,18.9,18.7,19.2,18.7z"/>
	
		<linearGradient id="SVGID_00000101819287845253870740000011969794603801647028_" gradientUnits="userSpaceOnUse" x1="29.7646" y1="58.0065" x2="29.7646" y2="40.0065" gradientTransform="matrix(1 0 0 -1 -8.3622 60.8347)">
		<stop  offset="0" style="stop-color:#1F90FF;stop-opacity:0"/>
		<stop  offset="1" style="stop-color:#1F90FF"/>
	</linearGradient>
	<path style="fill:url(#SVGID_00000101819287845253870740000011969794603801647028_);" d="M21.4,18.7c0.3,0,0.5-0.2,0.5-0.5
		c0-0.3-0.2-0.5-0.5-0.5c-0.3,0-0.5,0.2-0.5,0.5C20.9,18.5,21.1,18.7,21.4,18.7z"/>
	
		<linearGradient id="SVGID_00000039836354056789560770000004907035428693063306_" gradientUnits="userSpaceOnUse" x1="31.95" y1="58.0065" x2="31.95" y2="40.0065" gradientTransform="matrix(1 0 0 -1 -8.3622 60.8347)">
		<stop  offset="0" style="stop-color:#1F90FF;stop-opacity:0"/>
		<stop  offset="1" style="stop-color:#1F90FF"/>
	</linearGradient>
	<path style="fill:url(#SVGID_00000039836354056789560770000004907035428693063306_);" d="M23.6,18.7c0.3,0,0.5-0.2,0.5-0.5
		c0-0.3-0.2-0.5-0.5-0.5c-0.3,0-0.5,0.2-0.5,0.5C23.1,18.5,23.3,18.7,23.6,18.7z"/>
	
		<linearGradient id="SVGID_00000028322540773970167590000004619228613461791119_" gradientUnits="userSpaceOnUse" x1="23.2086" y1="58.0062" x2="23.2086" y2="40.0062" gradientTransform="matrix(1 0 0 -1 -8.3622 60.8347)">
		<stop  offset="0" style="stop-color:#1F90FF;stop-opacity:0"/>
		<stop  offset="1" style="stop-color:#1F90FF"/>
	</linearGradient>
	<path style="fill:url(#SVGID_00000028322540773970167590000004619228613461791119_);" d="M14.8,20.8c0.2,0,0.4-0.2,0.4-0.4
		c0-0.2-0.2-0.4-0.4-0.4c-0.2,0-0.4,0.2-0.4,0.4C14.4,20.6,14.6,20.8,14.8,20.8z"/>
	
		<linearGradient id="SVGID_00000174589946505954271680000011371695744902157486_" gradientUnits="userSpaceOnUse" x1="25.394" y1="58.0062" x2="25.394" y2="40.0062" gradientTransform="matrix(1 0 0 -1 -8.3622 60.8347)">
		<stop  offset="0" style="stop-color:#1F90FF;stop-opacity:0"/>
		<stop  offset="1" style="stop-color:#1F90FF"/>
	</linearGradient>
	<path style="fill:url(#SVGID_00000174589946505954271680000011371695744902157486_);" d="M17,20.8c0.2,0,0.4-0.2,0.4-0.4
		c0-0.2-0.2-0.4-0.4-0.4c-0.2,0-0.4,0.2-0.4,0.4C16.6,20.6,16.8,20.8,17,20.8z"/>
	
		<linearGradient id="SVGID_00000132802921673643981080000000356155064023345312_" gradientUnits="userSpaceOnUse" x1="27.5793" y1="58.0065" x2="27.5793" y2="40.0065" gradientTransform="matrix(1 0 0 -1 -8.3622 60.8347)">
		<stop  offset="0" style="stop-color:#1F90FF;stop-opacity:0"/>
		<stop  offset="1" style="stop-color:#1F90FF"/>
	</linearGradient>
	<path style="fill:url(#SVGID_00000132802921673643981080000000356155064023345312_);" d="M19.2,20.8c0.3,0,0.5-0.2,0.5-0.5
		c0-0.3-0.2-0.5-0.5-0.5c-0.3,0-0.5,0.2-0.5,0.5C18.7,20.6,18.9,20.8,19.2,20.8z"/>
	
		<linearGradient id="SVGID_00000017483042707554934070000016791240779418725288_" gradientUnits="userSpaceOnUse" x1="29.7646" y1="58.0062" x2="29.7646" y2="40.0062" gradientTransform="matrix(1 0 0 -1 -8.3622 60.8347)">
		<stop  offset="0" style="stop-color:#1F90FF;stop-opacity:0"/>
		<stop  offset="1" style="stop-color:#1F90FF"/>
	</linearGradient>
	<path style="fill:url(#SVGID_00000017483042707554934070000016791240779418725288_);" d="M21.4,20.8c0.2,0,0.4-0.2,0.4-0.4
		c0-0.2-0.2-0.4-0.4-0.4c-0.2,0-0.4,0.2-0.4,0.4C21,20.6,21.2,20.8,21.4,20.8z"/>
	<path class="st53" d="M30.2,23.1l0.1,0.2l0.2,0l4.9,1.1c0.1,0,0.1,0.1,0.1,0.1c0,0.1,0,0.2,0,0.2l-3.3,3.9L32,28.9l0,0.2l0.5,5.2
		c0,0.1,0,0.2-0.1,0.2c-0.1,0-0.1,0-0.2,0l-4.6-2.1l-0.2-0.1l-0.2,0.1l-4.6,2.1c-0.1,0-0.1,0-0.2,0c-0.1,0-0.1-0.1-0.1-0.2l0.5-5.2
		l0-0.2l-0.1-0.2l-3.3-3.9c-0.1-0.1-0.1-0.1,0-0.2c0-0.1,0.1-0.1,0.1-0.1l4.9-1.1l0.2,0l0.1-0.2l2.5-4.5c0-0.1,0.1-0.1,0.2-0.1
		c0.1,0,0.1,0,0.2,0.1L30.2,23.1z"/>
	<path class="st53" d="M11.2,23.1l0.1,0.2l0.2,0l4.9,1.1c0.1,0,0.1,0.1,0.1,0.1c0,0.1,0,0.2,0,0.2l-3.3,3.9L13,28.9l0,0.2l0.5,5.2
		c0,0.1,0,0.2-0.1,0.2c-0.1,0-0.1,0-0.2,0l-4.6-2.1l-0.2-0.1l-0.2,0.1l-4.6,2.1c-0.1,0-0.1,0-0.2,0c-0.1,0-0.1-0.1-0.1-0.2L4,29.1
		l0-0.2l-0.1-0.2l-3.3-3.9c-0.1-0.1-0.1-0.1,0-0.2c0-0.1,0.1-0.1,0.1-0.1l4.9-1.1l0.2,0l0.1-0.2l2.5-4.5c0-0.1,0.1-0.1,0.2-0.1
		c0.1,0,0.1,0,0.2,0.1L11.2,23.1z"/>
	<path class="st53" d="M23,9.8l0.1,0.2l0.2,0.1l8.3,2c0.5,0.1,0.7,0.8,0.3,1.3l-2.4,3c-1.4-1.2-3.8-1-4.8,0.9l-2,3.5L19,21.5
		c-0.6,0.1-1.3,0.1-1.9,0l-3.8-0.9l-2-3.5c-1-1.7-3.2-2.1-4.6-1l-2.3-2.8C4,12.8,4.2,12.1,4.7,12l8.3-2l0.2-0.1l0.1-0.2l4.3-7.9
		c0.3-0.5,0.9-0.5,1.1,0L23,9.8z"/>
</g>
</svg>
