<?xml version="1.0" encoding="utf-8"?>
<!-- Generator: Adobe Illustrator 24.2.0, SVG Export Plug-In . SVG Version: 6.00 Build 0)  -->
<svg version="1.1" id="Layer_1" xmlns="http://www.w3.org/2000/svg" xmlns:xlink="http://www.w3.org/1999/xlink" x="0px" y="0px"
	 viewBox="0 0 1184.4 864" style="enable-background:new 0 0 1184.4 864;" xml:space="preserve">
<style type="text/css">
	.st0{fill-rule:evenodd;clip-rule:evenodd;fill:#2E3191;}
	.st1{fill:#FEFEFE;}
	.st2{fill:#ED3237;}
	.st3{fill:#2C4569;}
</style>
<g>
	<path class="st0" d="M-522.76,415.79h7.77l9.39,18.2l5.7-8.88h6.73l-12.94,19.81L-522.76,415.79L-522.76,415.79z M-511.16,415.79
		h30.71l-21.01,37.28l-3.07-5.38l15.42-25.25h-18.94L-511.16,415.79L-511.16,415.79z"/>
	<path class="st0" d="M-348.03,415.31v2.35h0.98c0.58,0,1.01-0.09,1.28-0.28c0.27-0.18,0.41-0.47,0.41-0.87
		c0-0.41-0.14-0.72-0.43-0.91c-0.29-0.2-0.74-0.3-1.35-0.3H-348.03L-348.03,415.31z M-350,414.06h3.19c1.16,0,2.02,0.19,2.61,0.58
		c0.58,0.39,0.87,0.97,0.87,1.75c0,0.54-0.16,1-0.47,1.38c-0.31,0.38-0.75,0.64-1.31,0.78l1.82,3.63h-2.21l-1.55-3.32h-0.98v3.32
		H-350V414.06L-350,414.06z M-346.95,412.16c-0.83,0-1.61,0.14-2.32,0.44c-0.72,0.29-1.36,0.72-1.93,1.29
		c-0.6,0.59-1.06,1.27-1.38,2.02c-0.32,0.76-0.48,1.53-0.48,2.34c0,0.81,0.15,1.58,0.45,2.31c0.3,0.73,0.74,1.38,1.31,1.95
		c0.58,0.59,1.25,1.05,2,1.37c0.75,0.32,1.53,0.48,2.33,0.48c0.79,0,1.56-0.15,2.3-0.46c0.74-0.31,1.42-0.75,2.03-1.33
		c0.57-0.55,1.01-1.19,1.33-1.92c0.32-0.73,0.47-1.49,0.47-2.27c0-0.87-0.14-1.67-0.44-2.4c-0.29-0.73-0.73-1.39-1.31-1.97
		c-0.59-0.61-1.25-1.07-1.99-1.37C-345.31,412.32-346.1,412.16-346.95,412.16L-346.95,412.16z M-346.97,410.93
		c1.01,0,1.97,0.19,2.87,0.56c0.89,0.38,1.69,0.92,2.4,1.64c0.68,0.68,1.19,1.46,1.55,2.34c0.35,0.88,0.53,1.81,0.53,2.79
		c0,1-0.18,1.94-0.55,2.83c-0.37,0.89-0.91,1.67-1.61,2.34c-0.7,0.69-1.5,1.22-2.4,1.59c-0.9,0.37-1.83,0.55-2.79,0.55
		c-0.98,0-1.92-0.19-2.81-0.57c-0.9-0.38-1.7-0.93-2.4-1.64c-0.68-0.69-1.2-1.47-1.56-2.35c-0.36-0.88-0.54-1.79-0.54-2.75
		c0-0.67,0.09-1.32,0.27-1.95c0.18-0.64,0.44-1.25,0.8-1.85c0.66-1.11,1.54-1.98,2.63-2.6
		C-349.48,411.24-348.28,410.93-346.97,410.93L-346.97,410.93z"/>
	<path class="st0" d="M-473.39,446.55l-5.28-15.15h5.99l2.62,9.1l2.58-9.1h5.73l-4.9,15.15H-473.39L-473.39,446.55z M-458.57,429.86
		v-4.33h6.08v4.33H-458.57L-458.57,429.86z M-458.57,446.55V431.4h6.08v15.15H-458.57L-458.57,446.55z M-442.25,437.27h5.37
		c-0.07-0.94-0.32-1.64-0.78-2.11c-0.46-0.47-1.11-0.7-1.96-0.7c-0.79,0-1.42,0.25-1.87,0.75
		C-441.97,435.7-442.21,436.39-442.25,437.27L-442.25,437.27z M-437.21,442.06h5.77c-0.42,1.66-1.34,2.91-2.75,3.76
		c-1.41,0.85-3.29,1.28-5.61,1.28c-2.6,0-4.67-0.72-6.19-2.17c-1.53-1.44-2.29-3.39-2.29-5.83c0-2.55,0.78-4.55,2.34-6.03
		c1.56-1.47,3.69-2.21,6.37-2.21c2.7,0,4.81,0.8,6.34,2.4c1.53,1.6,2.29,3.83,2.29,6.67v0.36l-11.3,0.01
		c0.03,0.97,0.29,1.71,0.77,2.24c0.49,0.53,1.16,0.79,2.02,0.79c0.59,0,1.07-0.11,1.46-0.33
		C-437.61,442.79-437.35,442.47-437.21,442.06L-437.21,442.06z M-419.93,440.94c0,0.51,0.15,0.87,0.45,1.08
		c0.29,0.21,0.82,0.31,1.58,0.31c0.22,0,0.39,0,0.51,0c0.12-0.01,0.23-0.01,0.34-0.02v4.36c-0.74,0.04-1.42,0.08-2.03,0.1
		c-0.61,0.02-1.18,0.03-1.71,0.03c-1.91,0-3.25-0.32-4.01-0.96c-0.76-0.64-1.14-1.77-1.14-3.37v-7.6h-2.13v-3.47h2.13v-4.68h5.99
		v4.68h2.83v3.47h-2.83V440.94L-419.93,440.94z M-406.1,440.94c0,0.51,0.15,0.87,0.45,1.08c0.29,0.21,0.82,0.31,1.58,0.31
		c0.22,0,0.39,0,0.51,0c0.12-0.01,0.23-0.01,0.34-0.02v4.36c-0.74,0.04-1.42,0.08-2.03,0.1c-0.61,0.02-1.18,0.03-1.71,0.03
		c-1.91,0-3.25-0.32-4.01-0.96c-0.76-0.64-1.14-1.77-1.14-3.37v-7.6h-2.13v-3.47h2.13v-4.68h5.99v4.68h2.83v3.47h-2.83V440.94
		L-406.1,440.94z M-399.09,429.86v-4.33h6.08v4.33H-399.09L-399.09,429.86z M-399.09,446.55V431.4h6.08v15.15H-399.09
		L-399.09,446.55z M-382.77,437.27h5.37c-0.07-0.94-0.32-1.64-0.78-2.11c-0.46-0.47-1.11-0.7-1.96-0.7c-0.79,0-1.42,0.25-1.87,0.75
		C-382.49,435.7-382.73,436.39-382.77,437.27L-382.77,437.27z M-377.73,442.06h5.77c-0.42,1.66-1.34,2.91-2.76,3.76
		c-1.41,0.85-3.29,1.28-5.61,1.28c-2.6,0-4.67-0.72-6.19-2.17c-1.53-1.44-2.29-3.39-2.29-5.83c0-2.55,0.78-4.55,2.34-6.03
		c1.56-1.47,3.69-2.21,6.37-2.21c2.7,0,4.81,0.8,6.34,2.4c1.53,1.6,2.29,3.83,2.29,6.67v0.36l-11.3,0.01
		c0.03,0.97,0.29,1.71,0.77,2.24c0.49,0.53,1.16,0.79,2.02,0.79c0.59,0,1.07-0.11,1.46-0.33
		C-378.13,442.79-377.87,442.47-377.73,442.06L-377.73,442.06z M-367.41,446.55V431.4h5.48v2.22c0.7-0.89,1.49-1.54,2.36-1.97
		c0.87-0.43,1.86-0.65,2.95-0.65c0.92,0,1.74,0.15,2.47,0.46c0.72,0.31,1.34,0.76,1.84,1.37c0.46,0.55,0.78,1.21,0.97,2
		c0.19,0.79,0.29,2.07,0.29,3.85v7.88h-6.02v-7.85c0-1.15-0.15-1.95-0.46-2.38c-0.3-0.43-0.83-0.65-1.59-0.65
		c-0.76,0-1.33,0.25-1.7,0.75c-0.37,0.5-0.56,1.27-0.56,2.3v7.82H-367.41L-367.41,446.55z"/>
</g>
<g>
	<g>
		<g>
			<path class="st1" d="M-1045.96,180.58h502.73c0.07,167.61,0.02,335.23,0.03,502.84c-167.59,0-335.19,0-502.78,0
				C-1045.97,515.81-1046.01,348.19-1045.96,180.58z M-1032.75,193.87c0.01,158.77-0.01,317.54,0.01,476.31
				c158.74-0.02,317.49-0.17,476.23-0.08c0.17-158.71,0.03-317.44,0.07-476.16C-715.21,193.87-873.98,193.85-1032.75,193.87z"/>
		</g>
		<g>
			<path class="st1" d="M-1026.64,625.6c0.03-141.84-0.06-283.67,0.05-425.51c154.77,0.07,309.54-0.04,464.31,0.06
				c-0.04,154.51,0,309.03-0.02,463.54c-154.71,0.09-309.43-0.11-464.14,0.1C-1026.91,651.08-1026.5,638.33-1026.64,625.6z
				 M-1013.56,214.01c0.09,73.7,0.05,147.41,0.02,221.12c50.43,0.18,100.88-0.05,151.31,0.11c7.64-14.67,14.79-29.6,22.36-44.31
				c27.38,0.13,54.76-0.13,82.14,0.13c-3.11,14.73-6.72,29.39-9.37,44.2c55.17-0.19,110.33,0.03,165.5-0.11
				c0.01-11.64-0.12-23.29,0.06-34.93c8.7,0.07,17.4,0.02,26.11,0.03c0.01-62.11,0-124.22,0-186.32
				C-721.47,213.98-867.52,213.81-1013.56,214.01z M-1013.51,443.34c0,4.68-0.04,9.37,0.03,14.06c46.76-0.04,93.51-0.01,140.27-0.02
				c2.39-4.66,4.76-9.34,7.11-14.02C-915.23,443.3-964.37,443.34-1013.51,443.34z M-769.1,443.31c-1.01,4.68-2.03,9.36-3,14.06
				c56.82-0.02,113.63,0,170.44,0.03c0.07-4.69,0.03-9.38,0.03-14.07C-657.45,443.32-713.28,443.3-769.1,443.31z M-1013.51,465.54
				c-0.01,6.76-0.01,13.52,0,20.28c42.06-0.01,84.13,0.06,126.19-0.03c3.33-6.76,6.78-13.47,10.15-20.21
				C-922.62,465.48-968.06,465.55-1013.51,465.54z M-773.89,465.58c-1.43,6.75-2.94,13.49-4.36,20.24
				c58.88,0.02,117.75,0.01,176.62,0c0.01-6.76,0.02-13.52,0-20.28C-659.05,465.56-716.47,465.48-773.89,465.58z M-1013.51,494.14
				c-0.01,7.48-0.01,14.97,0,22.46c36.86,0.07,73.73-0.09,110.59,0.08c4.01-7.39,7.55-15.04,11.36-22.54
				C-932.21,494.12-972.86,494.12-1013.51,494.14z M-780.05,494.14c-1.63,7.47-3.21,14.95-4.84,22.43
				c61.09,0.09,122.18,0.02,183.26,0.03c0.02-7.49,0.01-14.98,0.01-22.47C-661.1,494.12-720.58,494.12-780.05,494.14z
				 M-1013.38,524.71c-0.3,8.41-0.06,16.84-0.13,25.25c31.4-0.02,62.81,0.09,94.21-0.05c4.03-8.42,8.31-16.72,12.36-25.13
				C-942.42,524.74-977.9,524.87-1013.38,524.71z M-786.68,524.79c-1.81,8.36-3.55,16.74-5.41,25.09
				c63.48,0.21,126.98,0.04,190.46,0.08c-0.05-8.41,0.14-16.83-0.09-25.24C-663.37,524.86-725.02,524.73-786.68,524.79z
				 M-801.25,592.61c66.54,0.02,133.08,0.02,199.62,0.01c0.02-11.42,0.02-22.85,0-34.27c-64.18,0.05-128.36-0.13-192.54,0.09
				C-796.47,569.84-798.91,581.22-801.25,592.61z M-1013.51,601.18c-0.02,16.3,0.02,32.61-0.02,48.91
				c137.31,0.06,274.62,0.05,411.92,0.01c-0.03-16.31,0.01-32.61-0.02-48.92C-738.92,601.17-876.21,601.17-1013.51,601.18z"/>
		</g>
		<path class="st1" d="M-638.98,237.71c15.82-6.45,33.44-7.83,50.24-5.15c-1.84,9.97-3.77,19.93-5.6,29.9
			c-15.14-1.14-31.82,1.85-42.93,12.97c-8.89,8.23-13.73,20.22-14.18,32.22c-0.98,12.59,3.51,25.76,13.11,34.2
			c8.47,7.24,19.45,11.75,30.64,11.99c-2.15,10.9-4.44,21.77-6.6,32.67c-17.6-1.14-35.12-7.51-48.44-19.24
			c-13.04-11.61-21.04-28.35-22.83-45.64c-2.02-17.91,1.18-36.64,10.25-52.32C-667.23,255.09-654.29,243.59-638.98,237.71z"/>
		<path class="st1" d="M-1000.38,232.57c18.35,0.02,36.7-0.06,55.05,0.04c3.57,30.65,7.37,61.27,10.9,91.92
			c0.29-0.24,0.87-0.74,1.16-0.99c16.37-30.33,32.79-60.65,49.19-90.97c68.47-0.01,136.94-0.01,205.41,0
			c-3.13,10.47-6.28,20.93-9.43,31.39c-13.85,0.03-27.7,0-41.55,0.02c-2.53,8.35-5.07,16.69-7.59,25.05
			c13.05,0.03,26.11,0.04,39.16-0.01c-2.9,10.23-6.18,20.35-9.17,30.55c-13.01,0.09-26.03,0.08-39.04,0.01
			c-2.6,8.12-5,16.3-7.49,24.45c13.88,0,27.76,0.02,41.63-0.01c-3.18,10.7-6.41,21.38-9.68,32.06c-24.45-0.06-48.9,0.06-73.34-0.06
			c10.92-36.5,21.86-72.98,32.77-109.48c-14.25-0.01-28.51-0.01-42.76,0c-10.99,36.5-21.96,73-32.93,109.5
			c-10.84,0.05-21.67,0.02-32.51,0.02c10.87-36.51,21.8-73,32.67-109.51c-10.74-0.03-21.48,0-32.22-0.02
			c-27.2,50.64-54.28,101.35-81.49,151.98c-6.22-51.94-12.51-103.87-18.73-155.8c-10.08-0.07-20.15-0.04-30.23-0.1
			C-1000.61,252.6-1000.4,242.59-1000.38,232.57z"/>
	</g>
	<g>
		<g>
			<path class="st2" d="M-1032.75,193.87c158.77-0.02,317.54,0,476.31,0.07c-0.04,158.72,0.1,317.45-0.07,476.16
				c-158.74-0.09-317.49,0.06-476.23,0.08C-1032.76,511.41-1032.74,352.64-1032.75,193.87z M-1026.64,625.6
				c0.14,12.73-0.27,25.48,0.2,38.19c154.71-0.21,309.43-0.01,464.14-0.1c0.02-154.51-0.02-309.03,0.02-463.54
				c-154.77-0.1-309.54,0.01-464.31-0.06C-1026.7,341.93-1026.61,483.76-1026.64,625.6z"/>
		</g>
		<g>
			<path class="st2" d="M-1013.56,214.01c146.04-0.2,292.09-0.03,438.13-0.08c0,62.1,0.01,124.21,0,186.32
				c-8.71-0.01-17.41,0.04-26.11-0.03c-0.18,11.64-0.05,23.29-0.06,34.93c-55.17,0.14-110.33-0.08-165.5,0.11
				c2.65-14.81,6.26-29.47,9.37-44.2c-27.38-0.26-54.76,0-82.14-0.13c-7.57,14.71-14.72,29.64-22.36,44.31
				c-50.43-0.16-100.88,0.07-151.31-0.11C-1013.51,361.42-1013.47,287.71-1013.56,214.01z M-638.98,237.71
				c-15.31,5.88-28.25,17.38-36.34,31.6c-9.07,15.68-12.27,34.41-10.25,52.32c1.79,17.29,9.79,34.03,22.83,45.64
				c13.32,11.73,30.84,18.1,48.44,19.24c2.16-10.9,4.45-21.77,6.6-32.67c-11.19-0.24-22.17-4.75-30.64-11.99
				c-9.6-8.44-14.09-21.61-13.11-34.2c0.45-12,5.29-23.99,14.18-32.22c11.11-11.12,27.79-14.11,42.93-12.97
				c1.83-9.97,3.76-19.93,5.6-29.9C-605.54,229.88-623.16,231.26-638.98,237.71z M-1000.38,232.57
				c-0.02,10.02-0.23,20.03-0.22,30.04c10.08,0.06,20.15,0.03,30.23,0.1c6.22,51.93,12.51,103.86,18.73,155.8
				c27.21-50.63,54.29-101.34,81.49-151.98c10.74,0.02,21.48-0.01,32.22,0.02c-10.87,36.51-21.8,73-32.67,109.51
				c10.84,0,21.67,0.03,32.51-0.02c10.97-36.5,21.94-73,32.93-109.5c14.25-0.01,28.51-0.01,42.76,0
				c-10.91,36.5-21.85,72.98-32.77,109.48c24.44,0.12,48.89,0,73.34,0.06c3.27-10.68,6.5-21.36,9.68-32.06
				c-13.87,0.03-27.75,0.01-41.63,0.01c2.49-8.15,4.89-16.33,7.49-24.45c13.01,0.07,26.03,0.08,39.04-0.01
				c2.99-10.2,6.27-20.32,9.17-30.55c-13.05,0.05-26.11,0.04-39.16,0.01c2.52-8.36,5.06-16.7,7.59-25.05
				c13.85-0.02,27.7,0.01,41.55-0.02c3.15-10.46,6.3-20.92,9.43-31.39c-68.47-0.01-136.94-0.01-205.41,0
				c-16.4,30.32-32.82,60.64-49.19,90.97c-0.29,0.25-0.87,0.75-1.16,0.99c-3.53-30.65-7.33-61.27-10.9-91.92
				C-963.68,232.51-982.03,232.59-1000.38,232.57z"/>
		</g>
		<path class="st2" d="M-1013.51,443.34c49.14,0,98.28-0.04,147.41,0.02c-2.35,4.68-4.72,9.36-7.11,14.02
			c-46.76,0.01-93.51-0.02-140.27,0.02C-1013.55,452.71-1013.51,448.02-1013.51,443.34z"/>
		<path class="st2" d="M-769.1,443.31c55.82-0.01,111.65,0.01,167.47,0.02c0,4.69,0.04,9.38-0.03,14.07
			c-56.81-0.03-113.62-0.05-170.44-0.03C-771.13,452.67-770.11,447.99-769.1,443.31z"/>
		<path class="st2" d="M-1013.51,465.54c45.45,0.01,90.89-0.06,136.34,0.04c-3.37,6.74-6.82,13.45-10.15,20.21
			c-42.06,0.09-84.13,0.02-126.19,0.03C-1013.52,479.06-1013.52,472.3-1013.51,465.54z"/>
		<path class="st2" d="M-773.89,465.58c57.42-0.1,114.84-0.02,172.26-0.04c0.02,6.76,0.01,13.52,0,20.28
			c-58.87,0.01-117.74,0.02-176.62,0C-776.83,479.07-775.32,472.33-773.89,465.58z"/>
		<path class="st2" d="M-1013.51,494.14c40.65-0.02,81.3-0.02,121.95,0c-3.81,7.5-7.35,15.15-11.36,22.54
			c-36.86-0.17-73.73-0.01-110.59-0.08C-1013.52,509.11-1013.52,501.62-1013.51,494.14z"/>
		<path class="st2" d="M-780.05,494.14c59.47-0.02,118.95-0.02,178.43-0.01c0,7.49,0.01,14.98-0.01,22.47
			c-61.08-0.01-122.17,0.06-183.26-0.03C-783.26,509.09-781.68,501.61-780.05,494.14z"/>
		<path class="st2" d="M-1013.38,524.71c35.48,0.16,70.96,0.03,106.44,0.07c-4.05,8.41-8.33,16.71-12.36,25.13
			c-31.4,0.14-62.81,0.03-94.21,0.05C-1013.44,541.55-1013.68,533.12-1013.38,524.71z"/>
		<path class="st2" d="M-786.68,524.79c61.66-0.06,123.31,0.07,184.96-0.07c0.23,8.41,0.04,16.83,0.09,25.24
			c-63.48-0.04-126.98,0.13-190.46-0.08C-790.23,541.53-788.49,533.15-786.68,524.79z"/>
		<path class="st2" d="M-801.25,592.61c2.34-11.39,4.78-22.77,7.08-34.17c64.18-0.22,128.36-0.04,192.54-0.09
			c0.02,11.42,0.02,22.85,0,34.27C-668.17,592.63-734.71,592.63-801.25,592.61z"/>
		<path class="st2" d="M-1013.51,601.18c137.3-0.01,274.59-0.01,411.88,0c0.03,16.31-0.01,32.61,0.02,48.92
			c-137.3,0.04-274.61,0.05-411.92-0.01C-1013.49,633.79-1013.53,617.48-1013.51,601.18z"/>
	</g>
</g>
<g>
	<g>
		<g>
			<path class="st1" d="M278.57,1.5H781.3c0.07,167.61,0.02,335.23,0.03,502.84c-167.59,0-335.19,0-502.78,0
				C278.56,336.73,278.52,169.11,278.57,1.5z M291.78,14.79c0.01,158.77-0.01,317.54,0.01,476.31
				c158.74-0.02,317.49-0.17,476.23-0.08c0.17-158.71,0.03-317.44,0.07-476.16C609.32,14.79,450.55,14.77,291.78,14.79z"/>
		</g>
		<g>
			<path class="st1" d="M297.89,446.52c0.03-141.84-0.06-283.67,0.05-425.51c154.77,0.07,309.54-0.04,464.31,0.06
				c-0.04,154.51,0,309.03-0.02,463.54c-154.71,0.09-309.43-0.11-464.14,0.1C297.62,472,298.03,459.25,297.89,446.52z M310.97,34.93
				c0.09,73.7,0.05,147.41,0.02,221.12c50.43,0.18,100.88-0.05,151.31,0.11c7.64-14.67,14.79-29.6,22.36-44.31
				c27.38,0.13,54.76-0.13,82.14,0.13c-3.11,14.73-6.72,29.39-9.37,44.2c55.17-0.19,110.33,0.03,165.5-0.11
				c0.01-11.64-0.12-23.29,0.06-34.93c8.7,0.07,17.4,0.02,26.11,0.03c0.01-62.11,0-124.22,0-186.32
				C603.06,34.9,457.01,34.73,310.97,34.93z M311.02,264.26c0,4.68-0.04,9.37,0.03,14.06c46.76-0.04,93.51-0.01,140.27-0.02
				c2.39-4.66,4.76-9.34,7.11-14.02C409.3,264.22,360.16,264.26,311.02,264.26z M555.43,264.23c-1.01,4.68-2.03,9.36-3,14.06
				c56.82-0.02,113.63,0,170.44,0.03c0.07-4.69,0.03-9.38,0.03-14.07C667.08,264.24,611.25,264.22,555.43,264.23z M311.02,286.46
				c-0.01,6.76-0.01,13.52,0,20.28c42.06-0.01,84.13,0.06,126.19-0.03c3.33-6.76,6.78-13.47,10.15-20.21
				C401.91,286.4,356.47,286.47,311.02,286.46z M550.64,286.5c-1.43,6.75-2.94,13.49-4.36,20.24c58.88,0.02,117.75,0.01,176.62,0
				c0.01-6.76,0.02-13.52,0-20.28C665.48,286.48,608.06,286.4,550.64,286.5z M311.02,315.06c-0.01,7.48-0.01,14.97,0,22.46
				c36.86,0.07,73.73-0.09,110.59,0.08c4.01-7.39,7.55-15.04,11.36-22.54C392.32,315.04,351.67,315.04,311.02,315.06z
				 M544.48,315.06c-1.63,7.47-3.21,14.95-4.84,22.43c61.09,0.09,122.18,0.02,183.26,0.03c0.02-7.49,0.01-14.98,0.01-22.47
				C663.43,315.04,603.95,315.04,544.48,315.06z M311.15,345.63c-0.3,8.41-0.06,16.84-0.13,25.25c31.4-0.02,62.81,0.09,94.21-0.05
				c4.03-8.42,8.31-16.72,12.36-25.13C382.11,345.66,346.63,345.79,311.15,345.63z M537.85,345.71c-1.81,8.36-3.55,16.74-5.41,25.09
				c63.48,0.21,126.98,0.04,190.46,0.08c-0.05-8.41,0.14-16.83-0.09-25.24C661.16,345.78,599.51,345.65,537.85,345.71z
				 M523.28,413.53c66.54,0.02,133.08,0.02,199.62,0.01c0.02-11.42,0.02-22.85,0-34.27c-64.18,0.05-128.36-0.13-192.54,0.09
				C528.06,390.76,525.62,402.14,523.28,413.53z M311.02,422.1c-0.02,16.3,0.02,32.61-0.02,48.91
				c137.31,0.06,274.62,0.05,411.92,0.01c-0.03-16.31,0.01-32.61-0.02-48.92C585.61,422.09,448.32,422.09,311.02,422.1z"/>
		</g>
		<path class="st1" d="M685.55,58.63c15.82-6.45,33.44-7.83,50.24-5.15c-1.84,9.97-3.77,19.93-5.6,29.9
			c-15.14-1.14-31.82,1.85-42.93,12.97c-8.89,8.23-13.73,20.22-14.18,32.22c-0.98,12.59,3.51,25.76,13.11,34.2
			c8.47,7.24,19.45,11.75,30.64,11.99c-2.15,10.9-4.44,21.77-6.6,32.67c-17.6-1.14-35.12-7.51-48.44-19.24
			c-13.04-11.61-21.04-28.35-22.83-45.64c-2.02-17.91,1.18-36.64,10.25-52.32C657.3,76.01,670.24,64.51,685.55,58.63z"/>
		<path class="st1" d="M324.15,53.49c18.35,0.02,36.7-0.06,55.05,0.04c3.57,30.65,7.37,61.27,10.9,91.92
			c0.29-0.24,0.87-0.74,1.16-0.99c16.37-30.33,32.79-60.65,49.19-90.97c68.47-0.01,136.94-0.01,205.41,0
			c-3.13,10.47-6.28,20.93-9.43,31.39c-13.85,0.03-27.7,0-41.55,0.02c-2.53,8.35-5.07,16.69-7.59,25.05
			c13.05,0.03,26.11,0.04,39.16-0.01c-2.9,10.23-6.18,20.35-9.17,30.55c-13.01,0.09-26.03,0.08-39.04,0.01
			c-2.6,8.12-5,16.3-7.49,24.45c13.88,0,27.76,0.02,41.63-0.01c-3.18,10.7-6.41,21.38-9.68,32.06c-24.45-0.06-48.9,0.06-73.34-0.06
			c10.92-36.5,21.86-72.98,32.77-109.48c-14.25-0.01-28.51-0.01-42.76,0c-10.99,36.5-21.96,73-32.93,109.5
			c-10.84,0.05-21.67,0.02-32.51,0.02c10.87-36.51,21.8-73,32.67-109.51c-10.74-0.03-21.48,0-32.22-0.02
			c-27.2,50.64-54.28,101.35-81.49,151.98c-6.22-51.94-12.51-103.87-18.73-155.8c-10.08-0.07-20.15-0.04-30.23-0.1
			C323.92,73.52,324.13,63.51,324.15,53.49z"/>
	</g>
	<g>
		<g>
			<path class="st2" d="M291.78,14.79c158.77-0.02,317.54,0,476.31,0.07c-0.04,158.72,0.1,317.45-0.07,476.16
				c-158.74-0.09-317.49,0.06-476.23,0.08C291.77,332.33,291.79,173.56,291.78,14.79z M297.89,446.52
				c0.14,12.73-0.27,25.48,0.2,38.19c154.71-0.21,309.43-0.01,464.14-0.1c0.02-154.51-0.02-309.03,0.02-463.54
				c-154.77-0.1-309.54,0.01-464.31-0.06C297.83,162.85,297.92,304.68,297.89,446.52z"/>
		</g>
		<g>
			<path class="st2" d="M310.97,34.93c146.04-0.2,292.09-0.03,438.13-0.08c0,62.1,0.01,124.21,0,186.32
				c-8.71-0.01-17.41,0.04-26.11-0.03c-0.18,11.64-0.05,23.29-0.06,34.93c-55.17,0.14-110.33-0.08-165.5,0.11
				c2.65-14.81,6.26-29.47,9.37-44.2c-27.38-0.26-54.76,0-82.14-0.13c-7.57,14.71-14.72,29.64-22.36,44.31
				c-50.43-0.16-100.88,0.07-151.31-0.11C311.02,182.34,311.06,108.63,310.97,34.93z M685.55,58.63
				c-15.31,5.88-28.25,17.38-36.34,31.6c-9.07,15.68-12.27,34.41-10.25,52.32c1.79,17.29,9.79,34.03,22.83,45.64
				c13.32,11.73,30.84,18.1,48.44,19.24c2.16-10.9,4.45-21.77,6.6-32.67c-11.19-0.24-22.17-4.75-30.64-11.99
				c-9.6-8.44-14.09-21.61-13.11-34.2c0.45-12,5.29-23.99,14.18-32.22c11.11-11.12,27.79-14.11,42.93-12.97
				c1.83-9.97,3.76-19.93,5.6-29.9C718.99,50.8,701.37,52.18,685.55,58.63z M324.15,53.49c-0.02,10.02-0.23,20.03-0.22,30.04
				c10.08,0.06,20.15,0.03,30.23,0.1c6.22,51.93,12.51,103.86,18.73,155.8c27.21-50.63,54.29-101.34,81.49-151.98
				c10.74,0.02,21.48-0.01,32.22,0.02c-10.87,36.51-21.8,73-32.67,109.51c10.84,0,21.67,0.03,32.51-0.02
				c10.97-36.5,21.94-73,32.93-109.5c14.25-0.01,28.51-0.01,42.76,0c-10.91,36.5-21.85,72.98-32.77,109.48
				c24.44,0.12,48.89,0,73.34,0.06c3.27-10.68,6.5-21.36,9.68-32.06c-13.87,0.03-27.75,0.01-41.63,0.01
				c2.49-8.15,4.89-16.33,7.49-24.45c13.01,0.07,26.03,0.08,39.04-0.01c2.99-10.2,6.27-20.32,9.17-30.55
				c-13.05,0.05-26.11,0.04-39.16,0.01c2.52-8.36,5.06-16.7,7.59-25.05c13.85-0.02,27.7,0.01,41.55-0.02
				c3.15-10.46,6.3-20.92,9.43-31.39c-68.47-0.01-136.94-0.01-205.41,0c-16.4,30.32-32.82,60.64-49.19,90.97
				c-0.29,0.25-0.87,0.75-1.16,0.99c-3.53-30.65-7.33-61.27-10.9-91.92C360.85,53.43,342.5,53.51,324.15,53.49z"/>
		</g>
		<path class="st2" d="M311.02,264.26c49.14,0,98.28-0.04,147.41,0.02c-2.35,4.68-4.72,9.36-7.11,14.02
			c-46.76,0.01-93.51-0.02-140.27,0.02C310.98,273.63,311.02,268.94,311.02,264.26z"/>
		<path class="st2" d="M555.43,264.23c55.82-0.01,111.65,0.01,167.47,0.02c0,4.69,0.04,9.38-0.03,14.07
			c-56.81-0.03-113.62-0.05-170.44-0.03C553.4,273.59,554.42,268.91,555.43,264.23z"/>
		<path class="st2" d="M311.02,286.46c45.45,0.01,90.89-0.06,136.34,0.04c-3.37,6.74-6.82,13.45-10.15,20.21
			c-42.06,0.09-84.13,0.02-126.19,0.03C311.01,299.98,311.01,293.22,311.02,286.46z"/>
		<path class="st2" d="M550.64,286.5c57.42-0.1,114.84-0.02,172.26-0.04c0.02,6.76,0.01,13.52,0,20.28
			c-58.87,0.01-117.74,0.02-176.62,0C547.7,299.99,549.21,293.25,550.64,286.5z"/>
		<path class="st2" d="M311.02,315.06c40.65-0.02,81.3-0.02,121.95,0c-3.81,7.5-7.35,15.15-11.36,22.54
			c-36.86-0.17-73.73-0.01-110.59-0.08C311.01,330.03,311.01,322.54,311.02,315.06z"/>
		<path class="st2" d="M544.48,315.06c59.47-0.02,118.95-0.02,178.43-0.01c0,7.49,0.01,14.98-0.01,22.47
			c-61.08-0.01-122.17,0.06-183.26-0.03C541.27,330.01,542.85,322.53,544.48,315.06z"/>
		<path class="st2" d="M311.15,345.63c35.48,0.16,70.96,0.03,106.44,0.07c-4.05,8.41-8.33,16.71-12.36,25.13
			c-31.4,0.14-62.81,0.03-94.21,0.05C311.09,362.47,310.85,354.04,311.15,345.63z"/>
		<path class="st2" d="M537.85,345.71c61.66-0.06,123.31,0.07,184.96-0.07c0.23,8.41,0.04,16.83,0.09,25.24
			c-63.48-0.04-126.98,0.13-190.46-0.08C534.3,362.45,536.04,354.07,537.85,345.71z"/>
		<path class="st2" d="M523.28,413.53c2.34-11.39,4.78-22.77,7.08-34.17c64.18-0.22,128.36-0.04,192.54-0.09
			c0.02,11.42,0.02,22.85,0,34.27C656.36,413.55,589.82,413.55,523.28,413.53z"/>
		<path class="st2" d="M311.02,422.1c137.3-0.01,274.59-0.01,411.88,0c0.03,16.31-0.01,32.61,0.02,48.92
			c-137.3,0.04-274.61,0.05-411.92-0.01C311.04,454.71,311,438.4,311.02,422.1z"/>
	</g>
	<path class="st3" d="M175.14,610.34c20.71,0.01,41.42-0.06,62.13,0.03c-0.03,12.32,0,24.63-0.01,36.95c-20.71,0.01-41.42,0-62.12,0
		C175.13,634.99,175.13,622.67,175.14,610.34z"/>
	<path class="st3" d="M678.17,610.34c20.71-0.01,41.41-0.02,62.12,0c0.01,12.33,0,24.65,0,36.98c-20.71,0-41.41,0.01-62.12,0
		C678.16,634.99,678.16,622.66,678.17,610.34z"/>
	<path class="st3" d="M434.82,658.68c0.14-13.85-0.22-27.72,0.18-41.57c20.63,0.25,41.27,0.05,61.91,0.1
		c0.12,13.82,0,27.65,0.06,41.47c11.18,0.02,22.36,0,33.54,0.02c-0.04,10.16,0.14,20.33-0.09,30.5c-11.15-0.1-22.3-0.03-33.45-0.04
		c-0.04,40.77,0.02,81.54-0.03,122.3c0.01,3.82-0.06,8,2.26,11.26c2.07,3.12,5.81,4.45,9.35,5.1c7.94,1.49,16.07,1.51,24.12,1.63
		c0.02,11.02,0.01,22.03,0.01,33.05h-68.84c-5.84-1.08-11.86-2.25-17.03-5.33c-4.64-2.69-6.93-7.87-8.51-12.74
		c-2.84-9.35-3.36-19.21-3.46-28.93c-0.02-42.11,0.01-84.22-0.02-126.34c-9.25-0.11-18.51,0.18-27.76-0.15
		c0.2-10.1,0.02-20.21,0.1-30.32C416.38,658.68,425.6,658.7,434.82,658.68z"/>
	<path class="st3" d="M569.59,617.23c20.71-0.02,41.42-0.02,62.13,0c0.02,13.82,0,27.63,0.01,41.45c11.18,0.03,22.37,0,33.56,0.01
		c-0.01,10.16,0.01,20.31-0.01,30.47c-11.19,0-22.38-0.04-33.56,0.01c0.01,41.44,0.01,82.87,0,124.31c-0.01,3.48,0.46,7.25,2.82,10
		c2.23,2.72,5.76,3.77,9.09,4.41c7.85,1.39,15.86,1.46,23.81,1.56c0.01,11.01,0,22.03,0,33.05h-68.7
		c-8.3-1.58-18.51-3.2-22.88-11.44c-5.8-11.23-6.04-24.28-6.26-36.64c-0.02-41.75,0.01-83.51-0.02-125.26
		c-9.22-0.03-18.44,0.01-27.67-0.01c-0.01-10.15,0.01-20.3,0-30.44c9.22-0.05,18.45,0,27.68-0.03
		C569.61,644.86,569.59,631.05,569.59,617.23z"/>
	<g>
		<path class="st3" d="M1105.33,633.68c9.72,0.17,19.46-0.24,29.19,0.25c6.44,0.58,13.68,2.22,17.75,7.73
			c4.41,6.37,3.62,16.1-2.25,21.33c-2.29,2.18-5.29,3.33-8.24,4.29c4.53,8.96,8.95,17.98,13.57,26.89
			c-5.51,0.28-11.02,0.11-16.52,0.1c-3.78-8.29-7.72-16.49-11.53-24.75c-2.45-0.03-4.9-0.04-7.33-0.02
			c-0.01,8.26-0.02,16.52,0.01,24.79c-4.91,0.04-9.82,0.01-14.72,0.02C1105.28,674.1,1105.15,653.89,1105.33,633.68z
			 M1119.97,643.04c-0.01,5.84-0.02,11.7,0,17.55c5.13-0.17,10.52,0.65,15.42-1.29c6.09-2.29,5.91-12.38-0.02-14.76
			C1130.52,642.43,1125.09,643.16,1119.97,643.04z"/>
	</g>
	<g>
		<path class="st3" d="M287.38,660.76c17.74-4.03,36.15-4.1,54.21-2.71c14.36,1.45,29.42,4.24,41.19,13.15
			c8.45,6.29,13.13,16.8,12.97,27.25c-0.03,26.27,0.13,52.53-0.09,78.8c-27.79-0.15-55.59-0.04-83.38-0.06
			c-0.03,15.75,0,31.51-0.02,47.26c-0.04,3.22,0.51,6.89,3.25,8.99c3.53,2.61,8.43,2.59,12.51,1.45c4.01-1.17,5.98-5.49,5.81-9.41
			c0.08-11.47-0.04-22.95,0.05-34.43c20.63,0.03,41.25-0.01,61.87,0.02c0,11.82,0.05,23.65-0.02,35.47
			c-0.09,7.74-2.53,15.58-7.61,21.51c-6.2,7.47-15.35,11.57-24.41,14.45h-80.76c-10.13-3.04-20.28-8.15-26.41-17.09
			c-4.87-6.93-6.44-15.62-6.19-23.95c0.03-40.32-0.01-80.63,0.02-120.95c-0.04-8.36,2.28-16.92,7.63-23.47
			C265.24,668.04,276.42,663.39,287.38,660.76z M317.2,690.24c-3.64,1.46-5.12,5.61-4.93,9.28c0,15.61-0.01,31.22,0,46.84
			c7.19,0.01,14.38-0.01,21.56,0.01c0.05-15.61,0.01-31.23,0.02-46.84c0.12-3.46-1.03-7.42-4.36-9.05
			C325.7,688.68,321.07,688.74,317.2,690.24z"/>
	</g>
	<g>
		<path class="st3" d="M766.47,671.59c11.57-9.14,26.6-12.07,40.92-13.54c18.03-1.43,36.41-1.23,54.15,2.61
			c11.7,2.7,23.9,7.57,31.14,17.66c5.09,6.91,6.46,15.74,6.12,24.14c-0.05,24.91,0.05,49.82-0.05,74.74
			c-27.82-0.03-55.63-0.02-83.44-0.01c-0.02,15.77,0,31.53-0.02,47.3c-0.04,3.2,0.52,6.84,3.23,8.94c3.53,2.61,8.4,2.59,12.48,1.48
			c3.62-1.06,5.81-4.78,5.81-8.43c0.21-11.81-0.03-23.62,0.1-35.42c20.63,0.02,41.25-0.02,61.87,0.01c0.02,11.14,0,22.27,0.02,33.4
			c0.15,7.76-1.69,15.76-6.42,22.03c-6.16,8.39-15.98,12.97-25.65,16h-80.74c-11.28-3.31-22.67-9.48-28.33-20.24
			c-4.56-8.14-4.42-17.71-4.27-26.75c0.02-38.67-0.04-77.34,0.03-116.01C753.42,688.87,757.99,678.17,766.47,671.59z M820.8,690
			c-3.55,1.15-5.53,4.91-5.46,8.5c-0.09,15.95-0.02,31.9-0.03,47.86c7.18,0.01,14.37-0.01,21.56,0c0.02-15.62,0.01-31.24,0.01-46.86
			c0.08-3.23-0.84-6.89-3.78-8.68C829.43,688.67,824.76,688.77,820.8,690z"/>
	</g>
	<path class="st3" d="M974.68,665.51c7.69-4.81,16.73-6.84,25.66-7.68c10.02-0.92,20.3-1.02,30.1,1.6
		c8.89,2.63,18.45,6.2,23.97,14.11c3.73,5.18,4,11.78,3.78,17.92c-0.02,57.01,0,114.03-0.01,171.04h-62.12
		c-0.01-54.36,0-108.71-0.01-163.06c0.16-3.5-1.41-7.37-4.91-8.62c-4.08-1.47-8.92-1.48-12.79,0.57c-2.83,1.57-3.78,4.99-3.66,8.03
		c0,54.36,0,108.72,0,163.08h-62.12c0-67.94-0.01-135.87,0-203.81c20.7,0,41.41,0,62.12,0
		C974.68,660.96,974.68,663.23,974.68,665.51z"/>
	<path class="st3" d="M1.66,658.72c20.84-0.07,41.68-0.02,62.52-0.02c7.17,40.28,13.98,80.64,21.39,120.89
		c7.11-40.28,13.93-80.61,20.97-120.91c20.4,0.02,40.8,0,61.2,0.01c-14.99,67.95-30.13,135.86-45.08,203.81H46.85
		C31.71,794.59,16.77,726.64,1.66,658.72z"/>
	<path class="st3" d="M175.14,658.69c20.71,0,41.41,0,62.12,0c0,67.94,0,135.87,0,203.81h-62.13
		C175.14,794.56,175.12,726.63,175.14,658.69z"/>
	<path class="st3" d="M678.18,658.69c20.7,0,41.41,0,62.11,0c0.01,67.94,0,135.87,0,203.81h-62.12
		C678.17,794.56,678.15,726.63,678.18,658.69z"/>
	<path class="st3" d="M1181.45,653.2c-4.59-20.86-21.08-37.24-41.99-41.69c-0.3-0.06-0.6-0.12-0.9-0.18
		c-0.43-0.08-0.86-0.16-1.29-0.23c-0.76-0.13-1.53-0.24-2.3-0.34c-0.26-0.03-0.51-0.07-0.77-0.1c-0.48-0.05-0.95-0.1-1.43-0.14
		c-0.33-0.03-0.67-0.05-1-0.08c-0.42-0.03-0.84-0.06-1.26-0.08c-0.75-0.03-1.51-0.05-2.27-0.06c-0.17,0-0.35,0-0.52,0
		c-17.73,0.1-33.47,8.64-43.39,21.81c-5.96,8.11-9.75,17.85-10.76,27.86c-0.15,1.66-0.24,3.34-0.24,5.04
		c0,9.26,2.31,17.97,6.36,25.61c6.38,11.82,17.17,21.28,29.82,25.87c0.78,0.29,1.57,0.55,2.37,0.8c3.38,1.04,6.89,1.77,10.51,2.14
		c0.03,0,0.06,0.01,0.08,0.01c0.75,0.08,1.51,0.13,2.26,0.17c0.26,0.01,0.52,0.03,0.78,0.04c0.51,0.02,1.02,0.03,1.54,0.04
		c0.55,0.01,1.1,0.02,1.65,0.01c0.2,0,0.41-0.01,0.61-0.02c8.37-0.23,16.7-2.36,24.11-6.29c5.05-2.63,9.66-6.06,13.66-10.09
		c0.44-0.45,0.87-0.9,1.29-1.36c0.07-0.08,0.14-0.15,0.22-0.23c6.27-6.92,10.77-15.45,12.86-24.89c0.84-3.81,1.29-7.76,1.29-11.82
		S1182.29,657.01,1181.45,653.2z M1163.12,694.17c-8.65,9.91-21.48,16.28-34.71,16.39c-18.02,0.4-35.36-11.27-42.4-27.73
		c-4.69-10.77-4.87-23.41-0.46-34.3c5.69-14.39,18.86-25.95,34.32-28.37c11.12-1.83,23.04,0.08,32.57,6.27
		c8.24,5.38,15,13.25,18.4,22.54C1176.43,664,1173.84,682.03,1163.12,694.17z"/>
</g>
</svg>
