<svg xmlns="http://www.w3.org/2000/svg" width="27" height="28" viewBox="0 0 27 28" fill="none">
  <path d="M13.5257 27.543H13.4663C6.04108 27.543 0 21.5001 0 14.0727V14.0133C0 6.58584 6.04108 0.542969 13.4663 0.542969H13.5257C20.951 0.542969 26.9921 6.58584 26.9921 14.0133V14.0727C26.9921 21.5001 20.951 27.543 13.5257 27.543ZM13.4663 1.45689C6.5445 1.45689 0.913653 7.08941 0.913653 14.0133V14.0727C0.913653 20.9966 6.5445 26.629 13.4663 26.629H13.5257C20.4476 26.629 26.0784 20.9966 26.0784 14.0727V14.0133C26.0784 7.08941 20.4476 1.45689 13.5257 1.45689H13.4663Z" fill="#ADADAD"/>
  <path d="M15.3118 11.0149V13.8563H18.8257L18.2693 17.6838H15.3118V26.5022C14.7188 26.5845 14.1121 26.6274 13.4963 26.6274C12.7855 26.6274 12.0875 26.5708 11.4077 26.4611V17.6838H8.16699V13.8563H11.4077V10.3797C11.4077 8.22288 13.1555 6.47363 15.3127 6.47363V6.47546C15.3191 6.47546 15.3246 6.47363 15.3309 6.47363H18.8266V9.78386H16.5425C15.8636 9.78386 15.3127 10.3349 15.3127 11.014L15.3118 11.0149Z" fill="#ADADAD"/>
</svg>