<?xml version="1.0" encoding="utf-8"?>
<!-- Generator: Adobe Illustrator 26.3.1, SVG Export Plug-In . SVG Version: 6.00 Build 0)  -->
<svg version="1.1" id="eUtfKsV2qQa1" text-rendering="geometricPrecision" shape-rendering="geometricPrecision"
	 xmlns="http://www.w3.org/2000/svg" xmlns:xlink="http://www.w3.org/1999/xlink" x="0px" y="0px" viewBox="0 0 36 36"
	 style="enable-background:new 0 0 36 36;" xml:space="preserve">
<style type="text/css">
	.st0{fill:url(#SVGID_1_);}
	.st1{fill:url(#SVGID_00000004537526627813307910000014272436493385300362_);}
	.st2{fill:url(#SVGID_00000004536363416419865180000002799787201501627283_);}
	.st3{fill:url(#SVGID_00000134953850866433173140000018090145839085704366_);}
	.st4{fill:url(#SVGID_00000065786587921563041080000005464338456223942823_);}
	.st5{fill:url(#SVGID_00000106147195137580398840000011615044668355038126_);}
	.st6{fill:url(#SVGID_00000097499665188031432150000015545888546744019358_);}
	.st7{fill:url(#SVGID_00000033334715885157842810000015073609701222109118_);}
	.st8{fill:url(#SVGID_00000166675071620043416590000005348181837464801207_);}
	.st9{fill:url(#SVGID_00000081609654407002533950000011416644234590143383_);}
	.st10{fill:url(#SVGID_00000152248624957306629210000010533399730200677047_);}
	.st11{fill:url(#SVGID_00000150816899503461900220000001366046925369087112_);}
	.st12{fill:url(#SVGID_00000129926601577529473920000012682076682981239440_);}
	.st13{fill:url(#SVGID_00000094608955569109773860000000960015771732813203_);}
	.st14{fill:url(#SVGID_00000156566427531663425640000012406842338746823331_);}
	.st15{fill:url(#SVGID_00000092413876617570893950000014190522946692715710_);}
	.st16{fill:url(#SVGID_00000174567775667331806020000012134340932030842756_);}
	.st17{fill:url(#SVGID_00000062187769734660185920000017341575686574324630_);}
	.st18{fill:url(#SVGID_00000142173229502722140690000009438440321347252649_);}
	.st19{fill:url(#SVGID_00000126313113842363799760000005807238910022274235_);}
	.st20{fill:url(#SVGID_00000067194992640550465550000016581194279624509085_);}
	.st21{fill:url(#SVGID_00000045585607640042398790000001621629060875974035_);}
	.st22{fill:url(#SVGID_00000003817587662537477220000010296989195380225977_);}
	.st23{fill:url(#SVGID_00000129180087979996263270000002886957888621024697_);}
	.st24{fill:url(#SVGID_00000084518810605486066250000003711262038254666155_);}
	.st25{fill:url(#SVGID_00000048502296314594191110000004333770371876470667_);}
	.st26{fill:url(#SVGID_00000155854264342927559800000016588814924315455884_);}
	.st27{fill:url(#SVGID_00000042014489573765020470000002285824866439669426_);}
	.st28{fill:url(#SVGID_00000057125389445545800390000014910766818969996968_);}
	.st29{fill:url(#SVGID_00000085934228130927720780000010660437051994175642_);}
	.st30{fill:url(#SVGID_00000021090959056714107900000007538636210356444599_);}
	.st31{fill:url(#SVGID_00000125560958188843434280000007137788476318242223_);}
	.st32{fill:url(#SVGID_00000044154309042847321290000015604247077866670236_);}
	.st33{fill:url(#SVGID_00000017483566816399590090000004224062688810430383_);}
	.st34{fill:url(#SVGID_00000078003464827451153180000010379154146446826880_);}
	.st35{fill:url(#SVGID_00000095340093702508309820000002064568226145149573_);}
	.st36{fill:url(#SVGID_00000066481533954699634660000010490881742790793397_);}
	.st37{fill:url(#SVGID_00000034778512383274039840000017364008790589903007_);}
	.st38{fill:url(#SVGID_00000021810737270939978190000009569223492731010967_);}
	.st39{fill:url(#SVGID_00000002380478140186197280000003850386867241390472_);}
	.st40{fill:url(#SVGID_00000064320304610052299450000011409823308023335299_);}
	.st41{fill:url(#SVGID_00000059297328943403000970000004716487446737747845_);}
	.st42{fill:url(#SVGID_00000083788225767842767550000018283044548624738197_);}
	.st43{fill:url(#SVGID_00000079444694022547428670000006495657176409271480_);}
	.st44{fill:url(#SVGID_00000140707553933099300440000013396721876363284366_);}
	.st45{fill:url(#SVGID_00000163065873791424068850000000380446736409244060_);}
	.st46{fill:url(#SVGID_00000029724880099083537010000001730086145892423565_);}
	.st47{fill:url(#SVGID_00000176038670814672297140000009726498562175971999_);}
	.st48{fill:url(#SVGID_00000031175552098560649830000006889324954190296497_);}
	.st49{fill:url(#SVGID_00000101799966076694587040000014493939604991681694_);}
	.st50{fill:url(#SVGID_00000158717483432580357580000000967115517327163282_);}
	.st51{fill:url(#SVGID_00000131325369260838513480000006344324156083715248_);}
	.st52{fill:url(#SVGID_00000048482536044802265060000007137980391090709688_);}
	.st53{fill:url(#SVGID_00000026875622560052731160000006357513793053464473_);}
	.st54{fill:url(#SVGID_00000039109490459585916180000012940116871033452418_);}
	.st55{fill:url(#SVGID_00000104686442124774176330000010153330940203963556_);}
	.st56{fill:url(#SVGID_00000127029573306532689240000010846856018880216223_);}
	.st57{fill:url(#SVGID_00000080929178582741091730000012780311090203705273_);}
	.st58{fill:url(#SVGID_00000069386703762299691430000008310450802697562779_);}
	.st59{fill:url(#SVGID_00000178202669548218150140000009812240471424220302_);}
	.st60{fill:url(#SVGID_00000096043658725540012330000017858180445224445617_);}
	.st61{fill:url(#SVGID_00000022541660860420464780000008673399697377980033_);}
	.st62{fill:url(#SVGID_00000052826379193632364870000017249647025548086203_);}
	.st63{fill:url(#SVGID_00000085936878308320080190000003072143198992138415_);}
	.st64{fill:url(#SVGID_00000088850989992461964260000016676857526631273124_);}
	.st65{fill:url(#SVGID_00000165947650605530279570000005646452738311219349_);}
	.st66{fill:url(#SVGID_00000098181092177322062930000014463919017835575696_);}
	.st67{fill:url(#SVGID_00000059999316952333547160000013650698518491277482_);}
	.st68{fill:url(#SVGID_00000166642813304288206770000006962898858447079584_);}
	.st69{fill:url(#SVGID_00000152951002386292146940000013575256224987722930_);}
	.st70{fill:none;stroke:#1F90FF;}
	.st71{fill:url(#SVGID_00000079447405070981677250000016453795264757775521_);}
	.st72{fill:url(#SVGID_00000073718881094216416200000001069564916006250394_);}
	.st73{fill:url(#SVGID_00000117655946282336471100000014557575435530585483_);}
	.st74{fill:url(#SVGID_00000077282274846043317550000012730343046348159679_);}
	.st75{fill:url(#SVGID_00000062899200856849675250000008073839849789392818_);}
	.st76{fill:url(#SVGID_00000096776254972236280400000002840642248540915074_);}
</style>
<linearGradient id="SVGID_1_" gradientUnits="userSpaceOnUse" x1="23.6622" y1="-748.2231" x2="23.6622" y2="-770.2231" gradientTransform="matrix(1 0 0 -1 -8.3622 -745.1653)">
	<stop  offset="0" style="stop-color:#1F90FF;stop-opacity:0"/>
	<stop  offset="1" style="stop-color:#1F90FF"/>
</linearGradient>
<path class="st0" d="M15.4,4c0.2,0,0.4-0.2,0.4-0.5S15.6,3,15.3,3s-0.5,0.2-0.5,0.5C14.9,3.8,15.1,4,15.4,4z"/>
<linearGradient id="SVGID_00000100366404867556567390000017013978001559618949_" gradientUnits="userSpaceOnUse" x1="26.0622" y1="-748.2231" x2="26.0622" y2="-770.2231" gradientTransform="matrix(1 0 0 -1 -8.3622 -745.1653)">
	<stop  offset="0" style="stop-color:#1F90FF;stop-opacity:0"/>
	<stop  offset="1" style="stop-color:#1F90FF"/>
</linearGradient>
<path style="fill:url(#SVGID_00000100366404867556567390000017013978001559618949_);" d="M17.7,4c0.3,0,0.5-0.2,0.5-0.5S18,3,17.7,3
	s-0.5,0.2-0.5,0.5S17.4,4,17.7,4z"/>
<linearGradient id="SVGID_00000153666757200625689790000018083466172699728055_" gradientUnits="userSpaceOnUse" x1="16.8622" y1="-748.2231" x2="16.8622" y2="-770.2231" gradientTransform="matrix(1 0 0 -1 -8.3622 -745.1653)">
	<stop  offset="0" style="stop-color:#1F90FF;stop-opacity:0"/>
	<stop  offset="1" style="stop-color:#1F90FF"/>
</linearGradient>
<path style="fill:url(#SVGID_00000153666757200625689790000018083466172699728055_);" d="M8.5,6.3C8.8,6.3,9,6.1,9,5.8
	S8.8,5.3,8.5,5.3S8,5.6,8,5.8C8,6.1,8.3,6.3,8.5,6.3z"/>
<linearGradient id="SVGID_00000150068239276665971530000000007687307489273512_" gradientUnits="userSpaceOnUse" x1="19.1622" y1="-748.2231" x2="19.1622" y2="-770.2231" gradientTransform="matrix(1 0 0 -1 -8.3622 -745.1653)">
	<stop  offset="0" style="stop-color:#1F90FF;stop-opacity:0"/>
	<stop  offset="1" style="stop-color:#1F90FF"/>
</linearGradient>
<path style="fill:url(#SVGID_00000150068239276665971530000000007687307489273512_);" d="M10.8,6.3c0.3,0,0.5-0.2,0.5-0.5
	s-0.2-0.5-0.5-0.5s-0.5,0.2-0.5,0.5S10.5,6.3,10.8,6.3z"/>
<linearGradient id="SVGID_00000050624905864181877940000000195309907760867991_" gradientUnits="userSpaceOnUse" x1="21.4622" y1="-748.2231" x2="21.4622" y2="-770.2231" gradientTransform="matrix(1 0 0 -1 -8.3622 -745.1653)">
	<stop  offset="0" style="stop-color:#1F90FF;stop-opacity:0"/>
	<stop  offset="1" style="stop-color:#1F90FF"/>
</linearGradient>
<path style="fill:url(#SVGID_00000050624905864181877940000000195309907760867991_);" d="M13.1,6.3c0.3,0,0.5-0.2,0.5-0.5
	s-0.2-0.5-0.5-0.5s-0.5,0.2-0.5,0.5S12.8,6.3,13.1,6.3z"/>
<linearGradient id="SVGID_00000167382987623190658990000014621806903661614765_" gradientUnits="userSpaceOnUse" x1="23.6622" y1="-748.2231" x2="23.6622" y2="-770.2231" gradientTransform="matrix(1 0 0 -1 -8.3622 -745.1653)">
	<stop  offset="0" style="stop-color:#1F90FF;stop-opacity:0"/>
	<stop  offset="1" style="stop-color:#1F90FF"/>
</linearGradient>
<path style="fill:url(#SVGID_00000167382987623190658990000014621806903661614765_);" d="M15.4,6.3c0.2,0,0.4-0.2,0.4-0.5
	s-0.2-0.5-0.5-0.5s-0.5,0.2-0.5,0.5C14.9,6.1,15.1,6.3,15.4,6.3z"/>
<linearGradient id="SVGID_00000091000142897253104760000013662339941634758550_" gradientUnits="userSpaceOnUse" x1="26.0622" y1="-748.2231" x2="26.0622" y2="-770.2231" gradientTransform="matrix(1 0 0 -1 -8.3622 -745.1653)">
	<stop  offset="0" style="stop-color:#1F90FF;stop-opacity:0"/>
	<stop  offset="1" style="stop-color:#1F90FF"/>
</linearGradient>
<path style="fill:url(#SVGID_00000091000142897253104760000013662339941634758550_);" d="M17.7,6.3c0.3,0,0.5-0.2,0.5-0.5
	S18,5.3,17.7,5.3s-0.5,0.2-0.5,0.5S17.4,6.3,17.7,6.3z"/>
<linearGradient id="SVGID_00000121965775186116536040000006595728139508077479_" gradientUnits="userSpaceOnUse" x1="28.3622" y1="-748.2231" x2="28.3622" y2="-770.2231" gradientTransform="matrix(1 0 0 -1 -8.3622 -745.1653)">
	<stop  offset="0" style="stop-color:#1F90FF;stop-opacity:0"/>
	<stop  offset="1" style="stop-color:#1F90FF"/>
</linearGradient>
<path style="fill:url(#SVGID_00000121965775186116536040000006595728139508077479_);" d="M20,6.3c0.3,0,0.5-0.2,0.5-0.5
	S20.3,5.3,20,5.3s-0.5,0.2-0.5,0.5S19.7,6.3,20,6.3z"/>
<linearGradient id="SVGID_00000124136116767490066140000000331507816294598548_" gradientUnits="userSpaceOnUse" x1="30.6622" y1="-748.2231" x2="30.6622" y2="-770.2231" gradientTransform="matrix(1 0 0 -1 -8.3622 -745.1653)">
	<stop  offset="0" style="stop-color:#1F90FF;stop-opacity:0"/>
	<stop  offset="1" style="stop-color:#1F90FF"/>
</linearGradient>
<path style="fill:url(#SVGID_00000124136116767490066140000000331507816294598548_);" d="M22.3,6.3c0.3,0,0.5-0.2,0.5-0.5
	s-0.2-0.5-0.5-0.5s-0.5,0.3-0.5,0.5C21.8,6.1,22,6.3,22.3,6.3z"/>
<linearGradient id="SVGID_00000027590917529773744180000017715513061106933415_" gradientUnits="userSpaceOnUse" x1="32.9622" y1="-748.2231" x2="32.9622" y2="-770.2231" gradientTransform="matrix(1 0 0 -1 -8.3622 -745.1653)">
	<stop  offset="0" style="stop-color:#1F90FF;stop-opacity:0"/>
	<stop  offset="1" style="stop-color:#1F90FF"/>
</linearGradient>
<path style="fill:url(#SVGID_00000027590917529773744180000017715513061106933415_);" d="M24.6,6.3c0.3,0,0.5-0.2,0.5-0.5
	s-0.2-0.5-0.5-0.5s-0.5,0.2-0.5,0.5S24.3,6.3,24.6,6.3z"/>
<linearGradient id="SVGID_00000038373031616902426460000006338000676573884553_" gradientUnits="userSpaceOnUse" x1="16.8622" y1="-748.2231" x2="16.8622" y2="-770.2231" gradientTransform="matrix(1 0 0 -1 -8.3622 -745.1653)">
	<stop  offset="0" style="stop-color:#1F90FF;stop-opacity:0"/>
	<stop  offset="1" style="stop-color:#1F90FF"/>
</linearGradient>
<path style="fill:url(#SVGID_00000038373031616902426460000006338000676573884553_);" d="M8.5,8.6C8.8,8.6,9,8.4,9,8.1
	S8.8,7.6,8.5,7.6S8,7.9,8,8.1C8,8.4,8.2,8.6,8.5,8.6z"/>
<linearGradient id="SVGID_00000173866165695744719990000012950628061757960320_" gradientUnits="userSpaceOnUse" x1="19.1622" y1="-748.2231" x2="19.1622" y2="-770.2231" gradientTransform="matrix(1 0 0 -1 -8.3622 -745.1653)">
	<stop  offset="0" style="stop-color:#1F90FF;stop-opacity:0"/>
	<stop  offset="1" style="stop-color:#1F90FF"/>
</linearGradient>
<path style="fill:url(#SVGID_00000173866165695744719990000012950628061757960320_);" d="M10.8,8.6c0.3,0,0.5-0.2,0.5-0.5
	s-0.2-0.5-0.5-0.5s-0.5,0.2-0.5,0.5S10.5,8.6,10.8,8.6z"/>
<linearGradient id="SVGID_00000055665631787700709410000016558668481540599718_" gradientUnits="userSpaceOnUse" x1="21.4622" y1="-748.2231" x2="21.4622" y2="-770.2231" gradientTransform="matrix(1 0 0 -1 -8.3622 -745.1653)">
	<stop  offset="0" style="stop-color:#1F90FF;stop-opacity:0"/>
	<stop  offset="1" style="stop-color:#1F90FF"/>
</linearGradient>
<path style="fill:url(#SVGID_00000055665631787700709410000016558668481540599718_);" d="M13.1,8.6c0.3,0,0.5-0.2,0.5-0.5
	s-0.2-0.5-0.5-0.5s-0.5,0.2-0.5,0.5S12.8,8.6,13.1,8.6z"/>
<linearGradient id="SVGID_00000165920838946122925850000014828732944905119148_" gradientUnits="userSpaceOnUse" x1="23.7622" y1="-748.2231" x2="23.7622" y2="-770.2231" gradientTransform="matrix(1 0 0 -1 -8.3622 -745.1653)">
	<stop  offset="0" style="stop-color:#1F90FF;stop-opacity:0"/>
	<stop  offset="1" style="stop-color:#1F90FF"/>
</linearGradient>
<path style="fill:url(#SVGID_00000165920838946122925850000014828732944905119148_);" d="M15.4,8.6c0.3,0,0.5-0.2,0.5-0.5
	s-0.2-0.5-0.5-0.5s-0.5,0.2-0.5,0.5S15.1,8.6,15.4,8.6z"/>
<linearGradient id="SVGID_00000087401770901131094640000012288632285810799540_" gradientUnits="userSpaceOnUse" x1="26.0622" y1="-748.2231" x2="26.0622" y2="-770.2231" gradientTransform="matrix(1 0 0 -1 -8.3622 -745.1653)">
	<stop  offset="0" style="stop-color:#1F90FF;stop-opacity:0"/>
	<stop  offset="1" style="stop-color:#1F90FF"/>
</linearGradient>
<path style="fill:url(#SVGID_00000087401770901131094640000012288632285810799540_);" d="M17.7,8.6c0.3,0,0.5-0.2,0.5-0.5
	S18,7.6,17.7,7.6s-0.5,0.2-0.5,0.5C17.2,8.4,17.4,8.6,17.7,8.6z"/>
<linearGradient id="SVGID_00000020376925648191371690000013809878802513311624_" gradientUnits="userSpaceOnUse" x1="28.3622" y1="-748.2231" x2="28.3622" y2="-770.2231" gradientTransform="matrix(1 0 0 -1 -8.3622 -745.1653)">
	<stop  offset="0" style="stop-color:#1F90FF;stop-opacity:0"/>
	<stop  offset="1" style="stop-color:#1F90FF"/>
</linearGradient>
<path style="fill:url(#SVGID_00000020376925648191371690000013809878802513311624_);" d="M20,8.6c0.3,0,0.5-0.2,0.5-0.5
	S20.3,7.6,20,7.6s-0.5,0.2-0.5,0.5C19.5,8.4,19.7,8.6,20,8.6z"/>
<linearGradient id="SVGID_00000040532691100394127560000011858950640230702783_" gradientUnits="userSpaceOnUse" x1="30.6622" y1="-748.2231" x2="30.6622" y2="-770.2231" gradientTransform="matrix(1 0 0 -1 -8.3622 -745.1653)">
	<stop  offset="0" style="stop-color:#1F90FF;stop-opacity:0"/>
	<stop  offset="1" style="stop-color:#1F90FF"/>
</linearGradient>
<path style="fill:url(#SVGID_00000040532691100394127560000011858950640230702783_);" d="M22.3,8.6c0.3,0,0.5-0.2,0.5-0.5
	s-0.2-0.5-0.5-0.5s-0.5,0.3-0.5,0.5C21.8,8.4,22,8.6,22.3,8.6z"/>
<linearGradient id="SVGID_00000038393718852502921800000004771407610241767815_" gradientUnits="userSpaceOnUse" x1="32.9622" y1="-748.2231" x2="32.9622" y2="-770.2231" gradientTransform="matrix(1 0 0 -1 -8.3622 -745.1653)">
	<stop  offset="0" style="stop-color:#1F90FF;stop-opacity:0"/>
	<stop  offset="1" style="stop-color:#1F90FF"/>
</linearGradient>
<path style="fill:url(#SVGID_00000038393718852502921800000004771407610241767815_);" d="M24.6,8.6c0.3,0,0.5-0.2,0.5-0.5
	s-0.2-0.5-0.5-0.5s-0.5,0.2-0.5,0.5S24.3,8.6,24.6,8.6z"/>
<linearGradient id="SVGID_00000104707629973281520900000011176826945896196523_" gradientUnits="userSpaceOnUse" x1="16.8622" y1="-748.2231" x2="16.8622" y2="-770.2231" gradientTransform="matrix(1 0 0 -1 -8.3622 -745.1653)">
	<stop  offset="0" style="stop-color:#1F90FF;stop-opacity:0"/>
	<stop  offset="1" style="stop-color:#1F90FF"/>
</linearGradient>
<path style="fill:url(#SVGID_00000104707629973281520900000011176826945896196523_);" d="M8.5,11C8.8,11,9,10.8,9,10.5
	S8.8,9.9,8.5,9.9S8,10.1,8,10.4S8.2,11,8.5,11z"/>
<linearGradient id="SVGID_00000016062165379763105600000001703544307537561488_" gradientUnits="userSpaceOnUse" x1="19.1622" y1="-748.2231" x2="19.1622" y2="-770.2231" gradientTransform="matrix(1 0 0 -1 -8.3622 -745.1653)">
	<stop  offset="0" style="stop-color:#1F90FF;stop-opacity:0"/>
	<stop  offset="1" style="stop-color:#1F90FF"/>
</linearGradient>
<path style="fill:url(#SVGID_00000016062165379763105600000001703544307537561488_);" d="M10.8,11c0.3,0,0.5-0.2,0.5-0.5
	s-0.2-0.6-0.5-0.6s-0.5,0.2-0.5,0.5S10.5,11,10.8,11z"/>
<linearGradient id="SVGID_00000181071957901863322020000003503274884415993756_" gradientUnits="userSpaceOnUse" x1="21.4622" y1="-748.2231" x2="21.4622" y2="-770.2231" gradientTransform="matrix(1 0 0 -1 -8.3622 -745.1653)">
	<stop  offset="0" style="stop-color:#1F90FF;stop-opacity:0"/>
	<stop  offset="1" style="stop-color:#1F90FF"/>
</linearGradient>
<path style="fill:url(#SVGID_00000181071957901863322020000003503274884415993756_);" d="M13.1,11c0.3,0,0.5-0.2,0.5-0.5
	S13.4,10,13.1,10s-0.5,0.2-0.5,0.5S12.8,11,13.1,11z"/>
<linearGradient id="SVGID_00000005963663315785272280000013635320342402523538_" gradientUnits="userSpaceOnUse" x1="23.7622" y1="-748.2231" x2="23.7622" y2="-770.2231" gradientTransform="matrix(1 0 0 -1 -8.3622 -745.1653)">
	<stop  offset="0" style="stop-color:#1F90FF;stop-opacity:0"/>
	<stop  offset="1" style="stop-color:#1F90FF"/>
</linearGradient>
<path style="fill:url(#SVGID_00000005963663315785272280000013635320342402523538_);" d="M15.4,11c0.3,0,0.5-0.2,0.5-0.5
	S15.7,10,15.4,10s-0.5,0.2-0.5,0.5S15.1,11,15.4,11z"/>
<linearGradient id="SVGID_00000102505435231736833680000005386078537732424597_" gradientUnits="userSpaceOnUse" x1="26.0622" y1="-748.2231" x2="26.0622" y2="-770.2231" gradientTransform="matrix(1 0 0 -1 -8.3622 -745.1653)">
	<stop  offset="0" style="stop-color:#1F90FF;stop-opacity:0"/>
	<stop  offset="1" style="stop-color:#1F90FF"/>
</linearGradient>
<path style="fill:url(#SVGID_00000102505435231736833680000005386078537732424597_);" d="M17.7,11c0.3,0,0.5-0.2,0.5-0.5
	S18,10,17.7,10s-0.5,0.2-0.5,0.5S17.4,11,17.7,11z"/>
<linearGradient id="SVGID_00000183947740941290843260000006437050356737730190_" gradientUnits="userSpaceOnUse" x1="28.3622" y1="-748.2231" x2="28.3622" y2="-770.2231" gradientTransform="matrix(1 0 0 -1 -8.3622 -745.1653)">
	<stop  offset="0" style="stop-color:#1F90FF;stop-opacity:0"/>
	<stop  offset="1" style="stop-color:#1F90FF"/>
</linearGradient>
<path style="fill:url(#SVGID_00000183947740941290843260000006437050356737730190_);" d="M20,11c0.3,0,0.5-0.2,0.5-0.5
	S20.3,10,20,10s-0.5,0.2-0.5,0.5S19.7,11,20,11z"/>
<linearGradient id="SVGID_00000146465769251555423280000011107180117301306535_" gradientUnits="userSpaceOnUse" x1="30.6622" y1="-748.2231" x2="30.6622" y2="-770.2231" gradientTransform="matrix(1 0 0 -1 -8.3622 -745.1653)">
	<stop  offset="0" style="stop-color:#1F90FF;stop-opacity:0"/>
	<stop  offset="1" style="stop-color:#1F90FF"/>
</linearGradient>
<path style="fill:url(#SVGID_00000146465769251555423280000011107180117301306535_);" d="M22.3,11c0.3,0,0.5-0.2,0.5-0.5
	S22.6,10,22.3,10s-0.5,0.2-0.5,0.5S22,11,22.3,11z"/>
<linearGradient id="SVGID_00000109021653237828178030000009358927162515507330_" gradientUnits="userSpaceOnUse" x1="32.9622" y1="-748.2231" x2="32.9622" y2="-770.2231" gradientTransform="matrix(1 0 0 -1 -8.3622 -745.1653)">
	<stop  offset="0" style="stop-color:#1F90FF;stop-opacity:0"/>
	<stop  offset="1" style="stop-color:#1F90FF"/>
</linearGradient>
<path style="fill:url(#SVGID_00000109021653237828178030000009358927162515507330_);" d="M24.6,11c0.3,0,0.5-0.2,0.5-0.5
	S24.9,10,24.6,10s-0.5,0.2-0.5,0.5S24.3,11,24.6,11z"/>
<linearGradient id="SVGID_00000097474038300073131960000016448822472776733096_" gradientUnits="userSpaceOnUse" x1="14.5622" y1="-748.2231" x2="14.5622" y2="-770.2231" gradientTransform="matrix(1 0 0 -1 -8.3622 -745.1653)">
	<stop  offset="0" style="stop-color:#1F90FF;stop-opacity:0"/>
	<stop  offset="1" style="stop-color:#1F90FF"/>
</linearGradient>
<path style="fill:url(#SVGID_00000097474038300073131960000016448822472776733096_);" d="M6.2,13.3c0.3,0,0.6-0.3,0.6-0.6
	s-0.3-0.6-0.6-0.6s-0.6,0.3-0.6,0.6C5.6,13.1,5.9,13.3,6.2,13.3z"/>
<linearGradient id="SVGID_00000125573789269736306880000000407548878534853514_" gradientUnits="userSpaceOnUse" x1="16.8622" y1="-748.2231" x2="16.8622" y2="-770.2231" gradientTransform="matrix(1 0 0 -1 -8.3622 -745.1653)">
	<stop  offset="0" style="stop-color:#1F90FF;stop-opacity:0"/>
	<stop  offset="1" style="stop-color:#1F90FF"/>
</linearGradient>
<path style="fill:url(#SVGID_00000125573789269736306880000000407548878534853514_);" d="M8.5,13.3c0.3,0,0.6-0.3,0.6-0.6
	s-0.3-0.6-0.6-0.6s-0.6,0.3-0.6,0.6C7.9,13.1,8.2,13.3,8.5,13.3z"/>
<linearGradient id="SVGID_00000053516006191556242100000007906858158948728490_" gradientUnits="userSpaceOnUse" x1="19.1622" y1="-748.2231" x2="19.1622" y2="-770.2231" gradientTransform="matrix(1 0 0 -1 -8.3622 -745.1653)">
	<stop  offset="0" style="stop-color:#1F90FF;stop-opacity:0"/>
	<stop  offset="1" style="stop-color:#1F90FF"/>
</linearGradient>
<path style="fill:url(#SVGID_00000053516006191556242100000007906858158948728490_);" d="M10.8,13.3c0.3,0,0.6-0.3,0.6-0.6
	s-0.3-0.6-0.6-0.6s-0.6,0.3-0.6,0.6S10.5,13.3,10.8,13.3z"/>
<linearGradient id="SVGID_00000132083022698704026290000001340093886043645874_" gradientUnits="userSpaceOnUse" x1="21.4622" y1="-748.2231" x2="21.4622" y2="-770.2231" gradientTransform="matrix(1 0 0 -1 -8.3622 -745.1653)">
	<stop  offset="0" style="stop-color:#1F90FF;stop-opacity:0"/>
	<stop  offset="1" style="stop-color:#1F90FF"/>
</linearGradient>
<path style="fill:url(#SVGID_00000132083022698704026290000001340093886043645874_);" d="M13.1,13.3c0.3,0,0.6-0.3,0.6-0.6
	s-0.3-0.6-0.6-0.6s-0.6,0.3-0.6,0.6S12.8,13.3,13.1,13.3z"/>
<linearGradient id="SVGID_00000011020242296831422480000018383034478493806725_" gradientUnits="userSpaceOnUse" x1="23.7622" y1="-748.2231" x2="23.7622" y2="-770.2231" gradientTransform="matrix(1 0 0 -1 -8.3622 -745.1653)">
	<stop  offset="0" style="stop-color:#1F90FF;stop-opacity:0"/>
	<stop  offset="1" style="stop-color:#1F90FF"/>
</linearGradient>
<path style="fill:url(#SVGID_00000011020242296831422480000018383034478493806725_);" d="M15.4,13.3c0.3,0,0.6-0.3,0.6-0.6
	s-0.3-0.6-0.6-0.6s-0.6,0.3-0.6,0.6C14.8,13.1,15,13.3,15.4,13.3z"/>
<linearGradient id="SVGID_00000075132575517829547120000002963559369825542066_" gradientUnits="userSpaceOnUse" x1="26.0622" y1="-748.2231" x2="26.0622" y2="-770.2231" gradientTransform="matrix(1 0 0 -1 -8.3622 -745.1653)">
	<stop  offset="0" style="stop-color:#1F90FF;stop-opacity:0"/>
	<stop  offset="1" style="stop-color:#1F90FF"/>
</linearGradient>
<path style="fill:url(#SVGID_00000075132575517829547120000002963559369825542066_);" d="M17.7,13.3c0.3,0,0.6-0.3,0.6-0.6
	s-0.3-0.6-0.6-0.6c-0.3,0-0.6,0.3-0.6,0.6C17.1,13.1,17.3,13.3,17.7,13.3z"/>
<linearGradient id="SVGID_00000003807087184688897250000016959505604798926762_" gradientUnits="userSpaceOnUse" x1="28.3622" y1="-748.2231" x2="28.3622" y2="-770.2231" gradientTransform="matrix(1 0 0 -1 -8.3622 -745.1653)">
	<stop  offset="0" style="stop-color:#1F90FF;stop-opacity:0"/>
	<stop  offset="1" style="stop-color:#1F90FF"/>
</linearGradient>
<path style="fill:url(#SVGID_00000003807087184688897250000016959505604798926762_);" d="M20,13.3c0.3,0,0.6-0.3,0.6-0.6
	s-0.3-0.6-0.6-0.6c-0.3,0-0.6,0.3-0.6,0.6C19.4,13.1,19.6,13.3,20,13.3z"/>
<linearGradient id="SVGID_00000155858313625604180000000004642540337300710568_" gradientUnits="userSpaceOnUse" x1="30.6622" y1="-748.2231" x2="30.6622" y2="-770.2231" gradientTransform="matrix(1 0 0 -1 -8.3622 -745.1653)">
	<stop  offset="0" style="stop-color:#1F90FF;stop-opacity:0"/>
	<stop  offset="1" style="stop-color:#1F90FF"/>
</linearGradient>
<path style="fill:url(#SVGID_00000155858313625604180000000004642540337300710568_);" d="M22.3,13.3c0.3,0,0.6-0.3,0.6-0.6
	s-0.3-0.6-0.6-0.6s-0.6,0.3-0.6,0.6C21.7,13.1,21.9,13.3,22.3,13.3z"/>
<linearGradient id="SVGID_00000052100300613818192230000002308140308591950774_" gradientUnits="userSpaceOnUse" x1="32.9525" y1="-748.2231" x2="32.9525" y2="-770.2231" gradientTransform="matrix(1 0 0 -1 -8.3622 -745.1653)">
	<stop  offset="0" style="stop-color:#1F90FF;stop-opacity:0"/>
	<stop  offset="1" style="stop-color:#1F90FF"/>
</linearGradient>
<path style="fill:url(#SVGID_00000052100300613818192230000002308140308591950774_);" d="M24.6,13.3c0.3,0,0.6-0.3,0.6-0.6
	s-0.3-0.6-0.6-0.6c-0.3,0-0.6,0.3-0.6,0.6C23.9,13.1,24.2,13.3,24.6,13.3z"/>
<linearGradient id="SVGID_00000072958519020861777000000000765964269480792507_" gradientUnits="userSpaceOnUse" x1="35.2525" y1="-748.2231" x2="35.2525" y2="-770.2231" gradientTransform="matrix(1 0 0 -1 -8.3622 -745.1653)">
	<stop  offset="0" style="stop-color:#1F90FF;stop-opacity:0"/>
	<stop  offset="1" style="stop-color:#1F90FF"/>
</linearGradient>
<path style="fill:url(#SVGID_00000072958519020861777000000000765964269480792507_);" d="M26.9,13.3c0.3,0,0.6-0.3,0.6-0.6
	s-0.3-0.6-0.6-0.6c-0.3,0-0.6,0.3-0.6,0.6C26.2,13.1,26.5,13.3,26.9,13.3z"/>
<linearGradient id="SVGID_00000003815928969839141770000008934205152536934299_" gradientUnits="userSpaceOnUse" x1="16.8622" y1="-748.2231" x2="16.8622" y2="-770.2231" gradientTransform="matrix(1 0 0 -1 -8.3622 -745.1653)">
	<stop  offset="0" style="stop-color:#1F90FF;stop-opacity:0"/>
	<stop  offset="1" style="stop-color:#1F90FF"/>
</linearGradient>
<path style="fill:url(#SVGID_00000003815928969839141770000008934205152536934299_);" d="M8.5,15.7c0.4,0,0.6-0.3,0.6-0.7
	s-0.3-0.7-0.6-0.7S7.9,14.6,7.9,15S8.1,15.7,8.5,15.7z"/>
<linearGradient id="SVGID_00000109006396792859500270000015376991600637208454_" gradientUnits="userSpaceOnUse" x1="19.1525" y1="-748.2231" x2="19.1525" y2="-770.2231" gradientTransform="matrix(1 0 0 -1 -8.3622 -745.1653)">
	<stop  offset="0" style="stop-color:#1F90FF;stop-opacity:0"/>
	<stop  offset="1" style="stop-color:#1F90FF"/>
</linearGradient>
<path style="fill:url(#SVGID_00000109006396792859500270000015376991600637208454_);" d="M10.8,15.7c0.4,0,0.6-0.3,0.6-0.7
	s-0.3-0.7-0.6-0.7c-0.4,0-0.6,0.3-0.6,0.7C10.1,15.4,10.4,15.7,10.8,15.7z"/>
<linearGradient id="SVGID_00000033340504900956676730000002143895108012872597_" gradientUnits="userSpaceOnUse" x1="21.4525" y1="-748.2231" x2="21.4525" y2="-770.2231" gradientTransform="matrix(1 0 0 -1 -8.3622 -745.1653)">
	<stop  offset="0" style="stop-color:#1F90FF;stop-opacity:0"/>
	<stop  offset="1" style="stop-color:#1F90FF"/>
</linearGradient>
<path style="fill:url(#SVGID_00000033340504900956676730000002143895108012872597_);" d="M13.1,15.7c0.4,0,0.6-0.3,0.6-0.7
	s-0.3-0.7-0.6-0.7c-0.4,0-0.6,0.3-0.6,0.7C12.4,15.4,12.7,15.7,13.1,15.7z"/>
<linearGradient id="SVGID_00000103248758072195554950000002982512141590175371_" gradientUnits="userSpaceOnUse" x1="23.7622" y1="-748.2231" x2="23.7622" y2="-770.2231" gradientTransform="matrix(1 0 0 -1 -8.3622 -745.1653)">
	<stop  offset="0" style="stop-color:#1F90FF;stop-opacity:0"/>
	<stop  offset="1" style="stop-color:#1F90FF"/>
</linearGradient>
<path style="fill:url(#SVGID_00000103248758072195554950000002982512141590175371_);" d="M15.4,15.7c0.4,0,0.7-0.3,0.7-0.7
	s-0.3-0.7-0.7-0.7s-0.7,0.3-0.7,0.7C14.7,15.4,15,15.7,15.4,15.7z"/>
<linearGradient id="SVGID_00000132048218305416950620000007152953693621825447_" gradientUnits="userSpaceOnUse" x1="26.0622" y1="-748.2231" x2="26.0622" y2="-770.2231" gradientTransform="matrix(1 0 0 -1 -8.3622 -745.1653)">
	<stop  offset="0" style="stop-color:#1F90FF;stop-opacity:0"/>
	<stop  offset="1" style="stop-color:#1F90FF"/>
</linearGradient>
<path style="fill:url(#SVGID_00000132048218305416950620000007152953693621825447_);" d="M17.7,15.7c0.4,0,0.7-0.3,0.7-0.7
	s-0.3-0.7-0.7-0.7c-0.4,0-0.7,0.3-0.7,0.7S17.3,15.7,17.7,15.7z"/>
<linearGradient id="SVGID_00000025416789882950167520000015788678751753127046_" gradientUnits="userSpaceOnUse" x1="28.3622" y1="-748.2231" x2="28.3622" y2="-770.2231" gradientTransform="matrix(1 0 0 -1 -8.3622 -745.1653)">
	<stop  offset="0" style="stop-color:#1F90FF;stop-opacity:0"/>
	<stop  offset="1" style="stop-color:#1F90FF"/>
</linearGradient>
<path style="fill:url(#SVGID_00000025416789882950167520000015788678751753127046_);" d="M20,15.7c0.4,0,0.7-0.3,0.7-0.7
	s-0.3-0.7-0.7-0.7c-0.4,0-0.7,0.3-0.7,0.7S19.6,15.7,20,15.7z"/>
<linearGradient id="SVGID_00000076569066977525225120000002838092958318590884_" gradientUnits="userSpaceOnUse" x1="30.6622" y1="-748.2231" x2="30.6622" y2="-770.2231" gradientTransform="matrix(1 0 0 -1 -8.3622 -745.1653)">
	<stop  offset="0" style="stop-color:#1F90FF;stop-opacity:0"/>
	<stop  offset="1" style="stop-color:#1F90FF"/>
</linearGradient>
<path style="fill:url(#SVGID_00000076569066977525225120000002838092958318590884_);" d="M22.3,15.7c0.4,0,0.7-0.3,0.7-0.7
	s-0.3-0.7-0.7-0.7s-0.7,0.3-0.7,0.7C21.6,15.4,21.9,15.7,22.3,15.7z"/>
<linearGradient id="SVGID_00000093165083769858652210000010313793802929157041_" gradientUnits="userSpaceOnUse" x1="32.9622" y1="-748.2231" x2="32.9622" y2="-770.2231" gradientTransform="matrix(1 0 0 -1 -8.3622 -745.1653)">
	<stop  offset="0" style="stop-color:#1F90FF;stop-opacity:0"/>
	<stop  offset="1" style="stop-color:#1F90FF"/>
</linearGradient>
<path style="fill:url(#SVGID_00000093165083769858652210000010313793802929157041_);" d="M24.6,15.7c0.4,0,0.7-0.3,0.7-0.7
	s-0.3-0.7-0.7-0.7c-0.4,0-0.7,0.3-0.7,0.7S24.2,15.7,24.6,15.7z"/>
<linearGradient id="SVGID_00000042001540047610678660000002774164951681612221_" gradientUnits="userSpaceOnUse" x1="35.2622" y1="-748.2231" x2="35.2622" y2="-770.2231" gradientTransform="matrix(1 0 0 -1 -8.3622 -745.1653)">
	<stop  offset="0" style="stop-color:#1F90FF;stop-opacity:0"/>
	<stop  offset="1" style="stop-color:#1F90FF"/>
</linearGradient>
<path style="fill:url(#SVGID_00000042001540047610678660000002774164951681612221_);" d="M26.9,15.7c0.4,0,0.7-0.3,0.7-0.7
	s-0.3-0.7-0.7-0.7c-0.4,0-0.7,0.3-0.7,0.7C26.2,15.4,26.5,15.7,26.9,15.7z"/>
<linearGradient id="SVGID_00000054985059197092665780000017108248710068720555_" gradientUnits="userSpaceOnUse" x1="16.8622" y1="-748.2231" x2="16.8622" y2="-770.2231" gradientTransform="matrix(1 0 0 -1 -8.3622 -745.1653)">
	<stop  offset="0" style="stop-color:#1F90FF;stop-opacity:0"/>
	<stop  offset="1" style="stop-color:#1F90FF"/>
</linearGradient>
<path style="fill:url(#SVGID_00000054985059197092665780000017108248710068720555_);" d="M8.5,18.1c0.4,0,0.7-0.3,0.7-0.7
	c0-0.4-0.3-0.7-0.7-0.7S7.8,17,7.8,17.4C7.8,17.7,8.1,18.1,8.5,18.1z"/>
<linearGradient id="SVGID_00000106841873572827552030000006304300823774970002_" gradientUnits="userSpaceOnUse" x1="19.1622" y1="-748.2231" x2="19.1622" y2="-770.2231" gradientTransform="matrix(1 0 0 -1 -8.3622 -745.1653)">
	<stop  offset="0" style="stop-color:#1F90FF;stop-opacity:0"/>
	<stop  offset="1" style="stop-color:#1F90FF"/>
</linearGradient>
<path style="fill:url(#SVGID_00000106841873572827552030000006304300823774970002_);" d="M10.8,18.1c0.4,0,0.7-0.3,0.7-0.7
	c0-0.4-0.3-0.7-0.7-0.7s-0.7,0.3-0.7,0.7C10.1,17.7,10.4,18.1,10.8,18.1z"/>
<linearGradient id="SVGID_00000036973560395820550210000007497199346967759038_" gradientUnits="userSpaceOnUse" x1="21.4622" y1="-748.2231" x2="21.4622" y2="-770.2231" gradientTransform="matrix(1 0 0 -1 -8.3622 -745.1653)">
	<stop  offset="0" style="stop-color:#1F90FF;stop-opacity:0"/>
	<stop  offset="1" style="stop-color:#1F90FF"/>
</linearGradient>
<path style="fill:url(#SVGID_00000036973560395820550210000007497199346967759038_);" d="M13.1,18.1c0.4,0,0.7-0.3,0.7-0.7
	c0-0.4-0.3-0.7-0.7-0.7s-0.7,0.3-0.7,0.7C12.4,17.7,12.7,18.1,13.1,18.1z"/>
<linearGradient id="SVGID_00000060010851385592776660000003478932260894341521_" gradientUnits="userSpaceOnUse" x1="23.7622" y1="-748.2231" x2="23.7622" y2="-770.2231" gradientTransform="matrix(1 0 0 -1 -8.3622 -745.1653)">
	<stop  offset="0" style="stop-color:#1F90FF;stop-opacity:0"/>
	<stop  offset="1" style="stop-color:#1F90FF"/>
</linearGradient>
<path style="fill:url(#SVGID_00000060010851385592776660000003478932260894341521_);" d="M15.4,18.1c0.4,0,0.7-0.3,0.7-0.7
	c0-0.4-0.3-0.7-0.7-0.7s-0.7,0.3-0.7,0.7C14.7,17.7,15,18.1,15.4,18.1z"/>
<linearGradient id="SVGID_00000018944432215546766720000006028230234779727763_" gradientUnits="userSpaceOnUse" x1="26.0622" y1="-748.2231" x2="26.0622" y2="-770.2231" gradientTransform="matrix(1 0 0 -1 -8.3622 -745.1653)">
	<stop  offset="0" style="stop-color:#1F90FF;stop-opacity:0"/>
	<stop  offset="1" style="stop-color:#1F90FF"/>
</linearGradient>
<path style="fill:url(#SVGID_00000018944432215546766720000006028230234779727763_);" d="M17.7,18.1c0.4,0,0.7-0.3,0.7-0.7
	c0-0.4-0.3-0.7-0.7-0.7S17,17,17,17.4C17,17.7,17.3,18.1,17.7,18.1z"/>
<linearGradient id="SVGID_00000113335375161625665690000014401874183682146750_" gradientUnits="userSpaceOnUse" x1="28.3544" y1="-748.2231" x2="28.3544" y2="-770.2231" gradientTransform="matrix(1 0 0 -1 -8.3622 -745.1653)">
	<stop  offset="0" style="stop-color:#1F90FF;stop-opacity:0"/>
	<stop  offset="1" style="stop-color:#1F90FF"/>
</linearGradient>
<path style="fill:url(#SVGID_00000113335375161625665690000014401874183682146750_);" d="M20,18.1c0.4,0,0.7-0.3,0.7-0.7
	c0-0.4-0.3-0.7-0.7-0.7c-0.4,0-0.7,0.3-0.7,0.7C19.2,17.7,19.6,18.1,20,18.1z"/>
<linearGradient id="SVGID_00000120518545035898913050000010923545814985308819_" gradientUnits="userSpaceOnUse" x1="30.6544" y1="-748.2231" x2="30.6544" y2="-770.2231" gradientTransform="matrix(1 0 0 -1 -8.3622 -745.1653)">
	<stop  offset="0" style="stop-color:#1F90FF;stop-opacity:0"/>
	<stop  offset="1" style="stop-color:#1F90FF"/>
</linearGradient>
<path style="fill:url(#SVGID_00000120518545035898913050000010923545814985308819_);" d="M22.3,18.1c0.4,0,0.7-0.3,0.7-0.7
	c0-0.4-0.3-0.7-0.7-0.7s-0.7,0.3-0.7,0.7C21.5,17.7,21.9,18.1,22.3,18.1z"/>
<linearGradient id="SVGID_00000085937244372278072080000013979192236209821601_" gradientUnits="userSpaceOnUse" x1="32.9544" y1="-748.2231" x2="32.9544" y2="-770.2231" gradientTransform="matrix(1 0 0 -1 -8.3622 -745.1653)">
	<stop  offset="0" style="stop-color:#1F90FF;stop-opacity:0"/>
	<stop  offset="1" style="stop-color:#1F90FF"/>
</linearGradient>
<path style="fill:url(#SVGID_00000085937244372278072080000013979192236209821601_);" d="M24.6,18.1c0.4,0,0.7-0.3,0.7-0.7
	c0-0.4-0.3-0.7-0.7-0.7c-0.4,0-0.7,0.3-0.7,0.7C23.8,17.7,24.2,18.1,24.6,18.1z"/>
<linearGradient id="SVGID_00000098936181839814688400000009556199125238769803_" gradientUnits="userSpaceOnUse" x1="16.8622" y1="-748.2231" x2="16.8622" y2="-770.2231" gradientTransform="matrix(1 0 0 -1 -8.3622 -745.1653)">
	<stop  offset="0" style="stop-color:#1F90FF;stop-opacity:0"/>
	<stop  offset="1" style="stop-color:#1F90FF"/>
</linearGradient>
<path style="fill:url(#SVGID_00000098936181839814688400000009556199125238769803_);" d="M8.5,20.4c0.4,0,0.8-0.3,0.8-0.8
	S9,18.8,8.5,18.8c-0.4,0-0.8,0.3-0.8,0.8S8.1,20.4,8.5,20.4z"/>
<linearGradient id="SVGID_00000108302401950873941430000010426884069684155275_" gradientUnits="userSpaceOnUse" x1="19.1622" y1="-748.2231" x2="19.1622" y2="-770.2231" gradientTransform="matrix(1 0 0 -1 -8.3622 -745.1653)">
	<stop  offset="0" style="stop-color:#1F90FF;stop-opacity:0"/>
	<stop  offset="1" style="stop-color:#1F90FF"/>
</linearGradient>
<path style="fill:url(#SVGID_00000108302401950873941430000010426884069684155275_);" d="M10.8,20.4c0.4,0,0.8-0.3,0.8-0.8
	c0-0.4-0.3-0.8-0.8-0.8c-0.4,0-0.8,0.3-0.8,0.8S10.4,20.4,10.8,20.4z"/>
<linearGradient id="SVGID_00000097467255553665558240000000436871240273013426_" gradientUnits="userSpaceOnUse" x1="21.4622" y1="-748.2231" x2="21.4622" y2="-770.2231" gradientTransform="matrix(1 0 0 -1 -8.3622 -745.1653)">
	<stop  offset="0" style="stop-color:#1F90FF;stop-opacity:0"/>
	<stop  offset="1" style="stop-color:#1F90FF"/>
</linearGradient>
<path style="fill:url(#SVGID_00000097467255553665558240000000436871240273013426_);" d="M13.1,20.4c0.4,0,0.8-0.3,0.8-0.8
	c0-0.4-0.3-0.8-0.8-0.8c-0.4,0-0.8,0.3-0.8,0.8S12.7,20.4,13.1,20.4z"/>
<linearGradient id="SVGID_00000075868115983599847210000005768904083375912618_" gradientUnits="userSpaceOnUse" x1="23.7622" y1="-748.2231" x2="23.7622" y2="-770.2231" gradientTransform="matrix(1 0 0 -1 -8.3622 -745.1653)">
	<stop  offset="0" style="stop-color:#1F90FF;stop-opacity:0"/>
	<stop  offset="1" style="stop-color:#1F90FF"/>
</linearGradient>
<path style="fill:url(#SVGID_00000075868115983599847210000005768904083375912618_);" d="M15.4,20.4c0.4,0,0.8-0.3,0.8-0.8
	c0-0.4-0.3-0.8-0.8-0.8c-0.4,0-0.8,0.3-0.8,0.8C14.6,20.1,15,20.4,15.4,20.4z"/>
<linearGradient id="SVGID_00000180337958954612940540000001184860862929651629_" gradientUnits="userSpaceOnUse" x1="26.0622" y1="-748.2231" x2="26.0622" y2="-770.2231" gradientTransform="matrix(1 0 0 -1 -8.3622 -745.1653)">
	<stop  offset="0" style="stop-color:#1F90FF;stop-opacity:0"/>
	<stop  offset="1" style="stop-color:#1F90FF"/>
</linearGradient>
<path style="fill:url(#SVGID_00000180337958954612940540000001184860862929651629_);" d="M17.7,20.4c0.4,0,0.8-0.3,0.8-0.8
	c0-0.4-0.3-0.8-0.8-0.8c-0.4,0-0.8,0.3-0.8,0.8C16.9,20.1,17.3,20.4,17.7,20.4z"/>
<linearGradient id="SVGID_00000142161882051705832130000001714998674952403643_" gradientUnits="userSpaceOnUse" x1="28.3622" y1="-748.2231" x2="28.3622" y2="-770.2231" gradientTransform="matrix(1 0 0 -1 -8.3622 -745.1653)">
	<stop  offset="0" style="stop-color:#1F90FF;stop-opacity:0"/>
	<stop  offset="1" style="stop-color:#1F90FF"/>
</linearGradient>
<path style="fill:url(#SVGID_00000142161882051705832130000001714998674952403643_);" d="M20,20.4c0.4,0,0.8-0.3,0.8-0.8
	c0-0.4-0.3-0.8-0.8-0.8c-0.4,0-0.8,0.3-0.8,0.8S19.5,20.4,20,20.4z"/>
<linearGradient id="SVGID_00000057111187900203514500000018055215736338825857_" gradientUnits="userSpaceOnUse" x1="30.6622" y1="-748.2231" x2="30.6622" y2="-770.2231" gradientTransform="matrix(1 0 0 -1 -8.3622 -745.1653)">
	<stop  offset="0" style="stop-color:#1F90FF;stop-opacity:0"/>
	<stop  offset="1" style="stop-color:#1F90FF"/>
</linearGradient>
<path style="fill:url(#SVGID_00000057111187900203514500000018055215736338825857_);" d="M22.3,20.4c0.4,0,0.8-0.3,0.8-0.8
	s-0.3-0.8-0.8-0.8c-0.4,0-0.8,0.3-0.8,0.8S21.8,20.4,22.3,20.4z"/>
<linearGradient id="SVGID_00000123405056113328022720000014409790592267132829_" gradientUnits="userSpaceOnUse" x1="32.9622" y1="-748.2231" x2="32.9622" y2="-770.2231" gradientTransform="matrix(1 0 0 -1 -8.3622 -745.1653)">
	<stop  offset="0" style="stop-color:#1F90FF;stop-opacity:0"/>
	<stop  offset="1" style="stop-color:#1F90FF"/>
</linearGradient>
<path style="fill:url(#SVGID_00000123405056113328022720000014409790592267132829_);" d="M24.6,20.4c0.4,0,0.8-0.3,0.8-0.8
	s-0.3-0.8-0.8-0.8c-0.4,0-0.8,0.3-0.8,0.8S24.1,20.4,24.6,20.4z"/>
<linearGradient id="SVGID_00000128482820842953488850000008046020902787380648_" gradientUnits="userSpaceOnUse" x1="19.1622" y1="-748.2231" x2="19.1622" y2="-770.2231" gradientTransform="matrix(1 0 0 -1 -8.3622 -745.1653)">
	<stop  offset="0" style="stop-color:#1F90FF;stop-opacity:0"/>
	<stop  offset="1" style="stop-color:#1F90FF"/>
</linearGradient>
<path style="fill:url(#SVGID_00000128482820842953488850000008046020902787380648_);" d="M10.8,22.4c0.3,0,0.5-0.2,0.5-0.5
	s-0.2-0.5-0.5-0.5s-0.5,0.2-0.5,0.5S10.5,22.4,10.8,22.4z"/>
<linearGradient id="SVGID_00000183929221974000080420000002616074882384067767_" gradientUnits="userSpaceOnUse" x1="21.4622" y1="-748.2231" x2="21.4622" y2="-770.2231" gradientTransform="matrix(1 0 0 -1 -8.3622 -745.1653)">
	<stop  offset="0" style="stop-color:#1F90FF;stop-opacity:0"/>
	<stop  offset="1" style="stop-color:#1F90FF"/>
</linearGradient>
<path style="fill:url(#SVGID_00000183929221974000080420000002616074882384067767_);" d="M13.1,22.6c0.4,0,0.7-0.3,0.7-0.7
	c0-0.4-0.3-0.7-0.7-0.7s-0.7,0.3-0.7,0.7S12.7,22.6,13.1,22.6z"/>
<linearGradient id="SVGID_00000046337204337344557120000007500637631956777381_" gradientUnits="userSpaceOnUse" x1="23.7545" y1="-748.2231" x2="23.7545" y2="-770.2231" gradientTransform="matrix(1 0 0 -1 -8.3622 -745.1653)">
	<stop  offset="0" style="stop-color:#1F90FF;stop-opacity:0"/>
	<stop  offset="1" style="stop-color:#1F90FF"/>
</linearGradient>
<path style="fill:url(#SVGID_00000046337204337344557120000007500637631956777381_);" d="M15.4,22.8c0.5,0,0.8-0.4,0.8-0.8
	c0-0.5-0.4-0.8-0.8-0.8c-0.5,0-0.8,0.4-0.8,0.8C14.5,22.4,14.9,22.8,15.4,22.8z"/>
<linearGradient id="SVGID_00000127749128612441232480000003972107918695836549_" gradientUnits="userSpaceOnUse" x1="26.0545" y1="-748.2231" x2="26.0545" y2="-770.2231" gradientTransform="matrix(1 0 0 -1 -8.3622 -745.1653)">
	<stop  offset="0" style="stop-color:#1F90FF;stop-opacity:0"/>
	<stop  offset="1" style="stop-color:#1F90FF"/>
</linearGradient>
<path style="fill:url(#SVGID_00000127749128612441232480000003972107918695836549_);" d="M17.7,22.8c0.5,0,0.8-0.4,0.8-0.8
	c0-0.5-0.4-0.8-0.8-0.8c-0.5,0-0.8,0.4-0.8,0.8C16.8,22.4,17.2,22.8,17.7,22.8z"/>
<linearGradient id="SVGID_00000000224606625669291060000002321629888123210426_" gradientUnits="userSpaceOnUse" x1="28.3545" y1="-748.2231" x2="28.3545" y2="-770.2231" gradientTransform="matrix(1 0 0 -1 -8.3622 -745.1653)">
	<stop  offset="0" style="stop-color:#1F90FF;stop-opacity:0"/>
	<stop  offset="1" style="stop-color:#1F90FF"/>
</linearGradient>
<path style="fill:url(#SVGID_00000000224606625669291060000002321629888123210426_);" d="M20,22.8c0.5,0,0.8-0.4,0.8-0.8
	c0-0.5-0.4-0.8-0.8-0.8c-0.5,0-0.8,0.4-0.8,0.8C19.1,22.4,19.5,22.8,20,22.8z"/>
<linearGradient id="SVGID_00000102544332949348267600000002362239228753645189_" gradientUnits="userSpaceOnUse" x1="30.6622" y1="-748.2231" x2="30.6622" y2="-770.2231" gradientTransform="matrix(1 0 0 -1 -8.3622 -745.1653)">
	<stop  offset="0" style="stop-color:#1F90FF;stop-opacity:0"/>
	<stop  offset="1" style="stop-color:#1F90FF"/>
</linearGradient>
<path style="fill:url(#SVGID_00000102544332949348267600000002362239228753645189_);" d="M22.3,22.4c0.3,0,0.5-0.2,0.5-0.5
	s-0.2-0.5-0.5-0.5s-0.5,0.3-0.5,0.5C21.8,22.2,22,22.4,22.3,22.4z"/>
<linearGradient id="SVGID_00000056419363648298596630000014111774158615759284_" gradientUnits="userSpaceOnUse" x1="32.9622" y1="-748.2231" x2="32.9622" y2="-770.2231" gradientTransform="matrix(1 0 0 -1 -8.3622 -745.1653)">
	<stop  offset="0" style="stop-color:#1F90FF;stop-opacity:0"/>
	<stop  offset="1" style="stop-color:#1F90FF"/>
</linearGradient>
<path style="fill:url(#SVGID_00000056419363648298596630000014111774158615759284_);" d="M24.6,22.4c0.3,0,0.5-0.2,0.5-0.5
	s-0.2-0.5-0.5-0.5s-0.5,0.2-0.5,0.5S24.3,22.4,24.6,22.4z"/>
<linearGradient id="SVGID_00000098210404663378192490000001973352015122896545_" gradientUnits="userSpaceOnUse" x1="23.7622" y1="-748.2231" x2="23.7622" y2="-770.2231" gradientTransform="matrix(1 0 0 -1 -8.3622 -745.1653)">
	<stop  offset="0" style="stop-color:#1F90FF;stop-opacity:0"/>
	<stop  offset="1" style="stop-color:#1F90FF"/>
</linearGradient>
<path style="fill:url(#SVGID_00000098210404663378192490000001973352015122896545_);" d="M15.4,24.7c0.3,0,0.5-0.2,0.5-0.5
	s-0.2-0.5-0.5-0.5s-0.5,0.2-0.5,0.5S15.1,24.7,15.4,24.7z"/>
<linearGradient id="SVGID_00000176764226829320478670000013141289529996786561_" gradientUnits="userSpaceOnUse" x1="26.0622" y1="-748.2231" x2="26.0622" y2="-770.2231" gradientTransform="matrix(1 0 0 -1 -8.3622 -745.1653)">
	<stop  offset="0" style="stop-color:#1F90FF;stop-opacity:0"/>
	<stop  offset="1" style="stop-color:#1F90FF"/>
</linearGradient>
<path style="fill:url(#SVGID_00000176764226829320478670000013141289529996786561_);" d="M17.7,25.1c0.5,0,0.9-0.4,0.9-0.9
	s-0.4-0.9-0.9-0.9s-0.9,0.4-0.9,0.9S17.2,25.1,17.7,25.1z"/>
<path class="st70" d="M10.7,3.6c1.5,0.3,3-0.3,3.9-1.6c1.1-1.6,3.5-1.6,4.6,0C20,3.3,21.5,3.9,23,3.6c1.9-0.4,3.6,1.3,3.3,3.3
	c-0.3,1.5,0.3,3,1.6,3.9c1.6,1.1,1.6,3.5,0,4.6c-1.3,0.8-1.9,2.4-1.6,3.9c0.4,1.9-1.3,3.6-3.3,3.3c-1.5-0.3-3,0.3-3.9,1.6
	c-1.1,1.6-3.5,1.6-4.6,0c-0.8-1.3-2.4-1.9-3.9-1.6C8.7,23,7,21.3,7.3,19.3c0.3-1.5-0.3-3-1.6-3.9c-1.6-1.1-1.6-3.5,0-4.6
	C7,10,7.6,8.4,7.3,6.9C7,4.9,8.7,3.2,10.7,3.6z"/>
<path class="st70" d="M17,25.2l-5.5,9.9L9,30.5l-0.1-0.3H8.6l-5.2,0.3l5.2-8.4"/>
<path class="st70" d="M26.3,19.8l6.4,10.7l-5.2-0.3h-0.3L27,30.4l-2.3,4.7l-6-10.7"/>
<linearGradient id="SVGID_00000104699291541316838330000011413414885831653250_" gradientUnits="userSpaceOnUse" x1="19.2622" y1="-746.0114" x2="19.2622" y2="-768.0114" gradientTransform="matrix(1 0 0 -1 -8.3622 -745.1653)">
	<stop  offset="0" style="stop-color:#1F90FF;stop-opacity:0"/>
	<stop  offset="1" style="stop-color:#1F90FF"/>
</linearGradient>
<path style="fill:url(#SVGID_00000104699291541316838330000011413414885831653250_);" d="M10.9,4.1c0.3,0,0.5-0.2,0.5-0.5
	s-0.2-0.5-0.5-0.5s-0.5,0.2-0.5,0.5S10.6,4.1,10.9,4.1z"/>
<linearGradient id="SVGID_00000135652057116292631690000005004614280397161403_" gradientUnits="userSpaceOnUse" x1="21.5622" y1="-746.0114" x2="21.5622" y2="-768.0114" gradientTransform="matrix(1 0 0 -1 -8.3622 -745.1653)">
	<stop  offset="0" style="stop-color:#1F90FF;stop-opacity:0"/>
	<stop  offset="1" style="stop-color:#1F90FF"/>
</linearGradient>
<path style="fill:url(#SVGID_00000135652057116292631690000005004614280397161403_);" d="M13.2,4.1c0.3,0,0.5-0.2,0.5-0.5
	s-0.2-0.5-0.5-0.5s-0.5,0.2-0.5,0.5S12.9,4.1,13.2,4.1z"/>
<linearGradient id="SVGID_00000036959947958690159370000011808511483253979059_" gradientUnits="userSpaceOnUse" x1="23.7622" y1="-746.0114" x2="23.7622" y2="-768.0114" gradientTransform="matrix(1 0 0 -1 -8.3622 -745.1653)">
	<stop  offset="0" style="stop-color:#1F90FF;stop-opacity:0"/>
	<stop  offset="1" style="stop-color:#1F90FF"/>
</linearGradient>
<path style="fill:url(#SVGID_00000036959947958690159370000011808511483253979059_);" d="M15.5,4.1c0.2,0,0.4-0.2,0.4-0.5
	s-0.2-0.5-0.5-0.5s-0.5,0.2-0.5,0.5C15,3.9,15.2,4.1,15.5,4.1z"/>
<linearGradient id="SVGID_00000109732246263721920400000003268488947704234682_" gradientUnits="userSpaceOnUse" x1="26.1622" y1="-746.0114" x2="26.1622" y2="-768.0114" gradientTransform="matrix(1 0 0 -1 -8.3622 -745.1653)">
	<stop  offset="0" style="stop-color:#1F90FF;stop-opacity:0"/>
	<stop  offset="1" style="stop-color:#1F90FF"/>
</linearGradient>
<path style="fill:url(#SVGID_00000109732246263721920400000003268488947704234682_);" d="M17.8,4.1c0.3,0,0.5-0.2,0.5-0.5
	s-0.2-0.5-0.5-0.5s-0.5,0.2-0.5,0.5S17.5,4.1,17.8,4.1z"/>
<linearGradient id="SVGID_00000124859585014048683040000016032211492923445914_" gradientUnits="userSpaceOnUse" x1="28.4622" y1="-746.0114" x2="28.4622" y2="-768.0114" gradientTransform="matrix(1 0 0 -1 -8.3622 -745.1653)">
	<stop  offset="0" style="stop-color:#1F90FF;stop-opacity:0"/>
	<stop  offset="1" style="stop-color:#1F90FF"/>
</linearGradient>
<path style="fill:url(#SVGID_00000124859585014048683040000016032211492923445914_);" d="M20.1,4.1c0.3,0,0.5-0.2,0.5-0.5
	s-0.2-0.5-0.5-0.5s-0.5,0.2-0.5,0.5S19.8,4.1,20.1,4.1z"/>
<linearGradient id="SVGID_00000178886254919329028970000006528563988200874396_" gradientUnits="userSpaceOnUse" x1="30.7622" y1="-746.0114" x2="30.7622" y2="-768.0114" gradientTransform="matrix(1 0 0 -1 -8.3622 -745.1653)">
	<stop  offset="0" style="stop-color:#1F90FF;stop-opacity:0"/>
	<stop  offset="1" style="stop-color:#1F90FF"/>
</linearGradient>
<path style="fill:url(#SVGID_00000178886254919329028970000006528563988200874396_);" d="M22.4,4.1c0.3,0,0.5-0.2,0.5-0.5
	s-0.2-0.5-0.5-0.5s-0.5,0.3-0.5,0.5C21.9,3.9,22.1,4.1,22.4,4.1z"/>
</svg>
