<svg xmlns="http://www.w3.org/2000/svg" width="27" height="28" viewBox="0 0 27 28" fill="none">
  <path d="M13.5179 27.543H13.4585C6.03326 27.543 -0.0078125 21.5001 -0.0078125 14.0727V14.0133C-0.0078125 6.58581 6.03326 0.542969 13.4585 0.542969H13.5179C20.9432 0.542969 26.9842 6.58581 26.9842 14.0133V14.0727C26.9842 21.5001 20.9432 27.543 13.5179 27.543ZM13.4585 1.45689C6.53669 1.45689 0.905841 7.08938 0.905841 14.0133V14.0727C0.905841 20.9966 6.53669 26.629 13.4585 26.629H13.5179C20.4397 26.629 26.0706 20.9966 26.0706 14.0727V14.0133C26.0706 7.08938 20.4397 1.45689 13.5179 1.45689H13.4585Z" fill="#ADADAD"/>
  <path d="M17.5234 6.30762H9.45405C7.22473 6.30762 5.41113 8.12175 5.41113 10.3517V17.7362C5.41113 19.9662 7.22473 21.7803 9.45405 21.7803H17.5234C19.7528 21.7803 21.5664 19.9662 21.5664 17.7362V10.3517C21.5664 8.12175 19.7528 6.30762 17.5234 6.30762ZM6.83735 10.3517C6.83735 8.90864 8.01139 7.73424 9.45405 7.73424H17.5234C18.9661 7.73424 20.1401 8.90864 20.1401 10.3517V17.7362C20.1401 19.1793 18.9661 20.3537 17.5234 20.3537H9.45405C8.01139 20.3537 6.83735 19.1793 6.83735 17.7362V10.3517Z" fill="#ADADAD"/>
  <path d="M13.4886 17.8046C15.5617 17.8046 17.2492 16.1175 17.2492 14.0429C17.2492 11.9683 15.5626 10.2812 13.4886 10.2812C11.4146 10.2812 9.72803 11.9683 9.72803 14.0429C9.72803 16.1175 11.4146 17.8046 13.4886 17.8046ZM13.4886 11.7088C14.776 11.7088 15.823 12.7561 15.823 14.0439C15.823 15.3316 14.776 16.3789 13.4886 16.3789C12.2013 16.3789 11.1542 15.3316 11.1542 14.0439C11.1542 12.7561 12.2013 11.7088 13.4886 11.7088Z" fill="#ADADAD"/>
  <path d="M17.5972 10.8894C18.1555 10.8894 18.6105 10.4352 18.6105 9.87585C18.6105 9.31653 18.1564 8.8623 17.5972 8.8623C17.0381 8.8623 16.584 9.31653 16.584 9.87585C16.584 10.4352 17.0381 10.8894 17.5972 10.8894Z" fill="#ADADAD"/>
</svg>