<svg xmlns="http://www.w3.org/2000/svg" width="28" height="28" viewBox="0 0 28 28" fill="none">
  <path d="M14.494 27.543H14.4346C7.00935 27.543 0.968262 21.5001 0.968262 14.0727V14.0133C0.968262 6.58583 7.00935 0.542969 14.4346 0.542969H14.494C21.9192 0.542969 27.9603 6.58583 27.9603 14.0133V14.0727C27.9603 21.5001 21.9192 27.543 14.494 27.543ZM14.4346 1.45689C7.51277 1.45689 1.88191 7.0894 1.88191 14.0133V14.0727C1.88191 20.9965 7.51277 26.629 14.4346 26.629H14.494C21.4158 26.629 27.0467 20.9965 27.0467 14.0727V14.0133C27.0467 7.0894 21.4158 1.45689 14.494 1.45689H14.4346Z" fill="#ADADAD"/>
  <path d="M7.64426 9.67112C7.30073 9.35216 7.12988 8.95735 7.12988 8.4876C7.12988 8.01784 7.30164 7.60565 7.64426 7.28578C7.98779 6.96682 8.43 6.80688 8.9718 6.80688C9.51359 6.80688 9.93845 6.96682 10.2811 7.28578C10.6246 7.60474 10.7954 8.00596 10.7954 8.4876C10.7954 8.96924 10.6237 9.35216 10.2811 9.67112C9.93754 9.99008 9.50172 10.15 8.9718 10.15C8.44188 10.15 7.98779 9.99008 7.64426 9.67112ZM10.5067 11.5008V21.2798H7.41767V11.5008H10.5067Z" fill="#ADADAD"/>
  <path d="M20.7904 12.4671C21.4637 13.1982 21.8 14.2017 21.8 15.4794V21.1073H18.8662V15.876C18.8662 15.2317 18.699 14.7309 18.3656 14.3744C18.0321 14.018 17.5826 13.8389 17.0198 13.8389C16.4569 13.8389 16.0074 14.0171 15.6739 14.3744C15.3404 14.7309 15.1732 15.2317 15.1732 15.876V21.1073H12.2222V11.4736H15.1732V12.7513C15.472 12.3254 15.875 11.9891 16.3811 11.7414C16.8873 11.4937 17.4565 11.3704 18.0896 11.3704C19.2171 11.3704 20.1179 11.7359 20.7904 12.4671Z" fill="#ADADAD"/>
</svg>