<svg xmlns="http://www.w3.org/2000/svg" width="28" height="28" viewBox="0 0 28 28" fill="none">
  <path d="M14.5018 27.543H14.4424C7.01715 27.543 0.976074 21.5001 0.976074 14.0727V14.0133C0.976074 6.58583 7.01715 0.542969 14.4424 0.542969H14.5018C21.927 0.542969 27.9681 6.58583 27.9681 14.0133V14.0727C27.9681 21.5001 21.927 27.543 14.5018 27.543ZM14.4424 1.45689C7.52057 1.45689 1.88973 7.0894 1.88973 14.0133V14.0727C1.88973 20.9965 7.52057 26.629 14.4424 26.629H14.5018C21.4236 26.629 27.0545 20.9965 27.0545 14.0727V14.0133C27.0545 7.0894 21.4236 1.45689 14.5018 1.45689H14.4424Z" fill="#ADADAD"/>
  <path d="M22.2049 13.3501C21.854 9.39103 18.5201 6.27637 14.4727 6.27637C10.1913 6.27637 6.70752 9.76115 6.70752 14.042C6.70752 15.6139 7.17805 17.0789 7.9848 18.3027L7.01725 20.4476C6.76234 21.0115 7.21642 21.6385 7.83131 21.5736L11.4338 21.1898C12.3676 21.5882 13.3945 21.8085 14.4727 21.8085C14.7467 21.8085 15.019 21.7938 15.2858 21.7664C15.5325 21.7399 15.7746 21.7025 16.014 21.6549C19.5452 20.9402 22.2149 17.8201 22.236 14.0867V14.042C22.236 13.8098 22.2259 13.5768 22.2049 13.3501ZM18.7851 12.2936L17.1551 14.8088L16.2927 16.1394C16.109 16.4227 15.7225 16.4904 15.4539 16.2856L14.024 15.2017L13.1424 14.5337C13.0711 14.4797 12.9715 14.4816 12.9021 14.5382L10.7386 16.3039C10.3905 16.5881 9.91444 16.1604 10.1584 15.7839L11.6851 13.4296L12.5476 12.098C12.7312 11.8147 13.1168 11.7471 13.3863 11.9509L14.7742 13.0038L15.6558 13.6709C15.7271 13.7258 15.8267 13.7239 15.8961 13.6663L18.204 11.7736C18.5521 11.4885 19.0299 11.9162 18.7851 12.2936Z" fill="#ADADAD"/>
</svg>