<svg xmlns="http://www.w3.org/2000/svg" width="28" height="28" viewBox="0 0 28 28" fill="none">
  <path d="M14.5096 27.543H14.4502C7.02496 27.543 0.983887 21.5001 0.983887 14.0727V14.0133C0.983887 6.58581 7.02496 0.542969 14.4502 0.542969H14.5096C21.9349 0.542969 27.9759 6.58581 27.9759 14.0133V14.0727C27.9759 21.5001 21.9349 27.543 14.5096 27.543ZM14.4502 1.45689C7.52839 1.45689 1.89754 7.08938 1.89754 14.0133V14.0727C1.89754 20.9966 7.52839 26.629 14.4502 26.629H14.5096C21.4314 26.629 27.0623 20.9966 27.0623 14.0727V14.0133C27.0623 7.08938 21.4314 1.45689 14.5096 1.45689H14.4502Z" fill="#ADADAD"/>
  <path d="M20.784 10.4377V12.9007C20.3537 12.8586 19.7945 12.7608 19.176 12.5342C18.3683 12.2381 17.7671 11.8332 17.3733 11.5198V16.4979L17.3633 16.4823C17.3697 16.581 17.3733 16.6816 17.3733 16.783C17.3733 19.2552 15.3624 21.2676 12.89 21.2676C10.4177 21.2676 8.40674 19.2552 8.40674 16.783C8.40674 14.3109 10.4177 12.2975 12.89 12.2975C13.1322 12.2975 13.3697 12.3167 13.6018 12.3542V14.7815C13.3788 14.702 13.1395 14.6591 12.89 14.6591C11.7196 14.6591 10.7667 15.6114 10.7667 16.783C10.7667 17.9547 11.7196 18.907 12.89 18.907C14.0604 18.907 15.0134 17.9537 15.0134 16.783C15.0134 16.7391 15.0125 16.6953 15.0097 16.6514V6.97754H17.4702C17.4793 7.18591 17.4875 7.39613 17.4967 7.6045C17.5131 8.01485 17.6593 8.40876 17.9142 8.73137C18.213 9.11065 18.6543 9.55115 19.2737 9.90301C19.8539 10.2311 20.3984 10.3728 20.784 10.4395V10.4377Z" fill="#ADADAD"/>
</svg>